{
classes = (
{
automatic = 1;
code = "g-deva gh-deva ng-deva c-deva ch-deva nn-deva b-deva rr-deva sh-deva.loclMAR";
name = DevaHalfforms;
},
{
automatic = 1;
code = "iMatra-deva";
name = DevaIMatras;
},
{
automatic = 1;
code = "ka-deva kha-deva ga-deva gha-deva nga-deva ca-deva cha-deva ja-deva jha-deva nya-deva tta-deva ttha-deva dda-deva ddha-deva nna-deva ta-deva tha-deva da-deva dha-deva na-deva nnna-deva pa-deva pha-deva ba-deva bha-deva ma-deva ya-deva ra-deva rra-deva la-deva lla-deva llla-deva va-deva sha-deva ssa-deva sa-deva ha-deva qa-deva khha-deva ghha-deva za-deva dddha-deva rha-deva fa-deva yya-deva zha-deva jjya-deva gga-deva jja-deva ddda-deva bba-deva la-deva.loclMAR sha-deva.loclMAR jha-deva.loclNEP ka_ra-deva pa_ra-deva ma_ra-deva";
name = DevaFullforms;
}
);
copyright = "Copyright (c) 2014, Impallari Type (www.impallari.com).";
customParameters = (
{
name = openTypeOS2Type;
value = (
);
},
{
name = licenseURL;
value = "http://scripts.sil.org/OFL";
},
{
name = license;
value = "This Font Software is licensed under the SIL Open Font License, Version 1.1. This license is available with a FAQ at: http://scripts.sil.org/OFL";
},
{
name = trademark;
value = "Amika is a trademark of Impallari Type.";
},
{
name = description;
value = "Amika is a clean and utilitarian font family specifically designed for maximum legibility at the smallest possible sizes ranges. They are intended for body text on the web and low resolution screens. Amika supports Latin and Devanagari scripts.";
},
{
name = vendorID;
value = IMPA;
}
);
date = "2015-07-13 15:30:15 +0000";
designer = "Pablo Impallari, Rodrigo Fuenzalida";
designerURL = "http://www.impallari.com/";
familyName = "Amika";
featurePrefixes = (
{
automatic = 1;

glyphs = (
{
color = 1;
glyphname = A;
lastChange = "2015-07-16 06:11:37 +0000";
layers = (
{
anchors = (
{
name = bottom;
position = "{370, 0}";
},
{
name = ogonek;
position = "{699, 0}";
},
{
name = top;
position = "{370, 696}";
}
);
background = {
paths = (
{
closed = 1;
nodes = (
"689 0 LINE",
"425 696 LINE",
"332 696 LINE",
"596 0 LINE"
);
},
{
closed = 1;
nodes = (
"139 0 LINE",
"403 696 LINE",
"315 696 LINE",
"51 0 LINE"
);
},
{
closed = 1;
nodes = (
"557 174 LINE",
"557 249 LINE",
"183 249 LINE",
"183 174 LINE"
);
}
);
};
layerId = UUID0;
name = Regular;
paths = (
{
closed = 1;
nodes = (
"699 0 LINE",
"431 696 LINE",
"338 696 LINE",
"606 0 LINE"
);
},
{
closed = 1;
nodes = (
"129 0 LINE",
"397 696 LINE",
"309 696 LINE",
"41 0 LINE"
);
},
{
closed = 1;
nodes = (
"557 184 LINE",
"557 259 LINE",
"183 259 LINE",
"183 184 LINE"
);
}
);
width = 740;
},
{
anchors = (
{
name = bottom;
position = "{370, 0}";
},
{
name = ogonek;
position = "{711, 0}";
},
{
name = top;
position = "{370, 696}";
}
);
layerId = "CD42366C-28E1-4C24-AB95-7D2C522D2B07";
name = Bold;
paths = (
{
closed = 1;
nodes = (
"711 0 LINE",
"447 696 LINE",
"320 696 LINE",
"574 0 LINE"
);
},
{
closed = 1;
nodes = (
"161 0 LINE",
"415 696 LINE",
"293 696 LINE",
"29 0 LINE"
);
},
{
closed = 1;
nodes = (
"557 158 LINE",
"557 270 LINE",
"183 270 LINE",
"183 158 LINE"
);
}
);
width = 740;
}
);
unicode = 0041;
},
{
color = 1;
glyphname = AE;
lastChange = "2015-07-15 10:34:40 +0000";
layers = (
{
anchors = (
{
name = bottom;
position = "{493, 0}";
},
{
name = top;
position = "{518, 696}";
}
);
background = {
paths = (
{
closed = 1;
nodes = (
"470 0 LINE",
"885 0 LINE",
"885 84 LINE",
"558 84 LINE",
"558 612 LINE",
"885 612 LINE",
"885 696 LINE",
"470 696 LINE"
);
},
{
closed = 1;
nodes = (
"863 312 LINE",
"863 392 LINE",
"514 392 LINE",
"514 312 LINE"
);
}
);
};
layerId = UUID0;
name = Regular;
paths = (
{
closed = 1;
nodes = (
"470 0 LINE",
"885 0 LINE",
"885 84 LINE",
"558 84 LINE",
"558 312 LINE",
"863 312 LINE",
"863 392 LINE",
"558 392 LINE",
"558 612 LINE",
"885 612 LINE",
"885 696 LINE",
"402 696 LINE",
"41 0 LINE",
"137 0 LINE",
"228 174 LINE",
"470 174 LINE"
);
},
{
closed = 1;
nodes = (
"267 249 LINE",
"470 637 LINE",
"470 249 LINE"
);
}
);
width = 985;
},
{
anchors = (
{
name = bottom;
position = "{509.016, 0}";
},
{
name = top;
position = "{509.016, 696}";
}
);
background = {
paths = (
{
closed = 1;
nodes = (
"480 0 LINE",
"934 0 LINE",
"934 116 LINE",
"612 116 LINE",
"612 580 LINE",
"934 580 LINE",
"934 696 LINE",
"480 696 LINE"
);
},
{
closed = 1;
nodes = (
"912 297 LINE",
"912 406 LINE",
"546 406 LINE",
"546 297 LINE"
);
}
);
};
layerId = "CD42366C-28E1-4C24-AB95-7D2C522D2B07";
name = Bold;
paths = (
{
closed = 1;
nodes = (
"480 0 LINE",
"934 0 LINE",
"934 116 LINE",
"612 116 LINE",
"612 297 LINE",
"912 297 LINE",
"912 407 LINE",
"612 407 LINE",
"612 580 LINE",
"934 580 LINE",
"934 696 LINE",
"390 696 LINE",
"29 0 LINE",
"169 0 LINE",
"254 161 LINE",
"480 161 LINE"
);
},
{
closed = 1;
nodes = (
"309 269 LINE",
"480 595 LINE",
"480 269 LINE"
);
}
);
width = 1017;
}
);
leftMetricsKey = A;
rightMetricsKey = E;
unicode = 00C6;
},
{
color = 1;
glyphname = B;
lastChange = "2015-07-16 06:11:37 +0000";
layers = (
{
anchors = (
{
name = bottom;
position = "{350, 0}";
},
{
name = top;
position = "{350, 696}";
}
);
layerId = UUID0;
name = Regular;
paths = (
{
closed = 1;
nodes = (
"365 330 LINE SMOOTH",
"503 330 OFFCURVE",
"590 385 OFFCURVE",
"590 514 CURVE SMOOTH",
"590 639 OFFCURVE",
"509 696 OFFCURVE",
"376 696 CURVE SMOOTH",
"191 696 LINE",
"191 612 LINE",
"365 612 LINE SMOOTH",
"453 612 OFFCURVE",
"495 591 OFFCURVE",
"495 510 CURVE SMOOTH",
"495 424 OFFCURVE",
"455 397 OFFCURVE",
"365 397 CURVE SMOOTH",
"191 397 LINE",
"191 330 LINE"
);
},
{
closed = 1;
nodes = (
"369 0 LINE SMOOTH",
"517 0 OFFCURVE",
"613 56 OFFCURVE",
"613 195 CURVE SMOOTH",
"613 330 OFFCURVE",
"522 386 OFFCURVE",
"378 386 CURVE SMOOTH",
"213 386 LINE",
"213 696 LINE",
"125 696 LINE",
"125 0 LINE"
);
},
{
closed = 1;
nodes = (
"213 314 LINE",
"367 314 LINE SMOOTH",
"468 314 OFFCURVE",
"518 292 OFFCURVE",
"518 199 CURVE SMOOTH",
"518 106 OFFCURVE",
"469 84 OFFCURVE",
"369 84 CURVE SMOOTH",
"213 84 LINE"
);
}
);
width = 700;
},
{
anchors = (
{
name = bottom;
position = "{350, 0}";
},
{
name = top;
position = "{350, 696}";
}
);
layerId = "CD42366C-28E1-4C24-AB95-7D2C522D2B07";
name = Bold;
paths = (
{
closed = 1;
nodes = (
"360 330 LINE SMOOTH",
"521 330 OFFCURVE",
"607 394 OFFCURVE",
"607 513 CURVE SMOOTH",
"607 631 OFFCURVE",
"523 696 OFFCURVE",
"372 696 CURVE SMOOTH",
"191 696 LINE",
"191 580 LINE",
"361 580 LINE SMOOTH",
"441 580 OFFCURVE",
"468 561 OFFCURVE",
"468 500 CURVE SMOOTH",
"468 444 OFFCURVE",
"432 414 OFFCURVE",
"360 414 CURVE SMOOTH",
"191 414 LINE",
"191 330 LINE"
);
},
{
closed = 1;
nodes = (
"360 0 LINE SMOOTH",
"535 0 OFFCURVE",
"629 68 OFFCURVE",
"629 195 CURVE SMOOTH",
"629 319 OFFCURVE",
"539 386 OFFCURVE",
"372 386 CURVE SMOOTH",
"235 386 LINE",
"235 696 LINE",
"103 696 LINE",
"103 0 LINE"
);
},
{
closed = 1;
nodes = (
"235 299 LINE",
"361 299 LINE SMOOTH",
"449 299 OFFCURVE",
"490 270 OFFCURVE",
"490 208 CURVE SMOOTH",
"490 141 OFFCURVE",
"455 117 OFFCURVE",
"360 117 CURVE SMOOTH",
"235 117 LINE"
);
}
);
width = 700;
}
);
unicode = 0042;
},
{
color = 1;
glyphname = C;
lastChange = "2015-07-16 06:01:01 +0000";
layers = (
{
anchors = (
{
name = bottom;
position = "{410, 0}";
},
{
name = top;
position = "{414, 696}";
}
);
background = {
paths = (
{
closed = 1;
nodes = (
"474 -12 OFFCURVE",
"540 -1 OFFCURVE",
"588 21 CURVE",
"588 111 LINE",
"584 111 LINE",
"545 85 OFFCURVE",
"479 68 OFFCURVE",
"418 68 CURVE SMOOTH",
"258 68 OFFCURVE",
"196 183 OFFCURVE",
"196 349 CURVE SMOOTH",
"196 513 OFFCURVE",
"257 628 OFFCURVE",
"421 628 CURVE SMOOTH",
"487 628 OFFCURVE",
"540 609 OFFCURVE",
"584 585 CURVE",
"588 585 LINE",
"588 675 LINE",
"540 697 OFFCURVE",
"474 708 OFFCURVE",
"416 708 CURVE SMOOTH",
"206 708 OFFCURVE",
"101 562 OFFCURVE",
"101 348 CURVE SMOOTH",
"101 134 OFFCURVE",
"206 -12 OFFCURVE",
"416 -12 CURVE SMOOTH"
);
}
);
};
layerId = UUID0;
name = Regular;
paths = (
{
closed = 1;
nodes = (
"487 -12 OFFCURVE",
"557 6 OFFCURVE",
"613 41 CURVE",
"613 141 LINE",
"609 141 LINE",
"563 96 OFFCURVE",
"492 69 OFFCURVE",
"416 69 CURVE SMOOTH",
"260 69 OFFCURVE",
"196 182 OFFCURVE",
"196 348 CURVE SMOOTH",
"196 513 OFFCURVE",
"259 626 OFFCURVE",
"417 626 CURVE SMOOTH",
"499 626 OFFCURVE",
"567 596 OFFCURVE",
"609 555 CURVE",
"613 555 LINE",
"613 655 LINE",
"557 690 OFFCURVE",
"487 708 OFFCURVE",
"414 708 CURVE SMOOTH",
"208 708 OFFCURVE",
"101 562 OFFCURVE",
"101 348 CURVE SMOOTH",
"101 134 OFFCURVE",
"208 -12 OFFCURVE",
"414 -12 CURVE SMOOTH"
);
}
);
width = 720;
},
{
anchors = (
{
name = bottom;
position = "{400, 0}";
},
{
name = top;
position = "{360, 696}";
}
);
background = {
paths = (
{
closed = 1;
nodes = (
"506 -12 OFFCURVE",
"574 10 OFFCURVE",
"634 54 CURVE",
"634 177 LINE",
"630 177 LINE",
"569 130 OFFCURVE",
"502 105 OFFCURVE",
"433 105 CURVE SMOOTH",
"306 105 OFFCURVE",
"218 190 OFFCURVE",
"218 346 CURVE SMOOTH",
"218 509 OFFCURVE",
"315 586 OFFCURVE",
"455 586 CURVE SMOOTH",
"503 586 OFFCURVE",
"571 578 OFFCURVE",
"630 538 CURVE",
"634 538 LINE",
"634 660 LINE",
"574 686 OFFCURVE",
"511 702 OFFCURVE",
"434 702 CURVE SMOOTH",
"219 702 OFFCURVE",
"79 567 OFFCURVE",
"79 344 CURVE SMOOTH",
"79 130 OFFCURVE",
"209 -12 OFFCURVE",
"422 -12 CURVE SMOOTH"
);
}
);
};
layerId = "CD42366C-28E1-4C24-AB95-7D2C522D2B07";
name = Bold;
paths = (
{
closed = 1;
nodes = (
"517 -12 OFFCURVE",
"582 4 OFFCURVE",
"634 34 CURVE",
"634 157 LINE",
"630 157 LINE",
"575 123 OFFCURVE",
"514 105 OFFCURVE",
"457 105 CURVE SMOOTH",
"311 105 OFFCURVE",
"218 190 OFFCURVE",
"218 348 CURVE SMOOTH",
"218 507 OFFCURVE",
"313 592 OFFCURVE",
"463 592 CURVE SMOOTH",
"514 592 OFFCURVE",
"577 578 OFFCURVE",
"630 548 CURVE",
"634 548 LINE",
"634 670 LINE",
"582 696 OFFCURVE",
"514 708 OFFCURVE",
"452 708 CURVE SMOOTH",
"215 708 OFFCURVE",
"79 567 OFFCURVE",
"79 348 CURVE SMOOTH",
"79 129 OFFCURVE",
"213 -12 OFFCURVE",
"446 -12 CURVE SMOOTH"
);
}
);
width = 720;
}
);
unicode = 0043;
},
{
color = 1;
glyphname = D;
lastChange = "2015-07-18 21:05:44 +0000";
layers = (
{
anchors = (
{
name = bottom;
position = "{390, 0}";
},
{
name = center;
position = "{175, 348}";
},
{
name = top;
position = "{390, 696}";
}
);
background = {
paths = (
{
closed = 1;
nodes = (
"125 0 LINE",
"213 0 LINE",
"213 696 LINE",
"125 696 LINE"
);
},
{
closed = 1;
nodes = (
"587 0 LINE",
"675 0 LINE",
"675 696 LINE",
"587 696 LINE"
);
},
{
closed = 1;
nodes = (
"631 322 LINE",
"631 406 LINE",
"169 406 LINE",
"169 322 LINE"
);
}
);
};
layerId = UUID0;
name = Regular;
paths = (
{
closed = 1;
nodes = (
"213 0 LINE",
"213 696 LINE",
"125 696 LINE",
"125 0 LINE"
);
},
{
closed = 1;
nodes = (
"360 0 LINE SMOOTH",
"569 0 OFFCURVE",
"679 133 OFFCURVE",
"679 348 CURVE SMOOTH",
"679 563 OFFCURVE",
"569 696 OFFCURVE",
"360 696 CURVE SMOOTH",
"169 696 LINE",
"169 612 LINE",
"367 612 LINE SMOOTH",
"516 612 OFFCURVE",
"584 507 OFFCURVE",
"584 348 CURVE SMOOTH",
"584 189 OFFCURVE",
"516 84 OFFCURVE",
"367 84 CURVE SMOOTH",
"169 84 LINE",
"169 0 LINE"
);
}
);
width = 780;
},
{
anchors = (
{
name = bottom;
position = "{390, 0}";
},
{
name = center;
position = "{169, 348}";
},
{
name = top;
position = "{390, 696}";
}
);
layerId = "CD42366C-28E1-4C24-AB95-7D2C522D2B07";
name = Bold;
paths = (
{
closed = 1;
nodes = (
"235 0 LINE",
"235 696 LINE",
"103 696 LINE",
"103 0 LINE"
);
},
{
closed = 1;
nodes = (
"360 0 LINE SMOOTH",
"577 0 OFFCURVE",
"701 136 OFFCURVE",
"701 348 CURVE SMOOTH",
"701 560 OFFCURVE",
"577 696 OFFCURVE",
"360 696 CURVE SMOOTH",
"169 696 LINE",
"169 579 LINE",
"360 579 LINE SMOOTH",
"484 579 OFFCURVE",
"562 502 OFFCURVE",
"562 348 CURVE SMOOTH",
"562 194 OFFCURVE",
"484 117 OFFCURVE",
"360 117 CURVE SMOOTH",
"169 117 LINE",
"169 0 LINE"
);
}
);
width = 780;
}
);
unicode = 0044;
},
{
color = 1;
glyphname = E;
lastChange = "2015-07-15 10:34:40 +0000";
layers = (
{
anchors = (
{
name = bottom;
position = "{320, 0}";
},
{
name = ogonek;
position = "{540, 0}";
},
{
name = top;
position = "{339, 696}";
},
{
name = topleft;
position = "{20, 696}";
}
);
background = {
paths = (
{
closed = 1;
nodes = (
"125 0 LINE",
"213 0 LINE",
"213 696 LINE",
"125 696 LINE"
);
},
{
closed = 1;
nodes = (
"587 0 LINE",
"675 0 LINE",
"675 696 LINE",
"587 696 LINE"
);
},
{
closed = 1;
nodes = (
"631 322 LINE",
"631 406 LINE",
"169 406 LINE",
"169 322 LINE"
);
}
);
};
layerId = UUID0;
name = Regular;
paths = (
{
closed = 1;
nodes = (
"125 0 LINE",
"540 0 LINE",
"540 84 LINE",
"213 84 LINE",
"213 612 LINE",
"540 612 LINE",
"540 696 LINE",
"125 696 LINE"
);
},
{
closed = 1;
nodes = (
"518 312 LINE",
"518 392 LINE",
"169 392 LINE",
"169 312 LINE"
);
}
);
width = 640;
},
{
anchors = (
{
name = bottom;
position = "{320, 0}";
},
{
name = ogonek;
position = "{557, 0}";
},
{
name = top;
position = "{320, 696}";
},
{
name = topleft;
position = "{20, 696}";
}
);
layerId = "CD42366C-28E1-4C24-AB95-7D2C522D2B07";
name = Bold;
paths = (
{
closed = 1;
nodes = (
"103 0 LINE",
"557 0 LINE",
"557 116 LINE",
"235 116 LINE",
"235 580 LINE",
"557 580 LINE",
"557 696 LINE",
"103 696 LINE"
);
},
{
closed = 1;
nodes = (
"535 297 LINE",
"535 406 LINE",
"169 406 LINE",
"169 297 LINE"
);
}
);
width = 640;
}
);
unicode = 0045;
},
{
color = 1;
glyphname = F;
lastChange = "2015-07-16 06:11:37 +0000";
layers = (
{
anchors = (
{
name = bottom;
position = "{300, 0}";
},
{
name = top;
position = "{300, 696}";
}
);
background = {
paths = (
{
closed = 1;
nodes = (
"125 0 LINE",
"213 0 LINE",
"213 696 LINE",
"125 696 LINE"
);
},
{
closed = 1;
nodes = (
"587 0 LINE",
"675 0 LINE",
"675 696 LINE",
"587 696 LINE"
);
},
{
closed = 1;
nodes = (
"631 322 LINE",
"631 406 LINE",
"169 406 LINE",
"169 322 LINE"
);
}
);
};
layerId = UUID0;
name = Regular;
paths = (
{
closed = 1;
nodes = (
"531 612 LINE",
"531 696 LINE",
"125 696 LINE",
"125 0 LINE",
"213 0 LINE",
"213 612 LINE"
);
},
{
closed = 1;
nodes = (
"465 300 LINE",
"465 380 LINE",
"169 380 LINE",
"169 300 LINE"
);
}
);
width = 600;
},
{
anchors = (
{
name = bottom;
position = "{300, 0}";
},
{
name = top;
position = "{300, 696}";
}
);
layerId = "CD42366C-28E1-4C24-AB95-7D2C522D2B07";
name = Bold;
paths = (
{
closed = 1;
nodes = (
"560 580 LINE",
"560 696 LINE",
"103 696 LINE",
"103 0 LINE",
"235 0 LINE",
"235 580 LINE"
);
},
{
closed = 1;
nodes = (
"494 285 LINE",
"494 395 LINE",
"169 395 LINE",
"169 285 LINE"
);
}
);
width = 600;
}
);
unicode = 0046;
},
{
color = 1;
glyphname = G;
lastChange = "2015-07-15 10:34:40 +0000";
layers = (
{
anchors = (
{
name = bottom;
position = "{390, 0}";
},
{
name = top;
position = "{428, 696}";
}
);
background = {
paths = (
{
closed = 1;
nodes = (
"101 134 OFFCURVE",
"215 -12 OFFCURVE",
"420 -12 CURVE SMOOTH",
"522 -12 OFFCURVE",
"575 13 OFFCURVE",
"665 90 CURVE",
"665 367 LINE",
"430 367 LINE",
"430 290 LINE",
"577 290 LINE",
"577 130.536 LINE",
"540.28 90.84 OFFCURVE",
"488.446 68 OFFCURVE",
"420 68 CURVE SMOOTH",
"266 68 OFFCURVE",
"196 183 OFFCURVE",
"196 348 CURVE SMOOTH",
"196 513 OFFCURVE",
"266 628 OFFCURVE",
"420 628 CURVE SMOOTH",
"494 628 OFFCURVE",
"549 601 OFFCURVE",
"586 555 CURVE",
"590 555 LINE",
"648 618 LINE",
"594 675 OFFCURVE",
"517 708 OFFCURVE",
"420 708 CURVE SMOOTH",
"215 708 OFFCURVE",
"101 562 OFFCURVE",
"101 348 CURVE SMOOTH"
);
}
);
};
layerId = UUID0;
name = Regular;
paths = (
{
closed = 1;
nodes = (
"101 134 OFFCURVE",
"213 -12 OFFCURVE",
"422 -12 CURVE SMOOTH",
"523 -12 OFFCURVE",
"592 22 OFFCURVE",
"665 70 CURVE",
"665 342 LINE",
"430 342 LINE",
"430 265 LINE",
"577 265 LINE",
"577 116 LINE",
"540 87 OFFCURVE",
"487 68 OFFCURVE",
"423 68 CURVE SMOOTH",
"265 68 OFFCURVE",
"196 183 OFFCURVE",
"196 347 CURVE SMOOTH",
"196 513 OFFCURVE",
"266 628 OFFCURVE",
"428 628 CURVE SMOOTH",
"509 628 OFFCURVE",
"582 599 OFFCURVE",
"633 555 CURVE",
"637 555 LINE",
"638 654 LINE",
"586 686 OFFCURVE",
"514 708 OFFCURVE",
"431 708 CURVE SMOOTH",
"216 708 OFFCURVE",
"101 562 OFFCURVE",
"101 347 CURVE SMOOTH"
);
}
);
width = 780;
},
{
anchors = (
{
name = bottom;
position = "{390, 0}";
},
{
name = top;
position = "{390, 696}";
}
);
background = {
paths = (
{
closed = 1;
nodes = (
"518 -12 OFFCURVE",
"610 46 OFFCURVE",
"675 157 CURVE",
"675 255 LINE",
"660 255 LINE",
"590 159 OFFCURVE",
"505 104 OFFCURVE",
"417 104 CURVE SMOOTH",
"296 104 OFFCURVE",
"218 203 OFFCURVE",
"218 351 CURVE SMOOTH",
"218 501 OFFCURVE",
"299 592 OFFCURVE",
"440 592 CURVE SMOOTH",
"514 592 OFFCURVE",
"604 567 OFFCURVE",
"669 526 CURVE",
"673 526 LINE",
"673 647 LINE",
"614 683 OFFCURVE",
"526 708 OFFCURVE",
"434 708 CURVE SMOOTH",
"217 708 OFFCURVE",
"79 571 OFFCURVE",
"79 348 CURVE SMOOTH",
"79 131 OFFCURVE",
"210 -12 OFFCURVE",
"401 -12 CURVE SMOOTH"
);
},
{
closed = 1;
nodes = (
"423 257 LINE",
"687 257 LINE",
"687 367 LINE",
"423 367 LINE"
);
},
{
closed = 1;
nodes = (
"599 0 LINE",
"687 0 LINE",
"687 309 LINE",
"555 309 LINE",
"555 116 LINE"
);
},
{
closed = 1;
nodes = (
"560 -12 OFFCURVE",
"625 4 OFFCURVE",
"677 34 CURVE",
"677 157 LINE",
"673 157 LINE",
"618 123 OFFCURVE",
"557 105 OFFCURVE",
"500 105 CURVE SMOOTH",
"354 105 OFFCURVE",
"261 190 OFFCURVE",
"261 348 CURVE SMOOTH",
"261 507 OFFCURVE",
"356 592 OFFCURVE",
"506 592 CURVE SMOOTH",
"557 592 OFFCURVE",
"620 578 OFFCURVE",
"673 548 CURVE",
"677 548 LINE",
"677 670 LINE",
"625 696 OFFCURVE",
"557 708 OFFCURVE",
"495 708 CURVE SMOOTH",
"258 708 OFFCURVE",
"122 567 OFFCURVE",
"122 348 CURVE SMOOTH",
"122 129 OFFCURVE",
"256 -12 OFFCURVE",
"489 -12 CURVE SMOOTH"
);
}
);
};
layerId = "CD42366C-28E1-4C24-AB95-7D2C522D2B07";
name = Bold;
paths = (
{
closed = 1;
nodes = (
"79 129 OFFCURVE",
"202 -12 OFFCURVE",
"426 -12 CURVE SMOOTH",
"510 -12 OFFCURVE",
"578 8 OFFCURVE",
"687 75 CURVE",
"687 360 LINE",
"423 360 LINE",
"423 250 LINE",
"555 250 LINE",
"555 145 LINE",
"523 118 OFFCURVE",
"473 110 OFFCURVE",
"430 110 CURVE SMOOTH",
"292 110 OFFCURVE",
"218 191 OFFCURVE",
"218 347 CURVE SMOOTH",
"218 513 OFFCURVE",
"301 586 OFFCURVE",
"445 586 CURVE SMOOTH",
"531 586 OFFCURVE",
"602 560 OFFCURVE",
"642 536 CURVE",
"646 536 LINE",
"646 659 LINE",
"593 684 OFFCURVE",
"528 708 OFFCURVE",
"435 708 CURVE SMOOTH",
"212 708 OFFCURVE",
"79 568 OFFCURVE",
"79 345 CURVE SMOOTH"
);
}
);
width = 780;
}
);
unicode = 0047;
},
{
color = 1;
glyphname = H;
lastChange = "2015-07-18 21:07:03 +0000";
layers = (
{
anchors = (
{
name = bottom;
position = "{400, 0}";
},
{
name = center;
position = "{400, 538}";
},
{
name = top;
position = "{400, 696}";
},
{
name = topleft;
position = "{20, 696}";
}
);
layerId = UUID0;
name = Regular;
paths = (
{
closed = 1;
nodes = (
"125 0 LINE",
"213 0 LINE",
"213 696 LINE",
"125 696 LINE"
);
},
{
closed = 1;
nodes = (
"587 0 LINE",
"675 0 LINE",
"675 696 LINE",
"587 696 LINE"
);
},
{
closed = 1;
nodes = (
"631 322 LINE",
"631 404 LINE",
"169 404 LINE",
"169 322 LINE"
);
}
);
width = 800;
},
{
anchors = (
{
name = bottom;
position = "{400, 0}";
},
{
name = center;
position = "{400, 538}";
},
{
name = top;
position = "{400, 696}";
},
{
name = topleft;
position = "{20, 696}";
}
);
layerId = "CD42366C-28E1-4C24-AB95-7D2C522D2B07";
name = Bold;
paths = (
{
closed = 1;
nodes = (
"103 0 LINE",
"235 0 LINE",
"235 696 LINE",
"103 696 LINE"
);
},
{
closed = 1;
nodes = (
"565 0 LINE",
"697 0 LINE",
"697 696 LINE",
"565 696 LINE"
);
},
{
closed = 1;
nodes = (
"631 306 LINE",
"631 423 LINE",
"169 423 LINE",
"169 306 LINE"
);
}
);
width = 800;
}
);
unicode = 0048;
},
{
color = 1;
glyphname = I;
lastChange = "2015-07-15 10:34:40 +0000";
layers = (
{
anchors = (
{
name = bottom;
position = "{160, 0}";
},
{
name = ogonek;
position = "{204, 0}";
},
{
name = top;
position = "{160, 696}";
},
{
name = topleft;
position = "{20, 696}";
}
);
layerId = UUID0;
name = Regular;
paths = (
{
closed = 1;
nodes = (
"204 0 LINE",
"204 696 LINE",
"116 696 LINE",
"116 0 LINE"
);
}
);
width = 320;
},
{
anchors = (
{
name = bottom;
position = "{160, 0}";
},
{
name = ogonek;
position = "{226, 0}";
},
{
name = top;
position = "{160, 696}";
},
{
name = topleft;
position = "{20, 696}";
}
);
layerId = "CD42366C-28E1-4C24-AB95-7D2C522D2B07";
name = Bold;
paths = (
{
closed = 1;
nodes = (
"226 0 LINE",
"226 696 LINE",
"94 696 LINE",
"94 0 LINE"
);
}
);
width = 320;
}
);
unicode = 0049;
},
{
color = 1;
glyphname = J;
lastChange = "2015-07-15 08:19:32 +0000";
layers = (
{
anchors = (
{
name = bottom;
position = "{220, 0}";
},
{
name = top;
position = "{220, 696}";
}
);
background = {
paths = (
{
closed = 1;
nodes = (
"232 696 LINE",
"232 247 LINE SMOOTH",
"232 143 OFFCURVE",
"188 71 OFFCURVE",
"91 71 CURVE",
"91 -12 LINE",
"241 -12 OFFCURVE",
"320 89 OFFCURVE",
"320 244 CURVE SMOOTH",
"320 696 LINE"
);
}
);
};
guideLines = (
{
angle = 90;
position = "{220, 370}";
}
);
layerId = UUID0;
name = Regular;
paths = (
{
closed = 1;
nodes = (
"280 -12 OFFCURVE",
"326 64 OFFCURVE",
"326 224 CURVE SMOOTH",
"326 696 LINE",
"238 696 LINE",
"238 237 LINE SMOOTH",
"238 121 OFFCURVE",
"222 69 OFFCURVE",
"154 69 CURVE SMOOTH",
"126 69 OFFCURVE",
"88 78 OFFCURVE",
"47 109 CURVE",
"47 21 LINE",
"80 -1 OFFCURVE",
"116 -12 OFFCURVE",
"161 -12 CURVE SMOOTH"
);
}
);
width = 440;
},
{
anchors = (
{
name = bottom;
position = "{220, 0}";
},
{
name = top;
position = "{220, 696}";
}
);
layerId = "CD42366C-28E1-4C24-AB95-7D2C522D2B07";
name = Bold;
paths = (
{
closed = 1;
nodes = (
"274 -12 OFFCURVE",
"348 45 OFFCURVE",
"348 214 CURVE SMOOTH",
"348 696 LINE",
"216 696 LINE",
"216 251 LINE SMOOTH",
"216 154 OFFCURVE",
"219 107 OFFCURVE",
"148 107 CURVE SMOOTH",
"112 107 OFFCURVE",
"74 119 OFFCURVE",
"37 143 CURVE",
"37 25 LINE",
"79 -1 OFFCURVE",
"120 -12 OFFCURVE",
"167 -12 CURVE SMOOTH"
);
}
);
width = 440;
}
);
unicode = 004A;
},
{
color = 1;
glyphname = K;
lastChange = "2015-07-16 06:11:37 +0000";
layers = (
{
anchors = (
{
name = bottom;
position = "{350, 0}";
},
{
name = top;
position = "{350, 696}";
}
);
background = {
paths = (
{
closed = 1;
nodes = (
"125 0 LINE",
"213 0 LINE",
"213 696 LINE",
"125 696 LINE"
);
},
{
closed = 1;
nodes = (
"587 0 LINE",
"675 0 LINE",
"675 696 LINE",
"587 696 LINE"
);
},
{
closed = 1;
nodes = (
"631 322 LINE",
"631 406 LINE",
"169 406 LINE",
"169 322 LINE"
);
}
);
};
layerId = UUID0;
name = Regular;
paths = (
{
closed = 1;
nodes = (
"213 0 LINE",
"213 696 LINE",
"125 696 LINE",
"125 0 LINE"
);
},
{
closed = 1;
nodes = (
"196 184 LINE",
"635 696 LINE",
"527 696 LINE",
"181 295 LINE"
);
},
{
closed = 1;
nodes = (
"657 0 LINE",
"369 403 LINE",
"288 357 LINE",
"544 0 LINE"
);
}
);
width = 700;
},
{
anchors = (
{
name = bottom;
position = "{350, 0}";
},
{
name = top;
position = "{350, 696}";
}
);
layerId = "CD42366C-28E1-4C24-AB95-7D2C522D2B07";
name = Bold;
paths = (
{
closed = 1;
nodes = (
"235 0 LINE",
"235 696 LINE",
"103 696 LINE",
"103 0 LINE"
);
},
{
closed = 1;
nodes = (
"197 156 LINE",
"664 696 LINE",
"502 696 LINE",
"165 297 LINE"
);
},
{
closed = 1;
nodes = (
"680 0 LINE",
"391 407 LINE",
"260 360 LINE",
"517 0 LINE"
);
}
);
width = 700;
}
);
unicode = 004B;
},
{
color = 1;
glyphname = L;
lastChange = "2015-07-18 20:57:20 +0000";
layers = (
{
anchors = (
{
name = bottom;
position = "{290, 0}";
},
{
name = center;
position = "{169, 348}";
},
{
name = top;
position = "{170, 696}";
},
{
name = topright;
position = "{343, 522}";
}
);
background = {
paths = (
{
closed = 1;
nodes = (
"125 0 LINE",
"213 0 LINE",
"213 696 LINE",
"125 696 LINE"
);
},
{
closed = 1;
nodes = (
"587 0 LINE",
"675 0 LINE",
"675 696 LINE",
"587 696 LINE"
);
},
{
closed = 1;
nodes = (
"631 322 LINE",
"631 406 LINE",
"169 406 LINE",
"169 322 LINE"
);
}
);
};
layerId = UUID0;
name = Regular;
paths = (
{
closed = 1;
nodes = (
"527 0 LINE",
"527 84 LINE",
"213 84 LINE",
"213 696 LINE",
"125 696 LINE",
"125 0 LINE"
);
}
);
width = 580;
},
{
anchors = (
{
name = bottom;
position = "{290, 0}";
},
{
name = center;
position = "{290, 348}";
},
{
name = top;
position = "{290, 696}";
},
{
name = topright;
position = "{343, 522}";
}
);
layerId = "CD42366C-28E1-4C24-AB95-7D2C522D2B07";
name = Bold;
paths = (
{
closed = 1;
nodes = (
"528 0 LINE",
"528 116 LINE",
"235 116 LINE",
"235 696 LINE",
"103 696 LINE",
"103 0 LINE"
);
}
);
width = 580;
}
);
unicode = 004C;
},
{
color = 9;
glyphname = Lslash;
lastChange = "2015-07-18 21:10:01 +0000";
layers = (
{
anchors = (
{
name = _center;
position = "{169, 348}";
}
);
components = (
{
name = L;
}
);
layerId = UUID0;
name = Regular;
paths = (
{
closed = 1;
nodes = (
"52 157 LINE",
"286 425 LINE",
"286 539 LINE",
"52 271 LINE"
);
}
);
width = 580;
},
{
anchors = (
{
name = _center;
position = "{290, 348}";
}
);
components = (
{
name = L;
}
);
layerId = "CD42366C-28E1-4C24-AB95-7D2C522D2B07";
name = Bold;
paths = (
{
closed = 1;
nodes = (
"113 87 LINE",
"610 609 LINE",
"467 609 LINE",
"-30 87 LINE"
);
}
);
width = 580;
}
);
unicode = 0141;
},
{
color = 1;
glyphname = M;
lastChange = "2015-07-15 08:19:32 +0000";
layers = (
{
anchors = (
{
name = bottom;
position = "{490, 0}";
},
{
name = top;
position = "{490, 696}";
}
);
background = {
paths = (
{
closed = 1;
nodes = (
"434 0 LINE",
"530 0 LINE",
"269 696 LINE",
"173 696 LINE"
);
},
{
closed = 1;
nodes = (
"459 0 LINE",
"550 0 LINE",
"805 696 LINE",
"714 696 LINE"
);
},
{
closed = 1;
nodes = (
"125 0 LINE",
"213 0 LINE",
"213 696 LINE",
"125 696 LINE"
);
},
{
closed = 1;
nodes = (
"767 0 LINE",
"855 0 LINE",
"855 696 LINE",
"767 696 LINE"
);
}
);
};
layerId = UUID0;
name = Regular;
paths = (
{
closed = 1;
nodes = (
"444 0 LINE",
"540 0 LINE",
"279 696 LINE",
"183 696 LINE"
);
},
{
closed = 1;
nodes = (
"449 0 LINE",
"540 0 LINE",
"795 696 LINE",
"704 696 LINE"
);
},
{
closed = 1;
nodes = (
"125 0 LINE",
"213 0 LINE",
"213 696 LINE",
"125 696 LINE"
);
},
{
closed = 1;
nodes = (
"767 0 LINE",
"855 0 LINE",
"855 696 LINE",
"767 696 LINE"
);
}
);
width = 980;
},
{
anchors = (
{
name = bottom;
position = "{490, 0}";
},
{
name = top;
position = "{490, 696}";
}
);
background = {
paths = (
{
closed = 1;
nodes = (
"409 0 LINE",
"544 0 LINE",
"296 696 LINE",
"161 696 LINE"
);
},
{
closed = 1;
nodes = (
"445 0 LINE",
"575 0 LINE",
"817 696 LINE",
"687 696 LINE"
);
},
{
closed = 1;
nodes = (
"103 0 LINE",
"235 0 LINE",
"235 696 LINE",
"103 696 LINE"
);
},
{
closed = 1;
nodes = (
"745 0 LINE",
"877 0 LINE",
"877 696 LINE",
"745 696 LINE"
);
}
);
};
layerId = "CD42366C-28E1-4C24-AB95-7D2C522D2B07";
name = Bold;
paths = (
{
closed = 1;
nodes = (
"423 0 LINE",
"558 0 LINE",
"310 696 LINE",
"175 696 LINE"
);
},
{
closed = 1;
nodes = (
"431 0 LINE",
"561 0 LINE",
"803 696 LINE",
"673 696 LINE"
);
},
{
closed = 1;
nodes = (
"103 0 LINE",
"235 0 LINE",
"235 696 LINE",
"103 696 LINE"
);
},
{
closed = 1;
nodes = (
"745 0 LINE",
"877 0 LINE",
"877 696 LINE",
"745 696 LINE"
);
}
);
width = 980;
}
);
unicode = 004D;
},
{
color = 1;
glyphname = N;
lastChange = "2015-07-17 06:12:19 +0000";
layers = (
{
anchors = (
{
name = bottom;
position = "{400, 0}";
},
{
name = top;
position = "{400, 696}";
}
);
background = {
paths = (
{
closed = 1;
nodes = (
"125 0 LINE",
"213 0 LINE",
"213 696 LINE",
"125 696 LINE"
);
},
{
closed = 1;
nodes = (
"587 0 LINE",
"675 0 LINE",
"675 696 LINE",
"587 696 LINE"
);
},
{
closed = 1;
nodes = (
"631 322 LINE",
"631 406 LINE",
"169 406 LINE",
"169 322 LINE"
);
}
);
};
layerId = UUID0;
name = Regular;
paths = (
{
closed = 1;
nodes = (
"213 0 LINE",
"213 696 LINE",
"125 696 LINE",
"125 0 LINE"
);
},
{
closed = 1;
nodes = (
"675 0 LINE",
"675 696 LINE",
"587 696 LINE",
"587 0 LINE"
);
},
{
closed = 1;
nodes = (
"587 0 LINE",
"669 41 LINE",
"213 696 LINE",
"131 655 LINE"
);
}
);
width = 800;
},
{
anchors = (
{
name = bottom;
position = "{400, 0}";
},
{
name = top;
position = "{400, 696}";
}
);
layerId = "CD42366C-28E1-4C24-AB95-7D2C522D2B07";
name = Bold;
paths = (
{
closed = 1;
nodes = (
"235 0 LINE",
"235 696 LINE",
"103 696 LINE",
"103 0 LINE"
);
},
{
closed = 1;
nodes = (
"697 0 LINE",
"697 696 LINE",
"565 696 LINE",
"565 0 LINE"
);
},
{
closed = 1;
nodes = (
"565 0 LINE",
"684 71 LINE",
"235 696 LINE",
"116 626 LINE"
);
}
);
width = 800;
}
);
unicode = 004E;
},
{
color = 1;
glyphname = Eng;
lastChange = "2015-07-17 06:12:52 +0000";
layers = (
{
components = (
{
name = N;
}
);
layerId = UUID0;
name = Regular;
paths = (
{
closed = 1;
nodes = (
"624 -244 OFFCURVE",
"675 -173 OFFCURVE",
"675 -60 CURVE SMOOTH",
"675 122 LINE",
"587 82 LINE",
"587 -60 LINE SMOOTH",
"587 -124 OFFCURVE",
"563 -167 OFFCURVE",
"504 -167 CURVE SMOOTH",
"475 -167 OFFCURVE",
"459 -164 OFFCURVE",
"433 -151 CURVE",
"433 -227 LINE",
"462 -243 OFFCURVE",
"483 -244 OFFCURVE",
"516 -244 CURVE SMOOTH"
);
}
);
width = 800;
},
{
components = (
{
name = N;
}
);
layerId = "CD42366C-28E1-4C24-AB95-7D2C522D2B07";
name = Bold;
paths = (
{
closed = 1;
nodes = (
"644 -244 OFFCURVE",
"697 -169 OFFCURVE",
"697 -49 CURVE SMOOTH",
"697 192 LINE",
"565 116 LINE",
"565 -49 LINE SMOOTH",
"565 -105 OFFCURVE",
"547 -134 OFFCURVE",
"494 -134 CURVE SMOOTH",
"468 -134 OFFCURVE",
"441 -127 OFFCURVE",
"411 -107 CURVE",
"411 -216 LINE",
"446 -241 OFFCURVE",
"476 -244 OFFCURVE",
"504 -244 CURVE SMOOTH"
);
}
);
width = 800;
}
);
unicode = 014A;
},
{
color = 1;
glyphname = O;
lastChange = "2015-07-18 21:27:37 +0000";
layers = (
{
anchors = (
{
name = bottom;
position = "{420, 0}";
},
{
name = ogonek;
position = "{506, 0}";
},
{
name = top;
position = "{420, 696}";
}
);
background = {
paths = (
{
closed = 1;
nodes = (
"145 0 LINE",
"233 0 LINE",
"233 696 LINE",
"145 696 LINE"
);
},
{
closed = 1;
nodes = (
"607 0 LINE",
"695 0 LINE",
"695 696 LINE",
"607 696 LINE"
);
},
{
closed = 1;
nodes = (
"651 322 LINE",
"651 406 LINE",
"189 406 LINE",
"189 322 LINE"
);
}
);
};
layerId = UUID0;
name = Regular;
paths = (
{
closed = 1;
nodes = (
"625 -12 OFFCURVE",
"739 134 OFFCURVE",
"739 348 CURVE SMOOTH",
"739 562 OFFCURVE",
"625 708 OFFCURVE",
"420 708 CURVE SMOOTH",
"215 708 OFFCURVE",
"101 562 OFFCURVE",
"101 348 CURVE SMOOTH",
"101 134 OFFCURVE",
"215 -12 OFFCURVE",
"420 -12 CURVE SMOOTH"
);
},
{
closed = 1;
nodes = (
"266 68 OFFCURVE",
"196 183 OFFCURVE",
"196 348 CURVE SMOOTH",
"196 513 OFFCURVE",
"266 628 OFFCURVE",
"420 628 CURVE SMOOTH",
"574 628 OFFCURVE",
"644 513 OFFCURVE",
"644 348 CURVE SMOOTH",
"644 183 OFFCURVE",
"574 68 OFFCURVE",
"420 68 CURVE SMOOTH"
);
}
);
width = 840;
},
{
anchors = (
{
name = bottom;
position = "{420, 0}";
},
{
name = ogonek;
position = "{502, 0}";
},
{
name = top;
position = "{420, 696}";
}
);
layerId = "CD42366C-28E1-4C24-AB95-7D2C522D2B07";
name = Bold;
paths = (
{
closed = 1;
nodes = (
"637 -12 OFFCURVE",
"761 129 OFFCURVE",
"761 348 CURVE SMOOTH",
"761 567 OFFCURVE",
"637 708 OFFCURVE",
"420 708 CURVE SMOOTH",
"203 708 OFFCURVE",
"79 567 OFFCURVE",
"79 348 CURVE SMOOTH",
"79 129 OFFCURVE",
"203 -12 OFFCURVE",
"420 -12 CURVE SMOOTH"
);
},
{
closed = 1;
nodes = (
"296 110 OFFCURVE",
"218 193 OFFCURVE",
"218 348 CURVE SMOOTH",
"218 503 OFFCURVE",
"296 586 OFFCURVE",
"420 586 CURVE SMOOTH",
"544 586 OFFCURVE",
"622 503 OFFCURVE",
"622 348 CURVE SMOOTH",
"622 193 OFFCURVE",
"544 110 OFFCURVE",
"420 110 CURVE SMOOTH"
);
}
);
width = 840;
}
);
unicode = 004F;
},
{
color = 1;
glyphname = Oslash;
lastChange = "2015-07-18 21:32:22 +0000";
layers = (
{
anchors = (
{
name = top;
position = "{420, 696}";
}
);
components = (
{
name = O;
}
);
layerId = UUID0;
name = Regular;
paths = (
{
closed = 1;
nodes = (
"207 0 LINE",
"744 696 LINE",
"635 696 LINE",
"96 0 LINE"
);
}
);
width = 840;
},
{
anchors = (
{
name = top;
position = "{420, 696}";
}
);
components = (
{
name = O;
}
);
layerId = "CD42366C-28E1-4C24-AB95-7D2C522D2B07";
name = Bold;
paths = (
{
closed = 1;
nodes = (
"210 0 LINE",
"784 696 LINE",
"630 696 LINE",
"56 0 LINE"
);
}
);
width = 840;
}
);
unicode = 00D8;
},
{
color = 1;
glyphname = P;
lastChange = "2015-07-16 06:11:37 +0000";
layers = (
{
anchors = (
{
name = bottom;
position = "{330, 0}";
},
{
name = top;
position = "{330, 696}";
}
);
background = {
paths = (
{
closed = 1;
nodes = (
"535 -12 OFFCURVE",
"649 134 OFFCURVE",
"649 348 CURVE SMOOTH",
"649 562 OFFCURVE",
"535 708 OFFCURVE",
"330 708 CURVE SMOOTH",
"125 708 OFFCURVE",
"11 562 OFFCURVE",
"11 348 CURVE SMOOTH",
"11 132 OFFCURVE",
"125 -12 OFFCURVE",
"330 -12 CURVE SMOOTH"
);
},
{
closed = 1;
nodes = (
"178 68 OFFCURVE",
"106 183 OFFCURVE",
"106 348 CURVE SMOOTH",
"106 513 OFFCURVE",
"176 628 OFFCURVE",
"330 628 CURVE SMOOTH",
"484 628 OFFCURVE",
"554 513 OFFCURVE",
"554 348 CURVE SMOOTH",
"554 183 OFFCURVE",
"484 68 OFFCURVE",
"330 68 CURVE SMOOTH"
);
}
);
};
layerId = UUID0;
name = Regular;
paths = (
{
closed = 1;
nodes = (
"213 0 LINE",
"213 232 LINE",
"358 232 LINE SMOOTH",
"523 232 OFFCURVE",
"611 314 OFFCURVE",
"611 468 CURVE SMOOTH",
"611 620 OFFCURVE",
"525 696 OFFCURVE",
"351 696 CURVE SMOOTH",
"125 696 LINE",
"125 0 LINE"
);
},
{
closed = 1;
nodes = (
"213 612 LINE",
"351 612 LINE SMOOTH",
"471 612 OFFCURVE",
"516 571 OFFCURVE",
"516 464 CURVE SMOOTH",
"516 357 OFFCURVE",
"470 314 OFFCURVE",
"355 314 CURVE SMOOTH",
"213 314 LINE"
);
}
);
width = 660;
},
{
anchors = (
{
name = bottom;
position = "{330, 0}";
},
{
name = top;
position = "{330, 696}";
}
);
layerId = "CD42366C-28E1-4C24-AB95-7D2C522D2B07";
name = Bold;
paths = (
{
closed = 1;
nodes = (
"235 0 LINE",
"235 232 LINE",
"345 232 LINE SMOOTH",
"527 232 OFFCURVE",
"619 321 OFFCURVE",
"619 468 CURVE SMOOTH",
"619 613 OFFCURVE",
"529 696 OFFCURVE",
"333 696 CURVE SMOOTH",
"103 696 LINE",
"103 0 LINE"
);
},
{
closed = 1;
nodes = (
"235 579 LINE",
"333 579 LINE SMOOTH",
"433 579 OFFCURVE",
"480 550 OFFCURVE",
"480 465 CURVE SMOOTH",
"480 377 OFFCURVE",
"430 347 OFFCURVE",
"334 347 CURVE SMOOTH",
"235 347 LINE"
);
}
);
width = 660;
}
);
unicode = 0050;
},
{
color = 1;
glyphname = Thorn;
lastChange = "2015-07-17 06:09:58 +0000";
layers = (
{
background = {
paths = (
{
closed = 1;
nodes = (
"213 0 LINE",
"213 232 LINE",
"358 232 LINE SMOOTH",
"523 232 OFFCURVE",
"611 314 OFFCURVE",
"611 468 CURVE SMOOTH",
"611 620 OFFCURVE",
"525 696 OFFCURVE",
"351 696 CURVE SMOOTH",
"125 696 LINE",
"125 0 LINE"
);
},
{
closed = 1;
nodes = (
"213 612 LINE",
"351 612 LINE SMOOTH",
"471 612 OFFCURVE",
"516 571 OFFCURVE",
"516 464 CURVE SMOOTH",
"516 357 OFFCURVE",
"470 314 OFFCURVE",
"355 314 CURVE SMOOTH",
"213 314 LINE"
);
}
);
};
layerId = UUID0;
name = Regular;
paths = (
{
closed = 1;
nodes = (
"125 0 LINE",
"213 0 LINE",
"213 115 LINE",
"358 115 LINE SMOOTH",
"523 115 OFFCURVE",
"611 197 OFFCURVE",
"611 351 CURVE SMOOTH",
"611 503 OFFCURVE",
"525 579 OFFCURVE",
"351 579 CURVE SMOOTH",
"213 579 LINE",
"213 696 LINE",
"125 696 LINE"
);
},
{
closed = 1;
nodes = (
"213 197 LINE",
"213 495 LINE",
"351 495 LINE SMOOTH",
"471 495 OFFCURVE",
"516 454 OFFCURVE",
"516 347 CURVE SMOOTH",
"516 240 OFFCURVE",
"470 197 OFFCURVE",
"355 197 CURVE SMOOTH"
);
}
);
width = 660;
},
{
layerId = "CD42366C-28E1-4C24-AB95-7D2C522D2B07";
name = Bold;
paths = (
{
closed = 1;
nodes = (
"103 0 LINE",
"235 0 LINE",
"235 115 LINE",
"366 115 LINE SMOOTH",
"531 115 OFFCURVE",
"619 197 OFFCURVE",
"619 351 CURVE SMOOTH",
"619 503 OFFCURVE",
"533 579 OFFCURVE",
"359 579 CURVE SMOOTH",
"235 579 LINE",
"235 696 LINE",
"103 696 LINE"
);
},
{
closed = 1;
nodes = (
"235 230 LINE",
"235 462 LINE",
"337 462 LINE SMOOTH",
"441 462 OFFCURVE",
"480 430 OFFCURVE",
"480 347 CURVE SMOOTH",
"480 264 OFFCURVE",
"440 230 OFFCURVE",
"341 230 CURVE SMOOTH"
);
}
);
width = 660;
}
);
unicode = 00DE;
},
{
color = 1;
glyphname = Q;
lastChange = "2015-07-15 08:19:32 +0000";
layers = (
{
anchors = (
{
name = bottom;
position = "{420, 0}";
},
{
name = top;
position = "{420, 696}";
}
);
layerId = UUID0;
name = Regular;
paths = (
{
closed = 1;
nodes = (
"625 -12 OFFCURVE",
"739 134 OFFCURVE",
"739 348 CURVE SMOOTH",
"739 562 OFFCURVE",
"625 708 OFFCURVE",
"420 708 CURVE SMOOTH",
"215 708 OFFCURVE",
"101 562 OFFCURVE",
"101 348 CURVE SMOOTH",
"101 134 OFFCURVE",
"215 -12 OFFCURVE",
"420 -12 CURVE SMOOTH"
);
},
{
closed = 1;
nodes = (
"266 68 OFFCURVE",
"196 183 OFFCURVE",
"196 348 CURVE SMOOTH",
"196 513 OFFCURVE",
"266 628 OFFCURVE",
"420 628 CURVE SMOOTH",
"574 628 OFFCURVE",
"644 513 OFFCURVE",
"644 348 CURVE SMOOTH",
"644 183 OFFCURVE",
"574 68 OFFCURVE",
"420 68 CURVE SMOOTH"
);
},
{
closed = 1;
nodes = (
"666 -170 LINE",
"546 50 LINE",
"455 50 LINE",
"575 -170 LINE"
);
}
);
width = 840;
},
{
anchors = (
{
name = bottom;
position = "{420, 0}";
},
{
name = top;
position = "{420, 696}";
}
);
layerId = "CD42366C-28E1-4C24-AB95-7D2C522D2B07";
name = Bold;
paths = (
{
closed = 1;
nodes = (
"637 -12 OFFCURVE",
"761 129 OFFCURVE",
"761 348 CURVE SMOOTH",
"761 567 OFFCURVE",
"637 708 OFFCURVE",
"420 708 CURVE SMOOTH",
"203 708 OFFCURVE",
"79 567 OFFCURVE",
"79 348 CURVE SMOOTH",
"79 129 OFFCURVE",
"203 -12 OFFCURVE",
"420 -12 CURVE SMOOTH"
);
},
{
closed = 1;
nodes = (
"296 101 OFFCURVE",
"218 186 OFFCURVE",
"218 348 CURVE SMOOTH",
"218 510 OFFCURVE",
"296 595 OFFCURVE",
"420 595 CURVE SMOOTH",
"544 595 OFFCURVE",
"622 510 OFFCURVE",
"622 348 CURVE SMOOTH",
"622 186 OFFCURVE",
"544 101 OFFCURVE",
"420 101 CURVE SMOOTH"
);
},
{
closed = 1;
nodes = (
"688 -170 LINE",
"568 50 LINE",
"433 50 LINE",
"553 -170 LINE"
);
}
);
width = 840;
}
);
unicode = 0051;
},
{
color = 1;
glyphname = R;
lastChange = "2015-07-16 06:11:37 +0000";
layers = (
{
anchors = (
{
name = bottom;
position = "{350, 0}";
},
{
name = top;
position = "{350, 696}";
}
);
background = {
paths = (
{
closed = 1;
nodes = (
"213 0 LINE",
"213 232 LINE",
"358 232 LINE SMOOTH",
"523 232 OFFCURVE",
"611 314 OFFCURVE",
"611 468 CURVE SMOOTH",
"611 620 OFFCURVE",
"525 696 OFFCURVE",
"351 696 CURVE SMOOTH",
"125 696 LINE",
"125 0 LINE"
);
},
{
closed = 1;
nodes = (
"213 612 LINE",
"351 612 LINE SMOOTH",
"471 612 OFFCURVE",
"516 571 OFFCURVE",
"516 464 CURVE SMOOTH",
"516 357 OFFCURVE",
"470 314 OFFCURVE",
"355 314 CURVE SMOOTH",
"213 314 LINE"
);
}
);
};
layerId = UUID0;
name = Regular;
paths = (
{
closed = 1;
nodes = (
"125 696 LINE",
"125 0 LINE",
"213 0 LINE",
"213 273 LINE",
"373 273 LINE SMOOTH",
"528 273 OFFCURVE",
"608 356 OFFCURVE",
"608 490 CURVE SMOOTH",
"608 622 OFFCURVE",
"530 696 OFFCURVE",
"361 696 CURVE SMOOTH"
);
},
{
closed = 1;
nodes = (
"361 612 LINE SMOOTH",
"463 612 OFFCURVE",
"513 582 OFFCURVE",
"513 490 CURVE SMOOTH",
"513 389 OFFCURVE",
"462 356 OFFCURVE",
"362 356 CURVE SMOOTH",
"213 356 LINE",
"213 612 LINE"
);
},
{
closed = 1;
nodes = (
"630 0 LINE",
"459 326 LINE",
"378 282 LINE",
"524 0 LINE"
);
}
);
width = 700;
},
{
anchors = (
{
name = bottom;
position = "{350, 0}";
},
{
name = top;
position = "{350, 696}";
}
);
layerId = "CD42366C-28E1-4C24-AB95-7D2C522D2B07";
name = Bold;
paths = (
{
closed = 1;
nodes = (
"103 696 LINE",
"103 0 LINE",
"235 0 LINE",
"235 265 LINE",
"366 265 LINE SMOOTH",
"536 265 OFFCURVE",
"623 349 OFFCURVE",
"623 485 CURVE SMOOTH",
"623 620 OFFCURVE",
"537 696 OFFCURVE",
"354 696 CURVE SMOOTH"
);
},
{
closed = 1;
nodes = (
"354 579 LINE SMOOTH",
"442 579 OFFCURVE",
"484 555 OFFCURVE",
"484 482 CURVE SMOOTH",
"484 406 OFFCURVE",
"439 381 OFFCURVE",
"355 381 CURVE SMOOTH",
"235 381 LINE",
"235 579 LINE"
);
},
{
closed = 1;
nodes = (
"646 0 LINE",
"474 318 LINE",
"354 274 LINE",
"501 0 LINE"
);
}
);
width = 700;
}
);
unicode = 0052;
},
{
color = 1;
glyphname = S;
lastChange = "2015-07-16 06:11:37 +0000";
layers = (
{
anchors = (
{
name = bottom;
position = "{350, 0}";
},
{
name = top;
position = "{320, 696}";
}
);
background = {
paths = (
{
closed = 1;
nodes = (
"532 -12 OFFCURVE",
"646 134 OFFCURVE",
"646 348 CURVE SMOOTH",
"646 562 OFFCURVE",
"532 708 OFFCURVE",
"327 708 CURVE SMOOTH",
"122 708 OFFCURVE",
"8 562 OFFCURVE",
"8 348 CURVE SMOOTH",
"8 134 OFFCURVE",
"122 -12 OFFCURVE",
"327 -12 CURVE SMOOTH"
);
},
{
closed = 1;
nodes = (
"173 68 OFFCURVE",
"103 183 OFFCURVE",
"103 348 CURVE SMOOTH",
"103 513 OFFCURVE",
"173 628 OFFCURVE",
"327 628 CURVE SMOOTH",
"481 628 OFFCURVE",
"551 513 OFFCURVE",
"551 348 CURVE SMOOTH",
"551 183 OFFCURVE",
"481 68 OFFCURVE",
"327 68 CURVE SMOOTH"
);
}
);
};
layerId = UUID0;
name = Regular;
paths = (
{
closed = 1;
nodes = (
"464 -12 OFFCURVE",
"554 69 OFFCURVE",
"554 194 CURVE SMOOTH",
"554 439 OFFCURVE",
"194 365 OFFCURVE",
"194 524 CURVE SMOOTH",
"194 588 OFFCURVE",
"248 627 OFFCURVE",
"341 627 CURVE SMOOTH",
"404 627 OFFCURVE",
"467 609 OFFCURVE",
"534 571 CURVE",
"534 663 LINE",
"477 692 OFFCURVE",
"409 708 OFFCURVE",
"341 708 CURVE SMOOTH",
"197 708 OFFCURVE",
"105 633 OFFCURVE",
"105 515 CURVE SMOOTH",
"105 280 OFFCURVE",
"465 359 OFFCURVE",
"465 185 CURVE SMOOTH",
"465 113 OFFCURVE",
"412 69 OFFCURVE",
"320 69 CURVE SMOOTH",
"247 69 OFFCURVE",
"174 91 OFFCURVE",
"86 139 CURVE",
"86 44 LINE",
"160 9 OFFCURVE",
"249 -12 OFFCURVE",
"326 -12 CURVE SMOOTH"
);
}
);
width = 640;
},
{
anchors = (
{
name = bottom;
position = "{340, 0}";
},
{
name = top;
position = "{320, 696}";
}
);
background = {
anchors = (
{
name = bottom;
position = "{320, 0}";
},
{
name = top;
position = "{320, 696}";
}
);
paths = (
{
closed = 1;
nodes = (
"464 -12 OFFCURVE",
"563 66 OFFCURVE",
"563 200 CURVE SMOOTH",
"560 452 OFFCURVE",
"225 400 OFFCURVE",
"225 523 CURVE SMOOTH",
"225 568 OFFCURVE",
"267 594 OFFCURVE",
"336 594 CURVE SMOOTH",
"396 594 OFFCURVE",
"462 577 OFFCURVE",
"532 538 CURVE",
"532 663 LINE",
"475 692 OFFCURVE",
"403 708 OFFCURVE",
"333 708 CURVE SMOOTH",
"184 708 OFFCURVE",
"90 636 OFFCURVE",
"90 509 CURVE SMOOTH",
"90 267 OFFCURVE",
"425 325 OFFCURVE",
"425 186 CURVE SMOOTH",
"425 132 OFFCURVE",
"378 102 OFFCURVE",
"311 102 CURVE SMOOTH",
"240 102 OFFCURVE",
"166 125 OFFCURVE",
"79 172 CURVE",
"79 44 LINE",
"153 9 OFFCURVE",
"242 -12 OFFCURVE",
"317 -12 CURVE SMOOTH"
);
}
);
};
layerId = "CD42366C-28E1-4C24-AB95-7D2C522D2B07";
name = Bold;
paths = (
{
closed = 1;
nodes = (
"466 -12 OFFCURVE",
"565 66 OFFCURVE",
"565 200 CURVE SMOOTH",
"559 452 OFFCURVE",
"222 400 OFFCURVE",
"222 523 CURVE SMOOTH",
"222 568 OFFCURVE",
"264 594 OFFCURVE",
"333 594 CURVE SMOOTH",
"393 594 OFFCURVE",
"458 577 OFFCURVE",
"528 538 CURVE",
"528 663 LINE",
"471 692 OFFCURVE",
"400 708 OFFCURVE",
"330 708 CURVE SMOOTH",
"181 708 OFFCURVE",
"87 636 OFFCURVE",
"87 509 CURVE SMOOTH",
"87 267 OFFCURVE",
"427 325 OFFCURVE",
"427 186 CURVE SMOOTH",
"427 132 OFFCURVE",
"380 102 OFFCURVE",
"313 102 CURVE SMOOTH",
"242 102 OFFCURVE",
"168 125 OFFCURVE",
"81 172 CURVE",
"81 44 LINE",
"155 9 OFFCURVE",
"244 -12 OFFCURVE",
"319 -12 CURVE SMOOTH"
);
}
);
width = 640;
}
);
unicode = 0053;
},
{
color = 1;
glyphname = Schwa;
lastChange = "2015-07-15 06:45:35 +0000";
layers = (
{
layerId = UUID0;
name = Regular;
paths = (
{
closed = 1;
nodes = (
"267 708 OFFCURVE",
"184 687 OFFCURVE",
"107 642 CURVE",
"107 555 LINE",
"111 555 LINE",
"185 600 OFFCURVE",
"265 628 OFFCURVE",
"346 628 CURVE SMOOTH",
"502 628 OFFCURVE",
"584 524 OFFCURVE",
"584 348 CURVE",
"85 348 LINE",
"85 319 LINE SMOOTH",
"85 137 OFFCURVE",
"191 -12 OFFCURVE",
"377 -12 CURVE SMOOTH",
"568 -12 OFFCURVE",
"679 144 OFFCURVE",
"679 347 CURVE SMOOTH",
"679 558 OFFCURVE",
"560 708 OFFCURVE",
"344 708 CURVE SMOOTH"
);
},
{
closed = 1;
nodes = (
"255 69 OFFCURVE",
"193 165 OFFCURVE",
"182 269 CURVE",
"583 269 LINE",
"583 166 OFFCURVE",
"500 69 OFFCURVE",
"377 69 CURVE SMOOTH"
);
}
);
width = 780;
},
{
layerId = "CD42366C-28E1-4C24-AB95-7D2C522D2B07";
name = Bold;
paths = (
{
closed = 1;
nodes = (
"258 708 OFFCURVE",
"169 683 OFFCURVE",
"85 631 CURVE",
"85 511 LINE",
"89 511 LINE",
"170 563 OFFCURVE",
"258 595 OFFCURVE",
"343 595 CURVE SMOOTH",
"489 595 OFFCURVE",
"562 502 OFFCURVE",
"562 371 CURVE",
"63 371 LINE",
"63 319 LINE SMOOTH",
"63 137 OFFCURVE",
"177 -12 OFFCURVE",
"377 -12 CURVE SMOOTH",
"582 -12 OFFCURVE",
"701 144 OFFCURVE",
"701 347 CURVE SMOOTH",
"701 558 OFFCURVE",
"572 708 OFFCURVE",
"349 708 CURVE SMOOTH"
);
},
{
closed = 1;
nodes = (
"269 102 OFFCURVE",
"214 177 OFFCURVE",
"204 259 CURVE",
"561 259 LINE",
"561 178 OFFCURVE",
"487 102 OFFCURVE",
"377 102 CURVE SMOOTH"
);
}
);
width = 780;
}
);
unicode = 018F;
},
{
color = 1;
glyphname = T;
lastChange = "2015-07-18 21:05:44 +0000";
layers = (
{
anchors = (
{
name = bottom;
position = "{320, 0}";
},
{
name = center;
position = "{320, 348}";
},
{
name = top;
position = "{320, 696}";
}
);
layerId = UUID0;
name = Regular;
paths = (
{
closed = 1;
nodes = (
"364 0 LINE",
"364 608 LINE",
"574 608 LINE",
"574 696 LINE",
"66 696 LINE",
"66 608 LINE",
"276 608 LINE",
"276 0 LINE"
);
}
);
width = 640;
},
{
anchors = (
{
name = bottom;
position = "{320, 0}";
},
{
name = center;
position = "{320, 348}";
},
{
name = top;
position = "{320, 696}";
}
);
layerId = "CD42366C-28E1-4C24-AB95-7D2C522D2B07";
name = Bold;
paths = (
{
closed = 1;
nodes = (
"386 0 LINE",
"386 575 LINE",
"584 575 LINE",
"584 696 LINE",
"56 696 LINE",
"56 575 LINE",
"254 575 LINE",
"254 0 LINE"
);
}
);
width = 640;
}
);
unicode = 0054;
},
{
color = 1;
glyphname = U;
lastChange = "2015-07-15 10:34:40 +0000";
layers = (
{
anchors = (
{
name = bottom;
position = "{390, 0}";
},
{
name = ogonek;
position = "{471, 0}";
},
{
name = top;
position = "{390, 696}";
},
{
name = topright;
position = "{760, 696}";
}
);
background = {
paths = (
{
closed = 1;
nodes = (
"125 0 LINE",
"213 0 LINE",
"213 696 LINE",
"125 696 LINE"
);
},
{
closed = 1;
nodes = (
"587 0 LINE",
"675 0 LINE",
"675 696 LINE",
"587 696 LINE"
);
},
{
closed = 1;
nodes = (
"631 322 LINE",
"631 406 LINE",
"169 406 LINE",
"169 322 LINE"
);
}
);
};
layerId = UUID0;
name = Regular;
paths = (
{
closed = 1;
nodes = (
"561 -12 OFFCURVE",
"655 106 OFFCURVE",
"655 288 CURVE SMOOTH",
"655 696 LINE",
"567 696 LINE",
"567 291 LINE SMOOTH",
"567 159 OFFCURVE",
"507 70 OFFCURVE",
"390 70 CURVE SMOOTH",
"273 70 OFFCURVE",
"213 159 OFFCURVE",
"213 291 CURVE SMOOTH",
"213 696 LINE",
"125 696 LINE",
"125 288 LINE SMOOTH",
"125 106 OFFCURVE",
"219 -12 OFFCURVE",
"390 -12 CURVE SMOOTH"
);
}
);
width = 780;
},
{
anchors = (
{
name = bottom;
position = "{390, 0}";
},
{
name = ogonek;
position = "{478, 0}";
},
{
name = top;
position = "{390, 696}";
},
{
name = topright;
position = "{760, 696}";
}
);
layerId = "CD42366C-28E1-4C24-AB95-7D2C522D2B07";
name = Bold;
paths = (
{
closed = 1;
nodes = (
"576 -12 OFFCURVE",
"687 101 OFFCURVE",
"687 288 CURVE SMOOTH",
"687 696 LINE",
"555 696 LINE",
"555 291 LINE SMOOTH",
"555 164 OFFCURVE",
"494 104 OFFCURVE",
"390 104 CURVE SMOOTH",
"289 104 OFFCURVE",
"225 159 OFFCURVE",
"225 291 CURVE SMOOTH",
"225 696 LINE",
"93 696 LINE",
"93 288 LINE SMOOTH",
"93 101 OFFCURVE",
"204 -12 OFFCURVE",
"390 -12 CURVE SMOOTH"
);
}
);
width = 780;
}
);
unicode = 0055;
},
{
color = 1;
glyphname = V;
lastChange = "2015-07-16 06:11:37 +0000";
layers = (
{
anchors = (
{
name = bottom;
position = "{350, 0}";
},
{
name = top;
position = "{350, 696}";
}
);
background = {
paths = (
{
closed = 1;
nodes = (
"41 696 LINE",
"309 0 LINE",
"402 0 LINE",
"134 696 LINE"
);
},
{
closed = 1;
nodes = (
"611 696 LINE",
"343 0 LINE",
"431 0 LINE",
"699 696 LINE"
);
},
{
closed = 1;
nodes = (
"183 522 LINE",
"183 447 LINE",
"557 447 LINE",
"557 522 LINE"
);
}
);
};
layerId = UUID0;
name = Regular;
paths = (
{
closed = 1;
nodes = (
"295 0 LINE",
"388 0 LINE",
"133 696 LINE",
"40 696 LINE"
);
},
{
closed = 1;
nodes = (
"317 0 LINE",
"405 0 LINE",
"660 696 LINE",
"572 696 LINE"
);
}
);
width = 700;
},
{
anchors = (
{
name = bottom;
position = "{350, 0}";
},
{
name = top;
position = "{350, 696}";
}
);
layerId = "CD42366C-28E1-4C24-AB95-7D2C522D2B07";
name = Bold;
paths = (
{
closed = 1;
nodes = (
"273 0 LINE",
"401 0 LINE",
"162 696 LINE",
"19 696 LINE"
);
},
{
closed = 1;
nodes = (
"305 0 LINE",
"427 0 LINE",
"681 696 LINE",
"543 696 LINE"
);
}
);
width = 700;
}
);
unicode = 0056;
},
{
color = 1;
glyphname = W;
lastChange = "2015-07-16 06:11:37 +0000";
layers = (
{
anchors = (
{
name = bottom;
position = "{530, 0}";
},
{
name = top;
position = "{530, 696}";
}
);
background = {
paths = (
{
closed = 1;
nodes = (
"295 0 LINE",
"388 0 LINE",
"144 696 LINE",
"51 696 LINE"
);
},
{
closed = 1;
nodes = (
"317 0 LINE",
"405 0 LINE",
"649 696 LINE",
"561 696 LINE"
);
}
);
};
layerId = UUID0;
name = Regular;
paths = (
{
closed = 1;
nodes = (
"258 0 LINE",
"351 0 LINE",
"143 696 LINE",
"50 696 LINE"
);
},
{
closed = 1;
nodes = (
"280 0 LINE",
"368 0 LINE",
"574 696 LINE",
"486 696 LINE"
);
},
{
closed = 1;
nodes = (
"692 0 LINE",
"785 0 LINE",
"579 696 LINE",
"486 696 LINE"
);
},
{
closed = 1;
nodes = (
"714 0 LINE",
"802 0 LINE",
"1010 696 LINE",
"922 696 LINE"
);
}
);
width = 1060;
},
{
anchors = (
{
name = bottom;
position = "{530, 0}";
},
{
name = top;
position = "{530, 696}";
}
);
layerId = "CD42366C-28E1-4C24-AB95-7D2C522D2B07";
name = Bold;
paths = (
{
closed = 1;
nodes = (
"228 0 LINE",
"354 0 LINE",
"152 696 LINE",
"9 696 LINE"
);
},
{
closed = 1;
nodes = (
"261 0 LINE",
"382 0 LINE",
"588 696 LINE",
"460 696 LINE"
);
},
{
closed = 1;
nodes = (
"678 0 LINE",
"804 0 LINE",
"605 696 LINE",
"472 696 LINE"
);
},
{
closed = 1;
nodes = (
"711 0 LINE",
"832 0 LINE",
"1051 696 LINE",
"913 696 LINE"
);
}
);
width = 1060;
}
);
unicode = 0057;
},
{
color = 1;
glyphname = X;
lastChange = "2015-07-16 06:11:37 +0000";
layers = (
{
anchors = (
{
name = bottom;
position = "{350, 0}";
},
{
name = top;
position = "{350, 696}";
}
);
background = {
paths = (
{
closed = 1;
nodes = (
"125 0 LINE",
"213 0 LINE",
"213 696 LINE",
"125 696 LINE"
);
},
{
closed = 1;
nodes = (
"587 0 LINE",
"675 0 LINE",
"675 696 LINE",
"587 696 LINE"
);
},
{
closed = 1;
nodes = (
"631 322 LINE",
"631 406 LINE",
"169 406 LINE",
"169 322 LINE"
);
}
);
};
layerId = UUID0;
name = Regular;
paths = (
{
closed = 1;
nodes = (
"647 0 LINE",
"170 696 LINE",
"65 696 LINE",
"542 0 LINE"
);
},
{
closed = 1;
nodes = (
"635 696 LINE",
"535 696 LINE",
"331 394 LINE",
"383 324 LINE"
);
},
{
closed = 1;
nodes = (
"153 0 LINE",
"375 328 LINE",
"323 398 LINE",
"53 0 LINE"
);
}
);
width = 700;
},
{
anchors = (
{
name = bottom;
position = "{350, 0}";
},
{
name = top;
position = "{350, 696}";
}
);
layerId = "CD42366C-28E1-4C24-AB95-7D2C522D2B07";
name = Bold;
paths = (
{
closed = 1;
nodes = (
"669 0 LINE",
"188 696 LINE",
"43 696 LINE",
"524 0 LINE"
);
},
{
closed = 1;
nodes = (
"657 696 LINE",
"515 696 LINE",
"309 394 LINE",
"405 334 LINE"
);
},
{
closed = 1;
nodes = (
"173 0 LINE",
"397 328 LINE",
"301 388 LINE",
"31 0 LINE"
);
}
);
width = 700;
}
);
unicode = 0058;
},
{
color = 1;
glyphname = Y;
lastChange = "2015-07-16 06:11:37 +0000";
layers = (
{
anchors = (
{
name = bottom;
position = "{330, 0}";
},
{
name = top;
position = "{330, 696}";
},
{
name = topleft;
position = "{20, 696}";
}
);
background = {
paths = (
{
closed = 1;
nodes = (
"125 0 LINE",
"213 0 LINE",
"213 696 LINE",
"125 696 LINE"
);
},
{
closed = 1;
nodes = (
"587 0 LINE",
"675 0 LINE",
"675 696 LINE",
"587 696 LINE"
);
},
{
closed = 1;
nodes = (
"631 322 LINE",
"631 406 LINE",
"169 406 LINE",
"169 322 LINE"
);
}
);
};
layerId = UUID0;
name = Regular;
paths = (
{
closed = 1;
nodes = (
"286 254 LINE",
"374 267 LINE",
"143 696 LINE",
"40 696 LINE"
);
},
{
closed = 1;
nodes = (
"286 267 LINE",
"374 254 LINE",
"620 696 LINE",
"522 696 LINE"
);
},
{
closed = 1;
nodes = (
"374 0 LINE",
"374 294 LINE",
"286 294 LINE",
"286 0 LINE"
);
}
);
width = 660;
},
{
anchors = (
{
name = bottom;
position = "{330, 0}";
},
{
name = top;
position = "{330, 696}";
},
{
name = topleft;
position = "{20, 696}";
}
);
layerId = "CD42366C-28E1-4C24-AB95-7D2C522D2B07";
name = Bold;
paths = (
{
closed = 1;
nodes = (
"264 240 LINE",
"390 246 LINE",
"152 696 LINE",
"11 696 LINE"
);
},
{
closed = 1;
nodes = (
"270 246 LINE",
"396 240 LINE",
"649 696 LINE",
"513 696 LINE"
);
},
{
closed = 1;
nodes = (
"396 0 LINE",
"396 280 LINE",
"264 280 LINE",
"264 0 LINE"
);
}
);
width = 660;
}
);
unicode = 0059;
},
{
color = 1;
glyphname = Z;
lastChange = "2015-07-16 06:11:37 +0000";
layers = (
{
anchors = (
{
name = bottom;
position = "{330, 0}";
},
{
name = top;
position = "{330, 696}";
}
);
background = {
paths = (
{
closed = 1;
nodes = (
"125 0 LINE",
"213 0 LINE",
"213 696 LINE",
"125 696 LINE"
);
},
{
closed = 1;
nodes = (
"587 0 LINE",
"675 0 LINE",
"675 696 LINE",
"587 696 LINE"
);
},
{
closed = 1;
nodes = (
"631 322 LINE",
"631 406 LINE",
"169 406 LINE",
"169 322 LINE"
);
}
);
};
layerId = UUID0;
name = Regular;
paths = (
{
closed = 1;
nodes = (
"553 696 LINE",
"107 696 LINE",
"107 620 LINE",
"472 620 LINE",
"553 631 LINE"
);
},
{
closed = 1;
nodes = (
"574 76 LINE",
"114 76 LINE",
"86 65 LINE",
"86 0 LINE",
"574 0 LINE"
);
},
{
closed = 1;
nodes = (
"191 65 LINE",
"553 631 LINE",
"450 631 LINE",
"86 65 LINE"
);
}
);
width = 660;
},
{
anchors = (
{
name = bottom;
position = "{330, 0}";
},
{
name = top;
position = "{330, 696}";
}
);
layerId = "CD42366C-28E1-4C24-AB95-7D2C522D2B07";
name = Bold;
paths = (
{
closed = 1;
nodes = (
"585 696 LINE",
"75 696 LINE",
"75 587 LINE",
"477 587 LINE",
"585 598 LINE"
);
},
{
closed = 1;
nodes = (
"607 109 LINE",
"83 109 LINE",
"53 98 LINE",
"53 0 LINE",
"607 0 LINE"
);
},
{
closed = 1;
nodes = (
"213 98 LINE",
"585 598 LINE",
"427 598 LINE",
"53 98 LINE"
);
}
);
width = 660;
}
);
unicode = 005A;
},
{
color = 1;
glyphname = a;
lastChange = "2015-07-15 10:34:40 +0000";
layers = (
{
anchors = (
{
name = bottom;
position = "{290, 0}";
},
{
name = ogonek;
position = "{513, 0}";
},
{
name = top;
position = "{290, 522}";
}
);
layerId = UUID0;
name = Regular;
paths = (
{
closed = 1;
nodes = (
"317 -12 OFFCURVE",
"382 32 OFFCURVE",
"437 107 CURVE",
"437 178 LINE",
"381 113 OFFCURVE",
"328 62 OFFCURVE",
"242 62 CURVE SMOOTH",
"194 62 OFFCURVE",
"160 93 OFFCURVE",
"160 141 CURVE SMOOTH",
"160 217 OFFCURVE",
"231 238 OFFCURVE",
"311 238 CURVE SMOOTH",
"436 238 LINE",
"436 296 LINE",
"392 302 OFFCURVE",
"359 305 OFFCURVE",
"315 305 CURVE SMOOTH",
"181 305 OFFCURVE",
"65 260 OFFCURVE",
"65 136 CURVE SMOOTH",
"65 45 OFFCURVE",
"131 -12 OFFCURVE",
"224 -12 CURVE SMOOTH"
);
},
{
closed = 1;
nodes = (
"425 0 LINE",
"513 0 LINE",
"491 116 LINE",
"491 348 LINE SMOOTH",
"491 461 OFFCURVE",
"416 534 OFFCURVE",
"310 534 CURVE SMOOTH",
"231 534 OFFCURVE",
"168 522 OFFCURVE",
"102 478 CURVE",
"102 393 LINE",
"164 435 OFFCURVE",
"221 455 OFFCURVE",
"297 455 CURVE SMOOTH",
"360 455 OFFCURVE",
"403 408 OFFCURVE",
"403 336 CURVE SMOOTH",
"403 116 LINE"
);
}
);
width = 580;
},
{
anchors = (
{
name = bottom;
position = "{290, 0}";
},
{
name = ogonek;
position = "{540, 0}";
},
{
name = top;
position = "{290, 522}";
}
);
layerId = "CD42366C-28E1-4C24-AB95-7D2C522D2B07";
name = Bold;
paths = (
{
closed = 1;
nodes = (
"308 -12 OFFCURVE",
"374 26 OFFCURVE",
"431 107 CURVE",
"431 205 LINE",
"365 124 OFFCURVE",
"311 89 OFFCURVE",
"244 89 CURVE SMOOTH",
"200 89 OFFCURVE",
"178 108 OFFCURVE",
"178 147 CURVE SMOOTH",
"178 207 OFFCURVE",
"215 225 OFFCURVE",
"289 225 CURVE SMOOTH",
"430 225 LINE",
"430 312 LINE",
"377 318 OFFCURVE",
"335 321 OFFCURVE",
"297 321 CURVE SMOOTH",
"132 321 OFFCURVE",
"46 252 OFFCURVE",
"46 137 CURVE SMOOTH",
"46 47 OFFCURVE",
"120 -12 OFFCURVE",
"224 -12 CURVE SMOOTH"
);
},
{
closed = 1;
nodes = (
"408 0 LINE",
"540 0 LINE",
"518 116 LINE",
"518 348 LINE SMOOTH",
"518 470 OFFCURVE",
"438 534 OFFCURVE",
"290 534 CURVE SMOOTH",
"211 534 OFFCURVE",
"147 515 OFFCURVE",
"84 467 CURVE",
"84 349 LINE",
"152 399 OFFCURVE",
"208 423 OFFCURVE",
"281 423 CURVE SMOOTH",
"353 423 OFFCURVE",
"385 395 OFFCURVE",
"385 336 CURVE SMOOTH",
"385 116 LINE"
);
}
);
width = 580;
}
);
unicode = 0061;
},
{
color = 1;
glyphname = ae;
lastChange = "2015-07-17 00:09:09 +0000";
layers = (
{
anchors = (
{
name = bottom;
position = "{472, 0}";
},
{
name = top;
position = "{472, 522}";
}
);
layerId = UUID0;
name = Regular;
paths = (
{
closed = 1;
nodes = (
"742 -12 OFFCURVE",
"798 6 OFFCURVE",
"857 49 CURVE",
"857 137 LINE",
"853 137 LINE",
"796 90 OFFCURVE",
"741 64 OFFCURVE",
"679 64 CURVE SMOOTH",
"575 64 OFFCURVE",
"518 134 OFFCURVE",
"508 232 CURVE",
"879 232 LINE",
"879 261 LINE SMOOTH",
"879 415 OFFCURVE",
"798 534 OFFCURVE",
"651 534 CURVE SMOOTH",
"576 534 OFFCURVE",
"516 503 OFFCURVE",
"476 452 CURVE",
"443 504 OFFCURVE",
"384 534 OFFCURVE",
"311 534 CURVE SMOOTH",
"234 534 OFFCURVE",
"173 522 OFFCURVE",
"109 478 CURVE",
"109 393 LINE",
"169 435 OFFCURVE",
"224 457 OFFCURVE",
"298 457 CURVE SMOOTH",
"369 457 OFFCURVE",
"417 408 OFFCURVE",
"417 336 CURVE SMOOTH",
"417 299 LINE",
"380 303 OFFCURVE",
"348 305 OFFCURVE",
"309 305 CURVE SMOOTH",
"178 305 OFFCURVE",
"65 263 OFFCURVE",
"65 147 CURVE SMOOTH",
"65 49 OFFCURVE",
"137 -12 OFFCURVE",
"238 -12 CURVE SMOOTH",
"338 -12 OFFCURVE",
"409 23 OFFCURVE",
"469 85 CURVE",
"514 24 OFFCURVE",
"585 -12 OFFCURVE",
"678 -12 CURVE SMOOTH"
);
},
{
closed = 1;
nodes = (
"200 62 OFFCURVE",
"160 97 OFFCURVE",
"160 152 CURVE SMOOTH",
"160 219 OFFCURVE",
"228 238 OFFCURVE",
"305 238 CURVE SMOOTH",
"417 238 LINE",
"420 200 OFFCURVE",
"428 165 OFFCURVE",
"442 134 CURVE",
"389 92 OFFCURVE",
"335 62 OFFCURVE",
"256 62 CURVE SMOOTH"
);
},
{
closed = 1;
nodes = (
"739 461 OFFCURVE",
"780 390 OFFCURVE",
"788 300 CURVE",
"509 300 LINE",
"518 389 OFFCURVE",
"565 461 OFFCURVE",
"652 461 CURVE SMOOTH"
);
}
);
width = 947;
},
{
anchors = (
{
name = bottom;
position = "{477, 0}";
},
{
name = top;
position = "{479, 522}";
}
);
layerId = "CD42366C-28E1-4C24-AB95-7D2C522D2B07";
name = Bold;
paths = (
{
closed = 1;
nodes = (
"753 -12 OFFCURVE",
"816 6 OFFCURVE",
"882 49 CURVE",
"882 170 LINE",
"878 170 LINE",
"814 123 OFFCURVE",
"752 97 OFFCURVE",
"683 97 CURVE SMOOTH",
"591 97 OFFCURVE",
"542 143 OFFCURVE",
"533 209 CURVE",
"904 209 LINE",
"904 261 LINE SMOOTH",
"904 415 OFFCURVE",
"815 534 OFFCURVE",
"655 534 CURVE SMOOTH",
"579 534 OFFCURVE",
"519 507 OFFCURVE",
"479 463 CURVE",
"439 515 OFFCURVE",
"383 534 OFFCURVE",
"304 534 CURVE SMOOTH",
"234 534 OFFCURVE",
"158 519 OFFCURVE",
"90 467 CURVE",
"90 349 LINE",
"150 394 OFFCURVE",
"221 424 OFFCURVE",
"290 424 CURVE SMOOTH",
"365 424 OFFCURVE",
"398 388 OFFCURVE",
"398 336 CURVE SMOOTH",
"398 322 LINE",
"369 326 OFFCURVE",
"342 328 OFFCURVE",
"313 328 CURVE SMOOTH",
"170 328 OFFCURVE",
"46 279 OFFCURVE",
"46 150 CURVE SMOOTH",
"46 49 OFFCURVE",
"122 -12 OFFCURVE",
"247 -12 CURVE SMOOTH",
"338 -12 OFFCURVE",
"414 20 OFFCURVE",
"472 74 CURVE",
"517 20 OFFCURVE",
"588 -12 OFFCURVE",
"682 -12 CURVE SMOOTH"
);
},
{
closed = 1;
nodes = (
"212 95 OFFCURVE",
"185 117 OFFCURVE",
"185 155 CURVE SMOOTH",
"185 210 OFFCURVE",
"244 228 OFFCURVE",
"308 228 CURVE SMOOTH",
"398 228 LINE",
"400 202 OFFCURVE",
"404 178 OFFCURVE",
"412 156 CURVE",
"369 121 OFFCURVE",
"320 95 OFFCURVE",
"264 95 CURVE SMOOTH"
);
},
{
closed = 1;
nodes = (
"728 428 OFFCURVE",
"762 376 OFFCURVE",
"769 310 CURVE",
"534 310 LINE",
"542 375 OFFCURVE",
"581 428 OFFCURVE",
"655 428 CURVE SMOOTH"
);
}
);
width = 954;
}
);
leftMetricsKey = a;
rightMetricsKey = e;
unicode = 00E6;
},
{
color = 1;
glyphname = b;
lastChange = "2015-07-15 10:34:40 +0000";
layers = (
{
anchors = (
{
name = bottom;
position = "{320, 0}";
},
{
name = top;
position = "{320, 522}";
}
);
background = {
paths = (
{
closed = 1;
nodes = (
"475 -12 OFFCURVE",
"562 99 OFFCURVE",
"562 261 CURVE SMOOTH",
"562 423 OFFCURVE",
"475 534 OFFCURVE",
"320 534 CURVE SMOOTH",
"165 534 OFFCURVE",
"78 423 OFFCURVE",
"78 261 CURVE SMOOTH",
"78 99 OFFCURVE",
"165 -12 OFFCURVE",
"320 -12 CURVE SMOOTH"
);
},
{
closed = 1;
nodes = (
"218 64 OFFCURVE",
"174 149 OFFCURVE",
"174 261 CURVE SMOOTH",
"174 373 OFFCURVE",
"218 458 OFFCURVE",
"320 458 CURVE SMOOTH",
"422 458 OFFCURVE",
"467 373 OFFCURVE",
"467 261 CURVE SMOOTH",
"467 149 OFFCURVE",
"422 64 OFFCURVE",
"320 64 CURVE SMOOTH"
);
}
);
};
layerId = UUID0;
name = Regular;
paths = (
{
closed = 1;
nodes = (
"476 -11 OFFCURVE",
"564 105 OFFCURVE",
"564 260 CURVE SMOOTH",
"564 413 OFFCURVE",
"492 534 OFFCURVE",
"351 534 CURVE SMOOTH",
"265 534 OFFCURVE",
"204 494 OFFCURVE",
"156 423 CURVE",
"156 338 LINE",
"208 404 OFFCURVE",
"260 453 OFFCURVE",
"343 453 CURVE SMOOTH",
"435 453 OFFCURVE",
"469 364 OFFCURVE",
"469 260 CURVE SMOOTH",
"469 152 OFFCURVE",
"418 67 OFFCURVE",
"318 67 CURVE SMOOTH",
"258 67 OFFCURVE",
"213 78 OFFCURVE",
"157 99 CURVE",
"157 34 LINE",
"215 8 OFFCURVE",
"263 -11 OFFCURVE",
"327 -11 CURVE SMOOTH"
);
},
{
closed = 1;
nodes = (
"102 0 LINE",
"190 0 LINE",
"190 754 LINE",
"102 754 LINE"
);
}
);
width = 640;
},
{
anchors = (
{
name = bottom;
position = "{320, 0}";
},
{
name = top;
position = "{320, 522}";
}
);
layerId = "CD42366C-28E1-4C24-AB95-7D2C522D2B07";
name = Bold;
paths = (
{
closed = 1;
nodes = (
"489 -11 OFFCURVE",
"584 89 OFFCURVE",
"584 259 CURVE SMOOTH",
"584 426 OFFCURVE",
"494 534 OFFCURVE",
"364 534 CURVE SMOOTH",
"286 534 OFFCURVE",
"219 498 OFFCURVE",
"165 412 CURVE",
"165 305 LINE",
"227 383 OFFCURVE",
"288 420 OFFCURVE",
"350 420 CURVE SMOOTH",
"415 420 OFFCURVE",
"445 369 OFFCURVE",
"445 261 CURVE SMOOTH",
"445 147 OFFCURVE",
"410 100 OFFCURVE",
"327 100 CURVE SMOOTH",
"280 100 OFFCURVE",
"223 100 OFFCURVE",
"166 132 CURVE",
"166 45 LINE",
"244 2 OFFCURVE",
"284 -11 OFFCURVE",
"340 -11 CURVE SMOOTH"
);
},
{
closed = 1;
nodes = (
"80 0 LINE",
"212 0 LINE",
"212 754 LINE",
"80 754 LINE"
);
}
);
width = 640;
}
);
unicode = 0062;
},
{
color = 1;
glyphname = c;
lastChange = "2015-07-17 00:09:32 +0000";
layers = (
{
anchors = (
{
name = bottom;
position = "{300, 0}";
},
{
name = top;
position = "{301, 522}";
}
);
background = {
paths = (
{
closed = 1;
nodes = (
"475 -12 OFFCURVE",
"562 99 OFFCURVE",
"562 261 CURVE SMOOTH",
"562 423 OFFCURVE",
"475 534 OFFCURVE",
"320 534 CURVE SMOOTH",
"165 534 OFFCURVE",
"78 423 OFFCURVE",
"78 261 CURVE SMOOTH",
"78 99 OFFCURVE",
"165 -12 OFFCURVE",
"320 -12 CURVE SMOOTH"
);
},
{
closed = 1;
nodes = (
"218 64 OFFCURVE",
"174 149 OFFCURVE",
"174 261 CURVE SMOOTH",
"174 373 OFFCURVE",
"218 458 OFFCURVE",
"320 458 CURVE SMOOTH",
"422 458 OFFCURVE",
"467 373 OFFCURVE",
"467 261 CURVE SMOOTH",
"467 149 OFFCURVE",
"422 64 OFFCURVE",
"320 64 CURVE SMOOTH"
);
}
);
};
layerId = UUID0;
name = Regular;
paths = (
{
closed = 1;
nodes = (
"370 -12 OFFCURVE",
"426 4 OFFCURVE",
"477 52 CURVE",
"477 137 LINE",
"473 137 LINE",
"421 90 OFFCURVE",
"369 68 OFFCURVE",
"299 68 CURVE SMOOTH",
"202 68 OFFCURVE",
"152 152 OFFCURVE",
"152 258 CURVE SMOOTH",
"152 367 OFFCURVE",
"201 454 OFFCURVE",
"300 454 CURVE SMOOTH",
"364 454 OFFCURVE",
"413 438 OFFCURVE",
"462 398 CURVE",
"466 398 LINE",
"466 483 LINE",
"417 524 OFFCURVE",
"365 534 OFFCURVE",
"301 534 CURVE SMOOTH",
"150 534 OFFCURVE",
"59 417 OFFCURVE",
"59 259 CURVE SMOOTH",
"59 103 OFFCURVE",
"150 -12 OFFCURVE",
"300 -12 CURVE SMOOTH"
);
}
);
width = 540;
},
{
anchors = (
{
name = bottom;
position = "{310, 0}";
},
{
name = top;
position = "{323, 522}";
}
);
background = {
paths = (
{
closed = 1;
nodes = (
"480 -12 OFFCURVE",
"584 95 OFFCURVE",
"584 261 CURVE SMOOTH",
"584 427 OFFCURVE",
"480 534 OFFCURVE",
"320 534 CURVE SMOOTH",
"160 534 OFFCURVE",
"56 427 OFFCURVE",
"56 261 CURVE SMOOTH",
"56 95 OFFCURVE",
"160 -12 OFFCURVE",
"320 -12 CURVE SMOOTH"
);
},
{
closed = 1;
nodes = (
"243 97 OFFCURVE",
"195 154 OFFCURVE",
"195 261 CURVE SMOOTH",
"195 369 OFFCURVE",
"243 425 OFFCURVE",
"320 425 CURVE SMOOTH",
"397 425 OFFCURVE",
"445 369 OFFCURVE",
"445 261 CURVE SMOOTH",
"445 154 OFFCURVE",
"397 97 OFFCURVE",
"320 97 CURVE SMOOTH"
);
}
);
};
layerId = "CD42366C-28E1-4C24-AB95-7D2C522D2B07";
name = Bold;
paths = (
{
closed = 1;
nodes = (
"388 -12 OFFCURVE",
"439 2 OFFCURVE",
"480 27 CURVE",
"480 145 LINE",
"476 145 LINE",
"430 116 OFFCURVE",
"378 101 OFFCURVE",
"331 101 CURVE SMOOTH",
"239 101 OFFCURVE",
"194 155 OFFCURVE",
"194 259 CURVE SMOOTH",
"194 365 OFFCURVE",
"241 421 OFFCURVE",
"333 421 CURVE SMOOTH",
"374 421 OFFCURVE",
"430 409 OFFCURVE",
"476 381 CURVE",
"480 381 LINE",
"480 497 LINE",
"438 522 OFFCURVE",
"383 534 OFFCURVE",
"328 534 CURVE SMOOTH",
"166 534 OFFCURVE",
"57 426 OFFCURVE",
"57 259 CURVE SMOOTH",
"57 94 OFFCURVE",
"162 -12 OFFCURVE",
"328 -12 CURVE SMOOTH"
);
}
);
width = 540;
}
);
unicode = 0063;
},
{
color = 1;
glyphname = d;
lastChange = "2015-07-18 21:05:44 +0000";
layers = (
{
anchors = (
{
name = bottom;
position = "{320, 0}";
},
{
name = center;
position = "{471, 635}";
},
{
name = top;
position = "{320, 522}";
},
{
name = topright;
position = "{535, 522}";
}
);
background = {
paths = (
{
closed = 1;
nodes = (
"475 -12 OFFCURVE",
"562 99 OFFCURVE",
"562 261 CURVE SMOOTH",
"562 423 OFFCURVE",
"475 534 OFFCURVE",
"320 534 CURVE SMOOTH",
"165 534 OFFCURVE",
"78 423 OFFCURVE",
"78 261 CURVE SMOOTH",
"78 99 OFFCURVE",
"165 -12 OFFCURVE",
"320 -12 CURVE SMOOTH"
);
},
{
closed = 1;
nodes = (
"218 64 OFFCURVE",
"174 149 OFFCURVE",
"174 261 CURVE SMOOTH",
"174 373 OFFCURVE",
"218 458 OFFCURVE",
"320 458 CURVE SMOOTH",
"422 458 OFFCURVE",
"467 373 OFFCURVE",
"467 261 CURVE SMOOTH",
"467 149 OFFCURVE",
"422 64 OFFCURVE",
"320 64 CURVE SMOOTH"
);
}
);
};
guideLines = (
{
angle = 90;
position = "{491, 754}";
}
);
layerId = UUID0;
name = Regular;
paths = (
{
closed = 1;
nodes = (
"364 -11 OFFCURVE",
"429 27 OFFCURVE",
"481 100 CURVE",
"481 185 LINE",
"426 119 OFFCURVE",
"373 70 OFFCURVE",
"288 70 CURVE SMOOTH",
"199 70 OFFCURVE",
"168 157 OFFCURVE",
"168 258 CURVE SMOOTH",
"168 368 OFFCURVE",
"219 456 OFFCURVE",
"320 456 CURVE SMOOTH",
"380 456 OFFCURVE",
"425 444 OFFCURVE",
"480 421 CURVE",
"480 484 LINE",
"423 514 OFFCURVE",
"375 534 OFFCURVE",
"311 534 CURVE SMOOTH",
"160 534 OFFCURVE",
"73 415 OFFCURVE",
"73 256 CURVE SMOOTH",
"73 108 OFFCURVE",
"139 -11 OFFCURVE",
"274 -11 CURVE SMOOTH"
);
},
{
closed = 1;
nodes = (
"557 0 LINE",
"535 116 LINE",
"535 754 LINE",
"447 754 LINE",
"447 116 LINE",
"469 0 LINE"
);
}
);
width = 640;
},
{
anchors = (
{
name = bottom;
position = "{320, 0}";
},
{
name = center;
position = "{471, 635}";
},
{
name = top;
position = "{320, 522}";
},
{
name = topright;
position = "{557, 522}";
}
);
background = {
paths = (
{
closed = 1;
nodes = (
"480 -12 OFFCURVE",
"584 95 OFFCURVE",
"584 261 CURVE SMOOTH",
"584 427 OFFCURVE",
"480 534 OFFCURVE",
"320 534 CURVE SMOOTH",
"160 534 OFFCURVE",
"56 427 OFFCURVE",
"56 261 CURVE SMOOTH",
"56 95 OFFCURVE",
"160 -12 OFFCURVE",
"320 -12 CURVE SMOOTH"
);
},
{
closed = 1;
nodes = (
"243 97 OFFCURVE",
"195 154 OFFCURVE",
"195 261 CURVE SMOOTH",
"195 369 OFFCURVE",
"243 425 OFFCURVE",
"320 425 CURVE SMOOTH",
"397 425 OFFCURVE",
"445 369 OFFCURVE",
"445 261 CURVE SMOOTH",
"445 154 OFFCURVE",
"397 97 OFFCURVE",
"320 97 CURVE SMOOTH"
);
}
);
};
layerId = "CD42366C-28E1-4C24-AB95-7D2C522D2B07";
name = Bold;
paths = (
{
closed = 1;
nodes = (
"345 -11 OFFCURVE",
"428 39 OFFCURVE",
"475 120 CURVE",
"475 221 LINE",
"411 135 OFFCURVE",
"347 97 OFFCURVE",
"290 97 CURVE SMOOTH",
"226 97 OFFCURVE",
"195 156 OFFCURVE",
"195 259 CURVE SMOOTH",
"195 373 OFFCURVE",
"234 425 OFFCURVE",
"319 425 CURVE SMOOTH",
"360 425 OFFCURVE",
"419 415 OFFCURVE",
"474 396 CURVE",
"474 473 LINE",
"415 515 OFFCURVE",
"358 534 OFFCURVE",
"291 534 CURVE SMOOTH",
"141 534 OFFCURVE",
"56 431 OFFCURVE",
"56 257 CURVE SMOOTH",
"56 91 OFFCURVE",
"133 -11 OFFCURVE",
"255 -11 CURVE SMOOTH"
);
},
{
closed = 1;
nodes = (
"579 0 LINE",
"557 116 LINE",
"557 754 LINE",
"425 754 LINE",
"425 116 LINE",
"458 0 LINE"
);
}
);
width = 640;
}
);
unicode = 0064;
},
{
color = 1;
glyphname = eth;
lastChange = "2015-07-17 06:08:35 +0000";
layers = (
{
layerId = UUID0;
name = Regular;
paths = (
{
closed = 1;
nodes = (
"458 155 OFFCURVE",
"407 69 OFFCURVE",
"302 69 CURVE SMOOTH",
"212 69 OFFCURVE",
"163 133 OFFCURVE",
"163 240 CURVE SMOOTH",
"163 354 OFFCURVE",
"218 415 OFFCURVE",
"314 415 CURVE SMOOTH",
"378 415 OFFCURVE",
"442 388 OFFCURVE",
"499 339 CURVE",
"499 418 LINE",
"442 470 OFFCURVE",
"393 495 OFFCURVE",
"315 495 CURVE SMOOTH",
"166 495 OFFCURVE",
"69 405 OFFCURVE",
"69 241 CURVE SMOOTH",
"69 85 OFFCURVE",
"156 -12 OFFCURVE",
"301 -12 CURVE SMOOTH",
"464 -12 OFFCURVE",
"553 111 OFFCURVE",
"553 319 CURVE SMOOTH",
"553 529 OFFCURVE",
"462 681 OFFCURVE",
"310 765 CURVE",
"213 743 LINE",
"213 739 LINE",
"395 631 OFFCURVE",
"458 516 OFFCURVE",
"458 326 CURVE SMOOTH"
);
},
{
closed = 1;
nodes = (
"245 561 LINE",
"553 618 LINE",
"553 688 LINE",
"245 631 LINE"
);
}
);
width = 600;
},
{
layerId = "CD42366C-28E1-4C24-AB95-7D2C522D2B07";
name = Bold;
paths = (
{
closed = 1;
nodes = (
"436 177 OFFCURVE",
"392 102 OFFCURVE",
"302 102 CURVE SMOOTH",
"226 102 OFFCURVE",
"185 154 OFFCURVE",
"185 240 CURVE SMOOTH",
"185 333 OFFCURVE",
"232 382 OFFCURVE",
"314 382 CURVE SMOOTH",
"378 382 OFFCURVE",
"442 355 OFFCURVE",
"499 306 CURVE",
"499 418 LINE",
"442 470 OFFCURVE",
"393 495 OFFCURVE",
"315 495 CURVE SMOOTH",
"153 495 OFFCURVE",
"47 405 OFFCURVE",
"47 241 CURVE SMOOTH",
"47 85 OFFCURVE",
"142 -12 OFFCURVE",
"301 -12 CURVE SMOOTH",
"478 -12 OFFCURVE",
"575 111 OFFCURVE",
"575 319 CURVE SMOOTH",
"575 529 OFFCURVE",
"484 681 OFFCURVE",
"332 765 CURVE",
"191 743 LINE",
"191 739 LINE",
"373 631 OFFCURVE",
"436 516 OFFCURVE",
"436 326 CURVE SMOOTH"
);
},
{
closed = 1;
nodes = (
"223 544 LINE",
"575 601 LINE",
"575 699 LINE",
"223 642 LINE"
);
}
);
width = 600;
}
);
unicode = 00F0;
},
{
color = 1;
glyphname = e;
lastChange = "2015-07-17 01:19:14 +0000";
layers = (
{
anchors = (
{
name = bottom;
position = "{300, 0}";
},
{
name = ogonek;
position = "{510, 49}";
},
{
name = top;
position = "{304, 522}";
}
);
background = {
paths = (
{
closed = 1;
nodes = (
"475 -12 OFFCURVE",
"562 99 OFFCURVE",
"562 261 CURVE SMOOTH",
"562 423 OFFCURVE",
"475 534 OFFCURVE",
"320 534 CURVE SMOOTH",
"165 534 OFFCURVE",
"78 423 OFFCURVE",
"78 261 CURVE SMOOTH",
"78 99 OFFCURVE",
"165 -12 OFFCURVE",
"320 -12 CURVE SMOOTH"
);
},
{
closed = 1;
nodes = (
"218 64 OFFCURVE",
"174 149 OFFCURVE",
"174 261 CURVE SMOOTH",
"174 373 OFFCURVE",
"218 458 OFFCURVE",
"320 458 CURVE SMOOTH",
"422 458 OFFCURVE",
"467 373 OFFCURVE",
"467 261 CURVE SMOOTH",
"467 149 OFFCURVE",
"422 64 OFFCURVE",
"320 64 CURVE SMOOTH"
);
}
);
};
layerId = UUID0;
name = Regular;
paths = (
{
closed = 1;
nodes = (
"395 -12 OFFCURVE",
"451 6 OFFCURVE",
"510 49 CURVE",
"510 137 LINE",
"506 137 LINE",
"449 90 OFFCURVE",
"394 64 OFFCURVE",
"332 64 CURVE SMOOTH",
"217 64 OFFCURVE",
"160 150 OFFCURVE",
"160 265 CURVE SMOOTH",
"160 370 OFFCURVE",
"207 461 OFFCURVE",
"305 461 CURVE SMOOTH",
"404 461 OFFCURVE",
"443 369 OFFCURVE",
"443 261 CURVE",
"497 300 LINE",
"131 300 LINE",
"131 232 LINE",
"532 232 LINE",
"532 261 LINE SMOOTH",
"532 415 OFFCURVE",
"451 534 OFFCURVE",
"304 534 CURVE SMOOTH",
"158 534 OFFCURVE",
"70 417 OFFCURVE",
"70 264 CURVE SMOOTH",
"70 102 OFFCURVE",
"168 -12 OFFCURVE",
"331 -12 CURVE SMOOTH"
);
}
);
width = 600;
},
{
anchors = (
{
name = bottom;
position = "{300, 0}";
},
{
name = ogonek;
position = "{528, 52}";
},
{
name = top;
position = "{304, 522}";
}
);
background = {
paths = (
{
closed = 1;
nodes = (
"480 -12 OFFCURVE",
"584 95 OFFCURVE",
"584 261 CURVE SMOOTH",
"584 427 OFFCURVE",
"480 534 OFFCURVE",
"320 534 CURVE SMOOTH",
"160 534 OFFCURVE",
"56 427 OFFCURVE",
"56 261 CURVE SMOOTH",
"56 95 OFFCURVE",
"160 -12 OFFCURVE",
"320 -12 CURVE SMOOTH"
);
},
{
closed = 1;
nodes = (
"243 97 OFFCURVE",
"195 154 OFFCURVE",
"195 261 CURVE SMOOTH",
"195 369 OFFCURVE",
"243 425 OFFCURVE",
"320 425 CURVE SMOOTH",
"397 425 OFFCURVE",
"445 369 OFFCURVE",
"445 261 CURVE SMOOTH",
"445 154 OFFCURVE",
"397 97 OFFCURVE",
"320 97 CURVE SMOOTH"
);
}
);
};
layerId = "CD42366C-28E1-4C24-AB95-7D2C522D2B07";
name = Bold;
paths = (
{
closed = 1;
nodes = (
"404 -12 OFFCURVE",
"475 11 OFFCURVE",
"528 52 CURVE",
"528 159 LINE",
"524 159 LINE",
"463 119 OFFCURVE",
"387 97 OFFCURVE",
"329 97 CURVE SMOOTH",
"234 97 OFFCURVE",
"184 156 OFFCURVE",
"184 260 CURVE SMOOTH",
"184 363 OFFCURVE",
"234 428 OFFCURVE",
"310 428 CURVE SMOOTH",
"381 428 OFFCURVE",
"417 368 OFFCURVE",
"417 261 CURVE",
"493 311 LINE",
"141 311 LINE",
"141 221 LINE",
"550 221 LINE",
"550 261 LINE SMOOTH",
"550 429 OFFCURVE",
"458 534 OFFCURVE",
"310 534 CURVE SMOOTH",
"159 534 OFFCURVE",
"58 425 OFFCURVE",
"58 261 CURVE SMOOTH",
"58 93 OFFCURVE",
"163 -12 OFFCURVE",
"328 -12 CURVE SMOOTH"
);
}
);
width = 600;
}
);
unicode = 0065;
},
{
color = 1;
glyphname = eogonek;
lastChange = "2015-07-18 21:19:38 +0000";
layers = (
{
anchors = (
{
name = _ogonek;
position = "{510, 49}";
}
);
components = (
{
name = e;
}
);
layerId = UUID0;
name = Regular;
paths = (
{
closed = 1;
nodes = (
"510 -136 LINE",
"506 -136 LINE",
"486 -152 OFFCURVE",
"463 -163 OFFCURVE",
"442 -163 CURVE SMOOTH",
"412 -163 OFFCURVE",
"390 -141 OFFCURVE",
"390 -97 CURVE SMOOTH",
"390 -32 OFFCURVE",
"437 -3 OFFCURVE",
"510 49 CURVE",
"439 63 LINE",
"375 32 OFFCURVE",
"320 -27 OFFCURVE",
"320 -104 CURVE SMOOTH",
"320 -181 OFFCURVE",
"375 -224 OFFCURVE",
"434 -224 CURVE SMOOTH",
"460 -224 OFFCURVE",
"487 -216 OFFCURVE",
"510 -199 CURVE"
);
}
);
width = 600;
},
{
anchors = (
{
name = _ogonek;
position = "{528, 52}";
}
);
components = (
{
name = e;
}
);
layerId = "CD42366C-28E1-4C24-AB95-7D2C522D2B07";
name = Bold;
paths = (
{
closed = 1;
nodes = (
"528 -108 LINE",
"524 -108 LINE",
"504 -122 OFFCURVE",
"480 -132 OFFCURVE",
"461 -132 CURVE SMOOTH",
"428 -132 OFFCURVE",
"408 -103 OFFCURVE",
"408 -79 CURVE SMOOTH",
"408 -40 OFFCURVE",
"464 16 OFFCURVE",
"528 52 CURVE",
"420 66 LINE",
"356 35 OFFCURVE",
"301 -26 OFFCURVE",
"301 -97 CURVE SMOOTH",
"301 -182 OFFCURVE",
"378 -222 OFFCURVE",
"443 -222 CURVE SMOOTH",
"479 -222 OFFCURVE",
"503 -210 OFFCURVE",
"528 -197 CURVE"
);
}
);
width = 600;
}
);
unicode = 0119;
},
{
color = 1;
glyphname = f;
lastChange = "2015-07-15 10:34:40 +0000";
layers = (
{
anchors = (
{
name = bottom;
position = "{180, 0}";
},
{
name = top;
position = "{180, 522}";
}
);
layerId = UUID0;
name = Regular;
paths = (
{
closed = 1;
nodes = (
"211 0 LINE",
"211 446 LINE",
"355 446 LINE",
"355 522 LINE",
"211 522 LINE",
"211 592 LINE SMOOTH",
"211 646 OFFCURVE",
"235 689 OFFCURVE",
"303 689 CURVE SMOOTH",
"324 689 OFFCURVE",
"339 685 OFFCURVE",
"365 673 CURVE",
"365 749 LINE",
"334 761 OFFCURVE",
"315 766 OFFCURVE",
"285 766 CURVE SMOOTH",
"174 766 OFFCURVE",
"123 695 OFFCURVE",
"123 582 CURVE SMOOTH",
"123 522 LINE",
"23 522 LINE",
"23 446 LINE",
"123 446 LINE",
"123 0 LINE"
);
}
);
width = 360;
},
{
anchors = (
{
name = bottom;
position = "{180, 0}";
},
{
name = top;
position = "{180, 522}";
}
);
layerId = "CD42366C-28E1-4C24-AB95-7D2C522D2B07";
name = Bold;
paths = (
{
closed = 1;
nodes = (
"233 0 LINE",
"233 424 LINE",
"355 424 LINE",
"355 522 LINE",
"233 522 LINE",
"233 582 LINE SMOOTH",
"233 637 OFFCURVE",
"248 656 OFFCURVE",
"286 656 CURVE SMOOTH",
"312 656 OFFCURVE",
"338 647 OFFCURVE",
"365 633 CURVE",
"365 742 LINE",
"341 755 OFFCURVE",
"315 766 OFFCURVE",
"269 766 CURVE SMOOTH",
"162 766 OFFCURVE",
"101 708 OFFCURVE",
"101 582 CURVE SMOOTH",
"101 522 LINE",
"23 522 LINE",
"23 424 LINE",
"101 424 LINE",
"101 0 LINE"
);
}
);
width = 360;
}
);
unicode = 0066;
},
{
color = 1;
glyphname = g;
lastChange = "2015-07-17 00:09:43 +0000";
layers = (
{
anchors = (
{
name = top;
position = "{305, 522}";
}
);
layerId = UUID0;
name = Regular;
paths = (
{
closed = 1;
nodes = (
"371 7 OFFCURVE",
"416 24 OFFCURVE",
"474 74 CURVE",
"474 159 LINE",
"413 113 OFFCURVE",
"372 88 OFFCURVE",
"295 88 CURVE SMOOTH",
"198 88 OFFCURVE",
"161 160 OFFCURVE",
"161 267 CURVE SMOOTH",
"161 381 OFFCURVE",
"207 456 OFFCURVE",
"314 456 CURVE SMOOTH",
"377 456 OFFCURVE",
"414 447 OFFCURVE",
"473 424 CURVE",
"473 489 LINE",
"410 517 OFFCURVE",
"373 534 OFFCURVE",
"304 534 CURVE SMOOTH",
"144 534 OFFCURVE",
"66 432 OFFCURVE",
"66 266 CURVE SMOOTH",
"66 106 OFFCURVE",
"141 7 OFFCURVE",
"294 7 CURVE SMOOTH"
);
},
{
closed = 1;
nodes = (
"450 -244 OFFCURVE",
"528 -137 OFFCURVE",
"528 34 CURVE SMOOTH",
"528 407 LINE",
"550 523 LINE",
"462 523 LINE",
"440 435 LINE",
"440 22 LINE SMOOTH",
"440 -90 OFFCURVE",
"392 -162 OFFCURVE",
"286 -162 CURVE SMOOTH",
"201 -162 OFFCURVE",
"152 -144 OFFCURVE",
"87 -90 CURVE",
"87 -179 LINE",
"151 -233 OFFCURVE",
"202 -244 OFFCURVE",
"286 -244 CURVE SMOOTH"
);
}
);
width = 620;
},
{
anchors = (
{
name = top;
position = "{306, 522}";
}
);
layerId = "CD42366C-28E1-4C24-AB95-7D2C522D2B07";
name = Bold;
paths = (
{
closed = 1;
nodes = (
"355 7 OFFCURVE",
"414 30 OFFCURVE",
"465 74 CURVE",
"465 192 LINE",
"401 144 OFFCURVE",
"343 121 OFFCURVE",
"287 121 CURVE SMOOTH",
"223 121 OFFCURVE",
"195 166 OFFCURVE",
"195 268 CURVE SMOOTH",
"195 376 OFFCURVE",
"228 423 OFFCURVE",
"305 423 CURVE SMOOTH",
"353 423 OFFCURVE",
"410 423 OFFCURVE",
"464 391 CURVE",
"464 489 LINE",
"389 522 OFFCURVE",
"347 534 OFFCURVE",
"292 534 CURVE SMOOTH",
"147 534 OFFCURVE",
"56 434 OFFCURVE",
"56 268 CURVE SMOOTH",
"56 105 OFFCURVE",
"143 7 OFFCURVE",
"282 7 CURVE SMOOTH"
);
},
{
closed = 1;
nodes = (
"446 -244 OFFCURVE",
"550 -162 OFFCURVE",
"550 0 CURVE SMOOTH",
"550 407 LINE",
"572 522 LINE",
"440 522 LINE",
"418 435 LINE",
"418 0 LINE SMOOTH",
"418 -81 OFFCURVE",
"378 -129 OFFCURVE",
"278 -129 CURVE SMOOTH",
"204 -129 OFFCURVE",
"136 -103 OFFCURVE",
"76 -57 CURVE",
"76 -181 LINE",
"130 -215 OFFCURVE",
"196 -244 OFFCURVE",
"289 -244 CURVE SMOOTH"
);
}
);
width = 620;
}
);
unicode = 0067;
},
{
color = 1;
glyphname = h;
lastChange = "2015-07-18 21:05:44 +0000";
layers = (
{
anchors = (
{
name = bottom;
position = "{320, 0}";
},
{
name = center;
position = "{175, 635}";
},
{
name = top;
position = "{320, 696}";
}
);
guideLines = (
{
angle = 90;
position = "{155, 754}";
}
);
layerId = UUID0;
name = Regular;
paths = (
{
closed = 1;
nodes = (
"441 0 LINE",
"529 0 LINE",
"529 362 LINE SMOOTH",
"529 468 OFFCURVE",
"480 534 OFFCURVE",
"379 534 CURVE SMOOTH",
"289 534 OFFCURVE",
"242 500 OFFCURVE",
"177 436 CURVE",
"177 367 LINE",
"236 421 OFFCURVE",
"276 455 OFFCURVE",
"356 455 CURVE SMOOTH",
"415 455 OFFCURVE",
"441 414 OFFCURVE",
"441 350 CURVE SMOOTH"
);
},
{
closed = 1;
nodes = (
"111 0 LINE",
"199 0 LINE",
"199 754 LINE",
"111 754 LINE"
);
}
);
width = 640;
},
{
anchors = (
{
name = bottom;
position = "{320, 0}";
},
{
name = center;
position = "{175, 635}";
},
{
name = top;
position = "{320, 696}";
}
);
layerId = "CD42366C-28E1-4C24-AB95-7D2C522D2B07";
name = Bold;
paths = (
{
closed = 1;
nodes = (
"419 0 LINE",
"551 0 LINE",
"551 365 LINE SMOOTH",
"551 466 OFFCURVE",
"481 534 OFFCURVE",
"375 534 CURVE SMOOTH",
"312 534 OFFCURVE",
"261 509 OFFCURVE",
"199 447 CURVE",
"199 334 LINE",
"245 389 OFFCURVE",
"290 417 OFFCURVE",
"331 417 CURVE SMOOTH",
"394 417 OFFCURVE",
"419 381 OFFCURVE",
"419 290 CURVE SMOOTH"
);
},
{
closed = 1;
nodes = (
"89 0 LINE",
"221 0 LINE",
"221 754 LINE",
"89 754 LINE"
);
}
);
width = 640;
}
);
unicode = 0068;
},
{
color = 1;
glyphname = i;
lastChange = "2015-07-17 01:23:40 +0000";
layers = (
{
anchors = (
{
name = bottom;
position = "{140, 0}";
}
);
layerId = UUID0;
name = Regular;
paths = (
{
closed = 1;
nodes = (
"96 0 LINE",
"184 0 LINE",
"184 522 LINE",
"96 522 LINE"
);
},
{
closed = 1;
nodes = (
"177 640 OFFCURVE",
"203 667 OFFCURVE",
"203 704 CURVE SMOOTH",
"203 741 OFFCURVE",
"177 768 OFFCURVE",
"140 768 CURVE SMOOTH",
"103 768 OFFCURVE",
"77 741 OFFCURVE",
"77 704 CURVE SMOOTH",
"77 667 OFFCURVE",
"103 640 OFFCURVE",
"140 640 CURVE SMOOTH"
);
}
);
width = 280;
},
{
anchors = (
{
name = bottom;
position = "{140, 0}";
}
);
layerId = "CD42366C-28E1-4C24-AB95-7D2C522D2B07";
name = Bold;
paths = (
{
closed = 1;
nodes = (
"74 0 LINE",
"206 0 LINE",
"206 522 LINE",
"74 521 LINE"
);
},
{
closed = 1;
nodes = (
"184 600 OFFCURVE",
"222 633 OFFCURVE",
"222 683 CURVE SMOOTH",
"222 733 OFFCURVE",
"184 766 OFFCURVE",
"140 766 CURVE SMOOTH",
"96 766 OFFCURVE",
"58 733 OFFCURVE",
"58 683 CURVE SMOOTH",
"58 633 OFFCURVE",
"96 600 OFFCURVE",
"140 600 CURVE SMOOTH"
);
}
);
width = 280;
}
);
unicode = 0069;
},
{
color = 1;
glyphname = idotless;
lastChange = "2015-07-15 10:34:40 +0000";
layers = (
{
anchors = (
{
name = bottom;
position = "{140, 0}";
},
{
name = ogonek;
position = "{184, 0}";
},
{
name = top;
position = "{140, 522}";
}
);
layerId = UUID0;
name = Regular;
paths = (
{
closed = 1;
nodes = (
"96 0 LINE",
"184 0 LINE",
"184 522 LINE",
"96 522 LINE"
);
}
);
width = 280;
},
{
anchors = (
{
name = bottom;
position = "{140, 0}";
},
{
name = ogonek;
position = "{206, 0}";
},
{
name = top;
position = "{140, 522}";
}
);
layerId = "CD42366C-28E1-4C24-AB95-7D2C522D2B07";
name = Bold;
paths = (
{
closed = 1;
nodes = (
"74 0 LINE",
"206 0 LINE",
"206 522 LINE",
"74 521 LINE"
);
}
);
width = 280;
}
);
unicode = 0131;
},
{
color = 1;
glyphname = j;
lastChange = "2015-07-12 22:27:14 +0000";
layers = (
{
background = {
paths = (
{
closed = 1;
nodes = (
"139 -244 OFFCURVE",
"190 -173 OFFCURVE",
"190 -60 CURVE SMOOTH",
"190 522 LINE",
"102 522 LINE",
"102 -60 LINE SMOOTH",
"102 -124 OFFCURVE",
"78 -167 OFFCURVE",
"19 -167 CURVE SMOOTH",
"-10 -167 OFFCURVE",
"-26 -164 OFFCURVE",
"-52 -151 CURVE",
"-52 -227 LINE",
"-23 -243 OFFCURVE",
"-2 -244 OFFCURVE",
"31 -244 CURVE SMOOTH"
);
},
{
closed = 1;
nodes = (
"187 640 OFFCURVE",
"209 663 OFFCURVE",
"209 704 CURVE SMOOTH",
"209 745 OFFCURVE",
"187 768 OFFCURVE",
"146 768 CURVE SMOOTH",
"105 768 OFFCURVE",
"83 745 OFFCURVE",
"83 704 CURVE SMOOTH",
"83 663 OFFCURVE",
"105 640 OFFCURVE",
"146 640 CURVE SMOOTH"
);
}
);
};
layerId = UUID0;
name = Regular;
paths = (
{
closed = 1;
nodes = (
"139 -244 OFFCURVE",
"190 -173 OFFCURVE",
"190 -60 CURVE SMOOTH",
"190 522 LINE",
"102 522 LINE",
"102 -60 LINE SMOOTH",
"102 -124 OFFCURVE",
"78 -167 OFFCURVE",
"19 -167 CURVE SMOOTH",
"-10 -167 OFFCURVE",
"-26 -164 OFFCURVE",
"-52 -151 CURVE",
"-52 -227 LINE",
"-23 -243 OFFCURVE",
"-2 -244 OFFCURVE",
"31 -244 CURVE SMOOTH"
);
},
{
closed = 1;
nodes = (
"183 640 OFFCURVE",
"209 667 OFFCURVE",
"209 704 CURVE SMOOTH",
"209 741 OFFCURVE",
"183 768 OFFCURVE",
"146 768 CURVE SMOOTH",
"109 768 OFFCURVE",
"83 741 OFFCURVE",
"83 704 CURVE SMOOTH",
"83 667 OFFCURVE",
"109 640 OFFCURVE",
"146 640 CURVE SMOOTH"
);
}
);
width = 280;
},
{
layerId = "CD42366C-28E1-4C24-AB95-7D2C522D2B07";
name = Bold;
paths = (
{
closed = 1;
nodes = (
"147 -244 OFFCURVE",
"212 -186 OFFCURVE",
"212 -60 CURVE SMOOTH",
"212 522 LINE",
"80 522 LINE",
"80 -60 LINE SMOOTH",
"80 -115 OFFCURVE",
"61 -134 OFFCURVE",
"19 -134 CURVE SMOOTH",
"-15 -134 OFFCURVE",
"-43 -127 OFFCURVE",
"-74 -107 CURVE",
"-74 -216 LINE",
"-46 -236 OFFCURVE",
"-18 -244 OFFCURVE",
"31 -244 CURVE SMOOTH"
);
},
{
closed = 1;
nodes = (
"190 600 OFFCURVE",
"228 633 OFFCURVE",
"228 683 CURVE SMOOTH",
"228 733 OFFCURVE",
"190 766 OFFCURVE",
"146 766 CURVE SMOOTH",
"102 766 OFFCURVE",
"64 733 OFFCURVE",
"64 683 CURVE SMOOTH",
"64 633 OFFCURVE",
"102 600 OFFCURVE",
"146 600 CURVE SMOOTH"
);
}
);
width = 280;
}
);
unicode = 006A;
},
{
color = 1;
glyphname = jdotless;
lastChange = "2015-07-15 10:34:40 +0000";
layers = (
{
anchors = (
{
name = top;
position = "{140, 522}";
}
);
layerId = UUID0;
name = Regular;
paths = (
{
closed = 1;
nodes = (
"139 -244 OFFCURVE",
"190 -173 OFFCURVE",
"190 -60 CURVE SMOOTH",
"190 522 LINE",
"102 522 LINE",
"102 -60 LINE SMOOTH",
"102 -124 OFFCURVE",
"78 -167 OFFCURVE",
"19 -167 CURVE SMOOTH",
"-10 -167 OFFCURVE",
"-26 -164 OFFCURVE",
"-52 -151 CURVE",
"-52 -227 LINE",
"-23 -243 OFFCURVE",
"-2 -244 OFFCURVE",
"31 -244 CURVE SMOOTH"
);
}
);
width = 280;
},
{
anchors = (
{
name = top;
position = "{140, 522}";
}
);
layerId = "CD42366C-28E1-4C24-AB95-7D2C522D2B07";
name = Bold;
paths = (
{
closed = 1;
nodes = (
"147 -244 OFFCURVE",
"212 -186 OFFCURVE",
"212 -60 CURVE SMOOTH",
"212 522 LINE",
"80 522 LINE",
"80 -60 LINE SMOOTH",
"80 -115 OFFCURVE",
"61 -134 OFFCURVE",
"19 -134 CURVE SMOOTH",
"-15 -134 OFFCURVE",
"-43 -127 OFFCURVE",
"-74 -107 CURVE",
"-74 -216 LINE",
"-46 -236 OFFCURVE",
"-18 -244 OFFCURVE",
"31 -244 CURVE SMOOTH"
);
}
);
width = 280;
}
);
unicode = 0237;
},
{
color = 1;
glyphname = k;
lastChange = "2015-07-15 10:34:40 +0000";
layers = (
{
anchors = (
{
name = bottom;
position = "{290, 0}";
},
{
name = top;
position = "{290, 522}";
}
);
background = {
paths = (
{
closed = 1;
nodes = (
"441 0 LINE",
"529 0 LINE",
"529 362 LINE SMOOTH",
"529 468 OFFCURVE",
"480 534 OFFCURVE",
"379 534 CURVE SMOOTH",
"289 534 OFFCURVE",
"242 500 OFFCURVE",
"177 436 CURVE",
"177 367 LINE",
"236 421 OFFCURVE",
"276 455 OFFCURVE",
"356 455 CURVE SMOOTH",
"415 455 OFFCURVE",
"441 414 OFFCURVE",
"441 350 CURVE SMOOTH"
);
},
{
closed = 1;
nodes = (
"111 0 LINE",
"199 0 LINE",
"199 754 LINE",
"111 754 LINE"
);
}
);
};
layerId = UUID0;
name = Regular;
paths = (
{
closed = 1;
nodes = (
"199 0 LINE",
"199 754 LINE",
"111 754 LINE",
"111 0 LINE"
);
},
{
closed = 1;
nodes = (
"160 109 LINE",
"531 522 LINE",
"427 522 LINE",
"160 223 LINE"
);
},
{
closed = 1;
nodes = (
"543 0 LINE",
"326 331 LINE",
"272 258 LINE",
"435 0 LINE"
);
}
);
width = 580;
},
{
anchors = (
{
name = bottom;
position = "{290, 0}";
},
{
name = top;
position = "{290, 522}";
}
);
layerId = "CD42366C-28E1-4C24-AB95-7D2C522D2B07";
name = Bold;
paths = (
{
closed = 1;
nodes = (
"220 0 LINE",
"220 754 LINE",
"88 754 LINE",
"88 0 LINE"
);
},
{
closed = 1;
nodes = (
"181 110 LINE",
"552 522 LINE",
"402 522 LINE",
"126 204 LINE"
);
},
{
closed = 1;
nodes = (
"564 0 LINE",
"345 336 LINE",
"264 245 LINE",
"413 0 LINE"
);
}
);
width = 580;
}
);
unicode = 006B;
},
{
color = 1;
glyphname = kgreenlandic;
lastChange = "2015-07-17 06:08:07 +0000";
layers = (
{
layerId = UUID0;
name = Regular;
paths = (
{
closed = 1;
nodes = (
"199 0 LINE",
"199 522 LINE",
"111 522 LINE",
"111 0 LINE"
);
},
{
closed = 1;
nodes = (
"160 109 LINE",
"531 522 LINE",
"427 522 LINE",
"160 223 LINE"
);
},
{
closed = 1;
nodes = (
"543 0 LINE",
"326 331 LINE",
"272 258 LINE",
"435 0 LINE"
);
}
);
width = 580;
},
{
layerId = "CD42366C-28E1-4C24-AB95-7D2C522D2B07";
name = Bold;
paths = (
{
closed = 1;
nodes = (
"220 0 LINE",
"220 522 LINE",
"88 522 LINE",
"88 0 LINE"
);
},
{
closed = 1;
nodes = (
"181 110 LINE",
"552 522 LINE",
"402 522 LINE",
"126 204 LINE"
);
},
{
closed = 1;
nodes = (
"564 0 LINE",
"345 336 LINE",
"264 245 LINE",
"413 0 LINE"
);
}
);
width = 580;
}
);
unicode = 0138;
},
{
color = 1;
glyphname = l;
lastChange = "2015-07-18 20:52:58 +0000";
layers = (
{
anchors = (
{
name = bottom;
position = "{140, 0}";
},
{
name = center;
position = "{140, 271}";
},
{
name = top;
position = "{136, 696}";
},
{
name = topright;
position = "{184, 522}";
}
);
layerId = UUID0;
name = Regular;
paths = (
{
closed = 1;
nodes = (
"184 0 LINE",
"184 754 LINE",
"96 754 LINE",
"96 0 LINE"
);
}
);
width = 280;
},
{
anchors = (
{
name = bottom;
position = "{140, 0}";
},
{
name = center;
position = "{140, 261}";
},
{
name = top;
position = "{136, 696}";
},
{
name = topright;
position = "{206, 522}";
}
);
layerId = "CD42366C-28E1-4C24-AB95-7D2C522D2B07";
name = Bold;
paths = (
{
closed = 1;
nodes = (
"206 0 LINE",
"206 754 LINE",
"74 754 LINE",
"74 0 LINE"
);
}
);
width = 280;
}
);
unicode = 006C;
},
{
color = 9;
glyphname = lslash;
lastChange = "2015-07-18 21:10:10 +0000";
layers = (
{
anchors = (
{
name = _center;
position = "{140, 271}";
}
);
components = (
{
name = l;
}
);
layerId = UUID0;
name = Regular;
paths = (
{
closed = 1;
nodes = (
"23 80 LINE",
"257 348 LINE",
"257 462 LINE",
"23 194 LINE"
);
}
);
width = 280;
},
{
anchors = (
{
name = _center;
position = "{140, 261}";
}
);
components = (
{
name = l;
}
);
layerId = "CD42366C-28E1-4C24-AB95-7D2C522D2B07";
name = Bold;
paths = (
{
closed = 1;
nodes = (
"-37 0 LINE",
"460 522 LINE",
"317 522 LINE",
"-180 0 LINE"
);
}
);
width = 280;
}
);
unicode = 0142;
},
{
color = 1;
glyphname = m;
lastChange = "2015-07-15 10:34:40 +0000";
layers = (
{
background = {
paths = (
{
closed = 1;
nodes = (
"426 0 LINE",
"514 0 LINE",
"514 362 LINE SMOOTH",
"514 466 OFFCURVE",
"472 534 OFFCURVE",
"375 534 CURVE SMOOTH",
"288 534 OFFCURVE",
"244 499 OFFCURVE",
"184 436 CURVE",
"184 367 LINE",
"239 420 OFFCURVE",
"276 455 OFFCURVE",
"352 455 CURVE SMOOTH",
"408 455 OFFCURVE",
"426 412 OFFCURVE",
"426 350 CURVE SMOOTH"
);
},
{
closed = 1;
nodes = (
"118 0 LINE",
"206 0 LINE",
"206 406 LINE",
"184 522 LINE",
"96 522 LINE",
"118 406 LINE"
);
},
{
closed = 1;
nodes = (
"734 0 LINE",
"822 0 LINE",
"822 362 LINE SMOOTH",
"822 468 OFFCURVE",
"778 536 OFFCURVE",
"683 534 CURVE SMOOTH",
"602 532 OFFCURVE",
"552 499 OFFCURVE",
"492 436 CURVE",
"492 367 LINE",
"547 420 OFFCURVE",
"584 455 OFFCURVE",
"660 455 CURVE SMOOTH",
"716 455 OFFCURVE",
"734 412 OFFCURVE",
"734 350 CURVE SMOOTH"
);
}
);
};
layerId = UUID0;
name = Regular;
paths = (
{
closed = 1;
nodes = (
"431 0 LINE",
"519 0 LINE",
"519 362 LINE SMOOTH",
"519 468 OFFCURVE",
"470 534 OFFCURVE",
"369 534 CURVE SMOOTH",
"283 534 OFFCURVE",
"242 500 OFFCURVE",
"177 436 CURVE",
"177 367 LINE",
"236 421 OFFCURVE",
"270 455 OFFCURVE",
"346 455 CURVE SMOOTH",
"405 455 OFFCURVE",
"431 414 OFFCURVE",
"431 350 CURVE SMOOTH"
);
},
{
closed = 1;
nodes = (
"111 0 LINE",
"199 0 LINE",
"199 406 LINE",
"177 522 LINE",
"89 522 LINE",
"111 406 LINE"
);
},
{
closed = 1;
nodes = (
"751 0 LINE",
"839 0 LINE",
"839 362 LINE SMOOTH",
"839 468 OFFCURVE",
"790 534 OFFCURVE",
"689 534 CURVE SMOOTH",
"603 534 OFFCURVE",
"559 500 OFFCURVE",
"497 436 CURVE",
"497 367 LINE",
"553 421 OFFCURVE",
"590 455 OFFCURVE",
"666 455 CURVE SMOOTH",
"725 455 OFFCURVE",
"751 414 OFFCURVE",
"751 350 CURVE SMOOTH"
);
}
);
width = 950;
},
{
layerId = "CD42366C-28E1-4C24-AB95-7D2C522D2B07";
name = Bold;
paths = (
{
closed = 1;
nodes = (
"409 0 LINE",
"541 0 LINE",
"541 365 LINE SMOOTH",
"541 466 OFFCURVE",
"475 534 OFFCURVE",
"375 534 CURVE SMOOTH",
"312 534 OFFCURVE",
"261 509 OFFCURVE",
"199 447 CURVE",
"199 334 LINE",
"244 389 OFFCURVE",
"290 417 OFFCURVE",
"331 417 CURVE SMOOTH",
"387 417 OFFCURVE",
"409 381 OFFCURVE",
"409 290 CURVE SMOOTH"
);
},
{
closed = 1;
nodes = (
"89 0 LINE",
"221 0 LINE",
"221 406 LINE",
"188 522 LINE",
"67 522 LINE",
"89 406 LINE"
);
},
{
closed = 1;
nodes = (
"729 0 LINE",
"861 0 LINE",
"861 365 LINE SMOOTH",
"861 466 OFFCURVE",
"795 534 OFFCURVE",
"695 534 CURVE SMOOTH",
"632 534 OFFCURVE",
"581 509 OFFCURVE",
"519 447 CURVE",
"519 334 LINE",
"564 389 OFFCURVE",
"610 417 OFFCURVE",
"651 417 CURVE SMOOTH",
"707 417 OFFCURVE",
"729 381 OFFCURVE",
"729 290 CURVE SMOOTH"
);
}
);
width = 950;
}
);
unicode = 006D;
},
{
color = 1;
glyphname = n;
lastChange = "2015-07-15 08:19:32 +0000";
layers = (
{
anchors = (
{
name = bottom;
position = "{320, 0}";
},
{
name = top;
position = "{320, 522}";
}
);
layerId = UUID0;
name = Regular;
paths = (
{
closed = 1;
nodes = (
"441 0 LINE",
"529 0 LINE",
"529 362 LINE SMOOTH",
"529 468 OFFCURVE",
"480 534 OFFCURVE",
"379 534 CURVE SMOOTH",
"289 534 OFFCURVE",
"242 500 OFFCURVE",
"177 436 CURVE",
"177 367 LINE",
"236 421 OFFCURVE",
"276 455 OFFCURVE",
"356 455 CURVE SMOOTH",
"415 455 OFFCURVE",
"441 414 OFFCURVE",
"441 350 CURVE SMOOTH"
);
},
{
closed = 1;
nodes = (
"111 0 LINE",
"199 0 LINE",
"199 406 LINE",
"177 522 LINE",
"89 522 LINE",
"111 406 LINE"
);
}
);
width = 640;
},
{
anchors = (
{
name = bottom;
position = "{320, 0}";
},
{
name = top;
position = "{320, 522}";
}
);
layerId = "CD42366C-28E1-4C24-AB95-7D2C522D2B07";
name = Bold;
paths = (
{
closed = 1;
nodes = (
"419 0 LINE",
"551 0 LINE",
"551 365 LINE SMOOTH",
"551 466 OFFCURVE",
"481 534 OFFCURVE",
"375 534 CURVE SMOOTH",
"312 534 OFFCURVE",
"261 509 OFFCURVE",
"199 447 CURVE",
"199 334 LINE",
"244 389 OFFCURVE",
"290 417 OFFCURVE",
"331 417 CURVE SMOOTH",
"394 417 OFFCURVE",
"419 381 OFFCURVE",
"419 290 CURVE SMOOTH"
);
},
{
closed = 1;
nodes = (
"89 0 LINE",
"221 0 LINE",
"221 406 LINE",
"188 522 LINE",
"67 522 LINE",
"89 406 LINE"
);
}
);
width = 640;
}
);
unicode = 006E;
},
{
color = 1;
glyphname = eng;
lastChange = "2015-07-17 06:05:28 +0000";
layers = (
{
layerId = UUID0;
name = Regular;
paths = (
{
closed = 1;
nodes = (
"111 0 LINE",
"199 0 LINE",
"199 387 LINE",
"247 429 OFFCURVE",
"286 455 OFFCURVE",
"356 455 CURVE SMOOTH",
"415 455 OFFCURVE",
"441 414 OFFCURVE",
"441 350 CURVE SMOOTH",
"441 -60 LINE SMOOTH",
"441 -124 OFFCURVE",
"417 -167 OFFCURVE",
"358 -167 CURVE SMOOTH",
"329 -167 OFFCURVE",
"313 -164 OFFCURVE",
"287 -151 CURVE",
"287 -227 LINE",
"316 -243 OFFCURVE",
"337 -244 OFFCURVE",
"370 -244 CURVE SMOOTH",
"478 -244 OFFCURVE",
"529 -173 OFFCURVE",
"529 -60 CURVE SMOOTH",
"529 362 LINE SMOOTH",
"529 468 OFFCURVE",
"480 534 OFFCURVE",
"379 534 CURVE SMOOTH",
"295 534 OFFCURVE",
"248 505 OFFCURVE",
"190 449 CURVE",
"177 522 LINE",
"89 522 LINE",
"111 406 LINE"
);
}
);
width = 640;
},
{
layerId = "CD42366C-28E1-4C24-AB95-7D2C522D2B07";
name = Bold;
paths = (
{
closed = 1;
nodes = (
"89 0 LINE",
"221 0 LINE",
"221 359 LINE",
"259 397 OFFCURVE",
"294 417 OFFCURVE",
"336 417 CURVE SMOOTH",
"394 417 OFFCURVE",
"419 378 OFFCURVE",
"419 290 CURVE SMOOTH",
"419 -60 LINE SMOOTH",
"419 -117 OFFCURVE",
"400 -134 OFFCURVE",
"354 -134 CURVE SMOOTH",
"325 -134 OFFCURVE",
"296 -127 OFFCURVE",
"265 -107 CURVE",
"265 -216 LINE",
"293 -236 OFFCURVE",
"322 -244 OFFCURVE",
"367 -244 CURVE SMOOTH",
"486 -244 OFFCURVE",
"551 -187 OFFCURVE",
"551 -60 CURVE SMOOTH",
"551 365 LINE SMOOTH",
"551 466 OFFCURVE",
"481 534 OFFCURVE",
"376 534 CURVE SMOOTH",
"315 534 OFFCURVE",
"265 511 OFFCURVE",
"207 455 CURVE",
"188 522 LINE",
"67 522 LINE",
"89 406 LINE"
);
}
);
width = 640;
}
);
unicode = 014B;
},
{
color = 1;
glyphname = o;
lastChange = "2015-07-18 21:25:46 +0000";
layers = (
{
anchors = (
{
name = bottom;
position = "{320, 0}";
},
{
name = ogonek;
position = "{369, 11}";
},
{
name = top;
position = "{320, 522}";
}
);
layerId = UUID0;
name = Regular;
paths = (
{
closed = 1;
nodes = (
"475 -12 OFFCURVE",
"562 99 OFFCURVE",
"562 261 CURVE SMOOTH",
"562 423 OFFCURVE",
"475 534 OFFCURVE",
"320 534 CURVE SMOOTH",
"165 534 OFFCURVE",
"78 423 OFFCURVE",
"78 261 CURVE SMOOTH",
"78 99 OFFCURVE",
"165 -12 OFFCURVE",
"320 -12 CURVE SMOOTH"
);
},
{
closed = 1;
nodes = (
"218 64 OFFCURVE",
"174 149 OFFCURVE",
"174 261 CURVE SMOOTH",
"174 373 OFFCURVE",
"218 458 OFFCURVE",
"320 458 CURVE SMOOTH",
"422 458 OFFCURVE",
"467 373 OFFCURVE",
"467 261 CURVE SMOOTH",
"467 149 OFFCURVE",
"422 64 OFFCURVE",
"320 64 CURVE SMOOTH"
);
}
);
width = 640;
},
{
anchors = (
{
name = bottom;
position = "{320, 0}";
},
{
name = ogonek;
position = "{405, 0}";
},
{
name = top;
position = "{320, 522}";
}
);
layerId = "CD42366C-28E1-4C24-AB95-7D2C522D2B07";
name = Bold;
paths = (
{
closed = 1;
nodes = (
"480 -12 OFFCURVE",
"584 95 OFFCURVE",
"584 261 CURVE SMOOTH",
"584 427 OFFCURVE",
"480 534 OFFCURVE",
"320 534 CURVE SMOOTH",
"160 534 OFFCURVE",
"56 427 OFFCURVE",
"56 261 CURVE SMOOTH",
"56 95 OFFCURVE",
"160 -12 OFFCURVE",
"320 -12 CURVE SMOOTH"
);
},
{
closed = 1;
nodes = (
"243 97 OFFCURVE",
"195 154 OFFCURVE",
"195 261 CURVE SMOOTH",
"195 369 OFFCURVE",
"243 425 OFFCURVE",
"320 425 CURVE SMOOTH",
"397 425 OFFCURVE",
"445 369 OFFCURVE",
"445 261 CURVE SMOOTH",
"445 154 OFFCURVE",
"397 97 OFFCURVE",
"320 97 CURVE SMOOTH"
);
}
);
width = 640;
}
);
unicode = 006F;
},
{
color = 1;
glyphname = oslash;
lastChange = "2015-07-18 21:30:25 +0000";
layers = (
{
anchors = (
{
name = top;
position = "{320, 522}";
}
);
components = (
{
name = o;
}
);
layerId = UUID0;
name = Regular;
paths = (
{
closed = 1;
nodes = (
"143 0 LINE",
"596 522 LINE",
"497 522 LINE",
"44 0 LINE"
);
}
);
width = 640;
},
{
anchors = (
{
name = top;
position = "{320, 522}";
}
);
components = (
{
name = o;
}
);
layerId = "CD42366C-28E1-4C24-AB95-7D2C522D2B07";
name = Bold;
paths = (
{
closed = 1;
nodes = (
"138 0 LINE",
"611 522 LINE",
"478 522 LINE",
"5 0 LINE"
);
}
);
width = 640;
}
);
unicode = 00F8;
},
{
color = 1;
glyphname = p;
lastChange = "2015-07-15 10:34:40 +0000";
layers = (
{
background = {
paths = (
{
closed = 1;
nodes = (
"475 -12 OFFCURVE",
"562 99 OFFCURVE",
"562 261 CURVE SMOOTH",
"562 423 OFFCURVE",
"475 534 OFFCURVE",
"320 534 CURVE SMOOTH",
"165 534 OFFCURVE",
"78 423 OFFCURVE",
"78 261 CURVE SMOOTH",
"78 99 OFFCURVE",
"165 -12 OFFCURVE",
"320 -12 CURVE SMOOTH"
);
},
{
closed = 1;
nodes = (
"218 64 OFFCURVE",
"174 149 OFFCURVE",
"174 261 CURVE SMOOTH",
"174 373 OFFCURVE",
"218 458 OFFCURVE",
"320 458 CURVE SMOOTH",
"422 458 OFFCURVE",
"467 373 OFFCURVE",
"467 261 CURVE SMOOTH",
"467 149 OFFCURVE",
"422 64 OFFCURVE",
"320 64 CURVE SMOOTH"
);
}
);
};
layerId = UUID0;
name = Regular;
paths = (
{
closed = 1;
nodes = (
"189 -232 LINE",
"189 406 LINE",
"167 522 LINE",
"79 522 LINE",
"101 406 LINE",
"101 -232 LINE"
);
},
{
closed = 1;
nodes = (
"475 -11 OFFCURVE",
"563 105 OFFCURVE",
"563 260 CURVE SMOOTH",
"563 413 OFFCURVE",
"491 534 OFFCURVE",
"350 534 CURVE SMOOTH",
"264 534 OFFCURVE",
"203 494 OFFCURVE",
"155 423 CURVE",
"155 338 LINE",
"207 404 OFFCURVE",
"259 453 OFFCURVE",
"342 453 CURVE SMOOTH",
"434 453 OFFCURVE",
"468 364 OFFCURVE",
"468 260 CURVE SMOOTH",
"468 152 OFFCURVE",
"417 67 OFFCURVE",
"317 67 CURVE SMOOTH",
"257 67 OFFCURVE",
"212 78 OFFCURVE",
"156 99 CURVE",
"156 34 LINE",
"214 8 OFFCURVE",
"262 -11 OFFCURVE",
"326 -11 CURVE SMOOTH"
);
}
);
width = 640;
},
{
layerId = "CD42366C-28E1-4C24-AB95-7D2C522D2B07";
name = Bold;
paths = (
{
closed = 1;
nodes = (
"211 -232 LINE",
"211 406 LINE",
"178 522 LINE",
"57 522 LINE",
"79 406 LINE",
"79 -232 LINE"
);
},
{
closed = 1;
nodes = (
"486 -12 OFFCURVE",
"584 107 OFFCURVE",
"584 266 CURVE SMOOTH",
"584 425 OFFCURVE",
"502 533 OFFCURVE",
"383 533 CURVE SMOOTH",
"296 533 OFFCURVE",
"212 483 OFFCURVE",
"165 402 CURVE",
"165 301 LINE",
"227 385 OFFCURVE",
"289 425 OFFCURVE",
"353 425 CURVE SMOOTH",
"413 425 OFFCURVE",
"445 366 OFFCURVE",
"445 264 CURVE SMOOTH",
"445 152 OFFCURVE",
"406 97 OFFCURVE",
"326 97 CURVE SMOOTH",
"278 97 OFFCURVE",
"220 108 OFFCURVE",
"166 126 CURVE",
"166 49 LINE",
"225 6 OFFCURVE",
"279 -12 OFFCURVE",
"353 -12 CURVE SMOOTH"
);
}
);
width = 640;
}
);
unicode = 0070;
},
{
color = 1;
glyphname = thorn;
lastChange = "2015-07-17 06:07:18 +0000";
layers = (
{
background = {
paths = (
{
closed = 1;
nodes = (
"189 -232 LINE",
"189 406 LINE",
"167 522 LINE",
"79 522 LINE",
"101 406 LINE",
"101 -232 LINE"
);
},
{
closed = 1;
nodes = (
"475 -11 OFFCURVE",
"563 105 OFFCURVE",
"563 260 CURVE SMOOTH",
"563 413 OFFCURVE",
"491 534 OFFCURVE",
"350 534 CURVE SMOOTH",
"264 534 OFFCURVE",
"203 494 OFFCURVE",
"155 423 CURVE",
"155 338 LINE",
"207 404 OFFCURVE",
"259 453 OFFCURVE",
"342 453 CURVE SMOOTH",
"434 453 OFFCURVE",
"468 364 OFFCURVE",
"468 260 CURVE SMOOTH",
"468 152 OFFCURVE",
"417 67 OFFCURVE",
"317 67 CURVE SMOOTH",
"257 67 OFFCURVE",
"212 78 OFFCURVE",
"156 99 CURVE",
"156 34 LINE",
"214 8 OFFCURVE",
"262 -11 OFFCURVE",
"326 -11 CURVE SMOOTH"
);
}
);
};
layerId = UUID0;
name = Regular;
paths = (
{
closed = 1;
nodes = (
"189 -232 LINE",
"189 19 LINE",
"233 1 OFFCURVE",
"274 -11 OFFCURVE",
"326 -11 CURVE SMOOTH",
"475 -11 OFFCURVE",
"563 105 OFFCURVE",
"563 260 CURVE SMOOTH",
"563 413 OFFCURVE",
"491 534 OFFCURVE",
"350 534 CURVE SMOOTH",
"283 534 OFFCURVE",
"231 510 OFFCURVE",
"189 466 CURVE",
"189 754 LINE",
"101 754 LINE",
"101 -232 LINE"
);
},
{
closed = 1;
nodes = (
"269 67 OFFCURVE",
"231 74 OFFCURVE",
"189 87 CURVE",
"189 378 LINE",
"231 423 OFFCURVE",
"277 453 OFFCURVE",
"342 453 CURVE SMOOTH",
"434 453 OFFCURVE",
"468 364 OFFCURVE",
"468 260 CURVE SMOOTH",
"468 152 OFFCURVE",
"417 67 OFFCURVE",
"317 67 CURVE SMOOTH"
);
}
);
width = 640;
},
{
background = {
paths = (
{
closed = 1;
nodes = (
"211 -232 LINE",
"211 406 LINE",
"178 522 LINE",
"57 522 LINE",
"79 406 LINE",
"79 -232 LINE"
);
},
{
closed = 1;
nodes = (
"486 -12 OFFCURVE",
"584 107 OFFCURVE",
"584 266 CURVE SMOOTH",
"584 425 OFFCURVE",
"502 533 OFFCURVE",
"383 533 CURVE SMOOTH",
"296 533 OFFCURVE",
"212 483 OFFCURVE",
"165 402 CURVE",
"165 301 LINE",
"227 385 OFFCURVE",
"289 425 OFFCURVE",
"353 425 CURVE SMOOTH",
"413 425 OFFCURVE",
"445 366 OFFCURVE",
"445 264 CURVE SMOOTH",
"445 152 OFFCURVE",
"406 97 OFFCURVE",
"326 97 CURVE SMOOTH",
"278 97 OFFCURVE",
"220 108 OFFCURVE",
"166 126 CURVE",
"166 49 LINE",
"225 6 OFFCURVE",
"279 -12 OFFCURVE",
"353 -12 CURVE SMOOTH"
);
}
);
};
layerId = "CD42366C-28E1-4C24-AB95-7D2C522D2B07";
name = Bold;
paths = (
{
closed = 1;
nodes = (
"211 -232 LINE",
"211 17 LINE",
"256 -4 OFFCURVE",
"289 -11 OFFCURVE",
"330 -11 CURVE SMOOTH",
"486 -11 OFFCURVE",
"584 89 OFFCURVE",
"584 259 CURVE SMOOTH",
"584 426 OFFCURVE",
"490 534 OFFCURVE",
"354 534 CURVE SMOOTH",
"301 534 OFFCURVE",
"253 517 OFFCURVE",
"211 480 CURVE",
"211 754 LINE",
"79 754 LINE",
"79 -232 LINE"
);
},
{
closed = 1;
nodes = (
"285 100 OFFCURVE",
"249 100 OFFCURVE",
"211 110 CURVE",
"211 365 LINE",
"254 402 OFFCURVE",
"297 420 OFFCURVE",
"340 420 CURVE SMOOTH",
"412 420 OFFCURVE",
"445 369 OFFCURVE",
"445 261 CURVE SMOOTH",
"445 147 OFFCURVE",
"408 100 OFFCURVE",
"317 100 CURVE SMOOTH"
);
}
);
width = 640;
}
);
unicode = 00FE;
},
{
color = 1;
glyphname = q;
lastChange = "2015-07-15 10:34:40 +0000";
layers = (
{
background = {
paths = (
{
closed = 1;
nodes = (
"475 -12 OFFCURVE",
"562 99 OFFCURVE",
"562 261 CURVE SMOOTH",
"562 423 OFFCURVE",
"475 534 OFFCURVE",
"320 534 CURVE SMOOTH",
"165 534 OFFCURVE",
"78 423 OFFCURVE",
"78 261 CURVE SMOOTH",
"78 99 OFFCURVE",
"165 -12 OFFCURVE",
"320 -12 CURVE SMOOTH"
);
},
{
closed = 1;
nodes = (
"218 64 OFFCURVE",
"174 149 OFFCURVE",
"174 261 CURVE SMOOTH",
"174 373 OFFCURVE",
"218 458 OFFCURVE",
"320 458 CURVE SMOOTH",
"422 458 OFFCURVE",
"467 373 OFFCURVE",
"467 261 CURVE SMOOTH",
"467 149 OFFCURVE",
"422 64 OFFCURVE",
"320 64 CURVE SMOOTH"
);
}
);
};
layerId = UUID0;
name = Regular;
paths = (
{
closed = 1;
nodes = (
"543 -232 LINE",
"543 407 LINE",
"565 523 LINE",
"477 523 LINE",
"455 441 LINE",
"455 -232 LINE"
);
},
{
closed = 1;
nodes = (
"372 -11 OFFCURVE",
"437 27 OFFCURVE",
"489 100 CURVE",
"489 185 LINE",
"434 119 OFFCURVE",
"381 70 OFFCURVE",
"296 70 CURVE SMOOTH",
"207 70 OFFCURVE",
"176 157 OFFCURVE",
"176 258 CURVE SMOOTH",
"176 368 OFFCURVE",
"227 456 OFFCURVE",
"328 456 CURVE SMOOTH",
"388 456 OFFCURVE",
"433 444 OFFCURVE",
"488 421 CURVE",
"488 484 LINE",
"431 514 OFFCURVE",
"383 534 OFFCURVE",
"319 534 CURVE SMOOTH",
"168 534 OFFCURVE",
"81 415 OFFCURVE",
"81 256 CURVE SMOOTH",
"81 108 OFFCURVE",
"147 -11 OFFCURVE",
"282 -11 CURVE SMOOTH"
);
}
);
width = 640;
},
{
layerId = "CD42366C-28E1-4C24-AB95-7D2C522D2B07";
name = Bold;
paths = (
{
closed = 1;
nodes = (
"565 -231 LINE",
"565 407 LINE",
"587 523 LINE",
"455 523 LINE",
"433 417 LINE",
"433 -231 LINE"
);
},
{
closed = 1;
nodes = (
"363 -11 OFFCURVE",
"428 18 OFFCURVE",
"475 67 CURVE",
"475 174 LINE",
"412 127 OFFCURVE",
"354 103 OFFCURVE",
"299 103 CURVE SMOOTH",
"226 103 OFFCURVE",
"195 153 OFFCURVE",
"195 275 CURVE SMOOTH",
"195 376 OFFCURVE",
"233 423 OFFCURVE",
"314 423 CURVE SMOOTH",
"390 423 OFFCURVE",
"434 414 OFFCURVE",
"474 391 CURVE",
"474 484 LINE",
"398 521 OFFCURVE",
"355 534 OFFCURVE",
"305 534 CURVE SMOOTH",
"154 534 OFFCURVE",
"56 433 OFFCURVE",
"56 275 CURVE SMOOTH",
"56 90 OFFCURVE",
"142 -11 OFFCURVE",
"299 -11 CURVE SMOOTH"
);
}
);
width = 640;
}
);
unicode = 0071;
},
{
color = 1;
glyphname = r;
lastChange = "2015-07-15 08:29:57 +0000";
layers = (
{
anchors = (
{
name = bottom;
position = "{156, 0}";
},
{
name = top;
position = "{210, 522}";
}
);
background = {
paths = (
{
closed = 1;
nodes = (
"441 0 LINE",
"529 0 LINE",
"529 362 LINE SMOOTH",
"529 468 OFFCURVE",
"480 534 OFFCURVE",
"379 534 CURVE SMOOTH",
"289 534 OFFCURVE",
"242 500 OFFCURVE",
"177 436 CURVE",
"177 367 LINE",
"236 421 OFFCURVE",
"276 455 OFFCURVE",
"356 455 CURVE SMOOTH",
"415 455 OFFCURVE",
"441 414 OFFCURVE",
"441 350 CURVE SMOOTH"
);
},
{
closed = 1;
nodes = (
"111 0 LINE",
"199 0 LINE",
"199 406 LINE",
"177 522 LINE",
"89 522 LINE",
"111 406 LINE"
);
}
);
};
layerId = UUID0;
name = Regular;
paths = (
{
closed = 1;
nodes = (
"198 368 LINE",
"231 413 OFFCURVE",
"283 437 OFFCURVE",
"347 437 CURVE SMOOTH",
"362 437 LINE",
"362 534 LINE",
"331 534 LINE SMOOTH",
"279 534 OFFCURVE",
"246 506 OFFCURVE",
"184 412 CURVE"
);
},
{
closed = 1;
nodes = (
"112 0 LINE",
"200 0 LINE",
"200 406 LINE",
"178 522 LINE",
"90 522 LINE",
"112 406 LINE"
);
}
);
width = 420;
},
{
anchors = (
{
name = bottom;
position = "{210, 0}";
},
{
name = top;
position = "{210, 522}";
}
);
layerId = "CD42366C-28E1-4C24-AB95-7D2C522D2B07";
name = Bold;
paths = (
{
closed = 1;
nodes = (
"199 335 LINE",
"232 380 OFFCURVE",
"285 404 OFFCURVE",
"350 404 CURVE SMOOTH",
"367 404 LINE",
"367 534 LINE",
"334 534 LINE SMOOTH",
"281 534 OFFCURVE",
"248 506 OFFCURVE",
"185 412 CURVE"
);
},
{
closed = 1;
nodes = (
"91 0 LINE",
"223 0 LINE",
"223 406 LINE",
"201 522 LINE",
"69 522 LINE",
"91 406 LINE"
);
}
);
width = 420;
}
);
unicode = 0072;
},
{
color = 1;
glyphname = s;
lastChange = "2015-07-17 00:10:37 +0000";
layers = (
{
anchors = (
{
name = bottom;
position = "{262, 0}";
},
{
name = top;
position = "{256, 522}";
}
);
layerId = UUID0;
name = Regular;
paths = (
{
closed = 1;
nodes = (
"358 -12 OFFCURVE",
"442 55 OFFCURVE",
"442 153 CURVE SMOOTH",
"442 255 OFFCURVE",
"351 281 OFFCURVE",
"272 304 CURVE SMOOTH",
"209 323 OFFCURVE",
"152 339 OFFCURVE",
"152 388 CURVE SMOOTH",
"152 431 OFFCURVE",
"194 456 OFFCURVE",
"260 456 CURVE SMOOTH",
"313 456 OFFCURVE",
"359 440 OFFCURVE",
"412 400 CURVE",
"412 489 LINE",
"362 521 OFFCURVE",
"308 534 OFFCURVE",
"256 534 CURVE SMOOTH",
"142 534 OFFCURVE",
"64 474 OFFCURVE",
"64 380 CURVE SMOOTH",
"64 282 OFFCURVE",
"154 255 OFFCURVE",
"234 233 CURVE SMOOTH",
"297 214 OFFCURVE",
"354 198 OFFCURVE",
"354 145 CURVE SMOOTH",
"354 97 OFFCURVE",
"307 66 OFFCURVE",
"238 66 CURVE SMOOTH",
"177 66 OFFCURVE",
"119 89 OFFCURVE",
"58 136 CURVE",
"58 44 LINE",
"112 8 OFFCURVE",
"176 -12 OFFCURVE",
"240 -12 CURVE SMOOTH"
);
}
);
width = 500;
},
{
anchors = (
{
name = bottom;
position = "{260, 0}";
},
{
name = top;
position = "{250, 522}";
}
);
layerId = "CD42366C-28E1-4C24-AB95-7D2C522D2B07";
name = Bold;
paths = (
{
closed = 1;
nodes = (
"367 -12 OFFCURVE",
"455 55 OFFCURVE",
"455 151 CURVE SMOOTH",
"455 282 OFFCURVE",
"351 306 OFFCURVE",
"270 324 CURVE SMOOTH",
"218 336 OFFCURVE",
"180 346 OFFCURVE",
"180 378 CURVE SMOOTH",
"180 408 OFFCURVE",
"215 423 OFFCURVE",
"276 423 CURVE SMOOTH",
"332 423 OFFCURVE",
"378 406 OFFCURVE",
"435 367 CURVE",
"435 489 LINE",
"379 521 OFFCURVE",
"329 534 OFFCURVE",
"266 534 CURVE SMOOTH",
"137 534 OFFCURVE",
"54 474 OFFCURVE",
"54 380 CURVE SMOOTH",
"54 258 OFFCURVE",
"152 235 OFFCURVE",
"231 215 CURVE SMOOTH",
"286 202 OFFCURVE",
"329 191 OFFCURVE",
"329 152 CURVE SMOOTH",
"329 116 OFFCURVE",
"297 99 OFFCURVE",
"229 99 CURVE SMOOTH",
"160 99 OFFCURVE",
"107 122 OFFCURVE",
"45 169 CURVE",
"45 44 LINE",
"103 8 OFFCURVE",
"172 -12 OFFCURVE",
"241 -12 CURVE SMOOTH"
);
}
);
width = 500;
}
);
unicode = 0073;
},
{
color = 9;
glyphname = germandbls;
lastChange = "2015-07-12 02:02:59 +0000";
layers = (
{
layerId = UUID0;
name = Regular;
paths = (
{
closed = 1;
nodes = (
"362 394 OFFCURVE",
"376 382 OFFCURVE",
"462 338 CURVE SMOOTH",
"550 293 OFFCURVE",
"616 259 OFFCURVE",
"616 159 CURVE SMOOTH",
"616 35 OFFCURVE",
"515 -12 OFFCURVE",
"425 -12 CURVE SMOOTH",
"374 -12 OFFCURVE",
"322 3 OFFCURVE",
"264 44 CURVE",
"264 136 LINE",
"323 87 OFFCURVE",
"371 66 OFFCURVE",
"423 66 CURVE SMOOTH",
"479 66 OFFCURVE",
"528 91 OFFCURVE",
"528 152 CURVE SMOOTH",
"528 213 OFFCURVE",
"478 239 OFFCURVE",
"424 265 CURVE SMOOTH",
"322 315 OFFCURVE",
"274 347 OFFCURVE",
"274 412 CURVE SMOOTH",
"274 521 OFFCURVE",
"407 532 OFFCURVE",
"407 613 CURVE SMOOTH",
"407 662 OFFCURVE",
"360 690 OFFCURVE",
"304 690 CURVE SMOOTH",
"233 690 OFFCURVE",
"198 646 OFFCURVE",
"198 592 CURVE SMOOTH",
"198 0 LINE",
"110 0 LINE",
"110 582 LINE SMOOTH",
"110 695 OFFCURVE",
"175 768 OFFCURVE",
"302 768 CURVE SMOOTH",
"429 768 OFFCURVE",
"495 696 OFFCURVE",
"495 616 CURVE SMOOTH",
"495 502 OFFCURVE",
"362 475 OFFCURVE",
"362 414 CURVE SMOOTH"
);
}
);
width = 682;
},
{
layerId = "CD42366C-28E1-4C24-AB95-7D2C522D2B07";
name = Bold;
paths = (
{
closed = 1;
nodes = (
"406 392 OFFCURVE",
"431 375 OFFCURVE",
"484 346 CURVE SMOOTH",
"588 289 OFFCURVE",
"638 257 OFFCURVE",
"638 167 CURVE SMOOTH",
"638 32 OFFCURVE",
"525 -12 OFFCURVE",
"429 -12 CURVE SMOOTH",
"373 -12 OFFCURVE",
"322 3 OFFCURVE",
"264 44 CURVE",
"264 169 LINE",
"324 119 OFFCURVE",
"373 99 OFFCURVE",
"422 99 CURVE SMOOTH",
"466 99 OFFCURVE",
"506 115 OFFCURVE",
"506 167 CURVE SMOOTH",
"506 202 OFFCURVE",
"487 212 OFFCURVE",
"402 255 CURVE SMOOTH",
"331 291 OFFCURVE",
"274 327 OFFCURVE",
"274 408 CURVE SMOOTH",
"274 520 OFFCURVE",
"385 532 OFFCURVE",
"385 602 CURVE SMOOTH",
"385 638 OFFCURVE",
"356 657 OFFCURVE",
"312 657 CURVE SMOOTH",
"246 657 OFFCURVE",
"220 613 OFFCURVE",
"220 559 CURVE SMOOTH",
"220 0 LINE",
"88 0 LINE",
"88 582 LINE SMOOTH",
"88 695 OFFCURVE",
"160 768 OFFCURVE",
"303 768 CURVE SMOOTH",
"444 768 OFFCURVE",
"517 697 OFFCURVE",
"517 612 CURVE SMOOTH",
"517 508 OFFCURVE",
"406 471 OFFCURVE",
"406 418 CURVE SMOOTH"
);
}
);
width = 682;
}
);
unicode = 00DF;
},
{
color = 1;
glyphname = schwa;
lastChange = "2015-07-15 06:45:35 +0000";
layers = (
{
layerId = UUID0;
name = Regular;
paths = (
{
closed = 1;
nodes = (
"432 -12 OFFCURVE",
"530 102 OFFCURVE",
"530 264 CURVE SMOOTH",
"530 417 OFFCURVE",
"442 534 OFFCURVE",
"296 534 CURVE SMOOTH",
"149 534 OFFCURVE",
"68 415 OFFCURVE",
"68 261 CURVE SMOOTH",
"68 232 LINE",
"469 232 LINE",
"469 300 LINE",
"103 300 LINE",
"157 261 LINE",
"157 369 OFFCURVE",
"196 461 OFFCURVE",
"295 461 CURVE SMOOTH",
"393 461 OFFCURVE",
"440 370 OFFCURVE",
"440 265 CURVE SMOOTH",
"440 150 OFFCURVE",
"383 64 OFFCURVE",
"268 64 CURVE SMOOTH",
"206 64 OFFCURVE",
"151 90 OFFCURVE",
"94 137 CURVE",
"90 137 LINE",
"90 49 LINE",
"149 6 OFFCURVE",
"205 -12 OFFCURVE",
"269 -12 CURVE SMOOTH"
);
}
);
width = 600;
},
{
layerId = "CD42366C-28E1-4C24-AB95-7D2C522D2B07";
name = Bold;
paths = (
{
closed = 1;
nodes = (
"437 -12 OFFCURVE",
"542 93 OFFCURVE",
"542 261 CURVE SMOOTH",
"542 425 OFFCURVE",
"441 534 OFFCURVE",
"290 534 CURVE SMOOTH",
"142 534 OFFCURVE",
"50 429 OFFCURVE",
"50 261 CURVE SMOOTH",
"50 221 LINE",
"459 221 LINE",
"459 311 LINE",
"107 311 LINE",
"183 261 LINE",
"183 368 OFFCURVE",
"219 428 OFFCURVE",
"290 428 CURVE SMOOTH",
"366 428 OFFCURVE",
"416 363 OFFCURVE",
"416 260 CURVE SMOOTH",
"416 156 OFFCURVE",
"366 97 OFFCURVE",
"271 97 CURVE SMOOTH",
"213 97 OFFCURVE",
"137 119 OFFCURVE",
"76 159 CURVE",
"72 159 LINE",
"72 52 LINE",
"125 11 OFFCURVE",
"196 -12 OFFCURVE",
"272 -12 CURVE SMOOTH"
);
}
);
width = 600;
}
);
unicode = 0259;
},
{
color = 1;
glyphname = t;
lastChange = "2015-07-18 21:05:44 +0000";
layers = (
{
anchors = (
{
name = bottom;
position = "{250, 0}";
},
{
name = center;
position = "{182, 283}";
},
{
name = topright;
position = "{213, 522}";
}
);
guideLines = (
{
angle = 90;
position = "{169, 142.5}";
}
);
layerId = UUID0;
name = Regular;
paths = (
{
closed = 1;
nodes = (
"125 662 LINE",
"125 522 LINE",
"25 522 LINE",
"25 446 LINE",
"125 446 LINE",
"125 138 LINE SMOOTH",
"125 48 OFFCURVE",
"175 -12 OFFCURVE",
"262 -12 CURVE SMOOTH",
"298 -12 OFFCURVE",
"324 -10 OFFCURVE",
"357 6 CURVE",
"357 84 LINE",
"329 71 OFFCURVE",
"308 65 OFFCURVE",
"278 65 CURVE SMOOTH",
"234 65 OFFCURVE",
"213 100 OFFCURVE",
"213 147 CURVE SMOOTH",
"213 446 LINE",
"357 446 LINE",
"357 522 LINE",
"213 522 LINE",
"213 708 LINE"
);
}
);
width = 400;
},
{
anchors = (
{
name = bottom;
position = "{240, 0}";
},
{
name = center;
position = "{182, 283}";
},
{
name = topright;
position = "{235, 522}";
}
);
layerId = "CD42366C-28E1-4C24-AB95-7D2C522D2B07";
name = Bold;
paths = (
{
closed = 1;
nodes = (
"103 662 LINE",
"103 522 LINE",
"27 522 LINE",
"27 424 LINE",
"103 424 LINE",
"103 172 LINE SMOOTH",
"103 48 OFFCURVE",
"158 -12 OFFCURVE",
"261 -12 CURVE SMOOTH",
"301 -12 OFFCURVE",
"330 -3 OFFCURVE",
"356 6 CURVE",
"356 115 LINE",
"335 104 OFFCURVE",
"315 96 OFFCURVE",
"293 96 CURVE SMOOTH",
"254 96 OFFCURVE",
"235 122 OFFCURVE",
"235 172 CURVE SMOOTH",
"235 424 LINE",
"355 424 LINE",
"355 522 LINE",
"235 522 LINE",
"235 708 LINE"
);
}
);
width = 400;
}
);
unicode = 0074;
},
{
color = 1;
glyphname = u;
lastChange = "2015-07-17 00:10:07 +0000";
layers = (
{
anchors = (
{
name = bottom;
position = "{320, 0}";
},
{
name = ogonek;
position = "{547, 0}";
},
{
name = top;
position = "{316, 522}";
}
);
background = {
paths = (
{
closed = 1;
nodes = (
"441 0 LINE",
"529 0 LINE",
"529 362 LINE SMOOTH",
"529 468 OFFCURVE",
"480 534 OFFCURVE",
"379 534 CURVE SMOOTH",
"289 534 OFFCURVE",
"242 500 OFFCURVE",
"177 436 CURVE",
"177 367 LINE",
"236 421 OFFCURVE",
"276 455 OFFCURVE",
"356 455 CURVE SMOOTH",
"415 455 OFFCURVE",
"441 414 OFFCURVE",
"441 350 CURVE SMOOTH"
);
},
{
closed = 1;
nodes = (
"111 0 LINE",
"199 0 LINE",
"199 406 LINE",
"177 522 LINE",
"89 522 LINE",
"111 406 LINE"
);
}
);
};
layerId = UUID0;
name = Regular;
paths = (
{
closed = 1;
nodes = (
"195 522 LINE",
"107 522 LINE",
"107 160 LINE SMOOTH",
"107 58 OFFCURVE",
"160 -12 OFFCURVE",
"257 -12 CURVE SMOOTH",
"343 -12 OFFCURVE",
"397 25 OFFCURVE",
"459 86 CURVE",
"459 155 LINE",
"402 103 OFFCURVE",
"357 67 OFFCURVE",
"280 67 CURVE SMOOTH",
"223 67 OFFCURVE",
"195 111 OFFCURVE",
"195 172 CURVE SMOOTH"
);
},
{
closed = 1;
nodes = (
"525 522 LINE",
"437 522 LINE",
"437 116 LINE",
"459 0 LINE",
"547 0 LINE",
"525 116 LINE"
);
}
);
width = 640;
},
{
anchors = (
{
name = bottom;
position = "{320, 0}";
},
{
name = ogonek;
position = "{569, 0}";
},
{
name = top;
position = "{316, 522}";
}
);
layerId = "CD42366C-28E1-4C24-AB95-7D2C522D2B07";
name = Bold;
paths = (
{
closed = 1;
nodes = (
"217 522 LINE",
"85 522 LINE",
"85 157 LINE SMOOTH",
"85 59 OFFCURVE",
"156 -12 OFFCURVE",
"252 -12 CURVE SMOOTH",
"320 -12 OFFCURVE",
"364 8 OFFCURVE",
"437 75 CURVE",
"437 188 LINE",
"384 128 OFFCURVE",
"344 105 OFFCURVE",
"295 105 CURVE SMOOTH",
"244 105 OFFCURVE",
"217 148 OFFCURVE",
"217 232 CURVE SMOOTH"
);
},
{
closed = 1;
nodes = (
"547 522 LINE",
"415 522 LINE",
"415 116 LINE",
"448 0 LINE",
"569 0 LINE",
"547 116 LINE"
);
}
);
width = 640;
}
);
unicode = 0075;
},
{
color = 1;
glyphname = v;
lastChange = "2015-07-15 10:34:40 +0000";
layers = (
{
layerId = UUID0;
name = Regular;
paths = (
{
closed = 1;
nodes = (
"308 0 LINE",
"117 522 LINE",
"27 522 LINE",
"220 0 LINE"
);
},
{
closed = 1;
nodes = (
"340 0 LINE",
"533 522 LINE",
"447 522 LINE",
"256 0 LINE"
);
}
);
width = 560;
},
{
layerId = "CD42366C-28E1-4C24-AB95-7D2C522D2B07";
name = Bold;
paths = (
{
closed = 1;
nodes = (
"320 0 LINE",
"139 522 LINE",
"5 522 LINE",
"198 0 LINE"
);
},
{
closed = 1;
nodes = (
"362 0 LINE",
"555 522 LINE",
"425 522 LINE",
"244 0 LINE"
);
}
);
width = 560;
}
);
unicode = 0076;
},
{
color = 1;
glyphname = w;
lastChange = "2015-07-15 10:34:40 +0000";
layers = (
{
anchors = (
{
name = bottom;
position = "{430, 0}";
},
{
name = top;
position = "{430, 522}";
}
);
background = {
paths = (
{
closed = 1;
nodes = (
"308 0 LINE",
"117 522 LINE",
"27 522 LINE",
"220 0 LINE"
);
},
{
closed = 1;
nodes = (
"340 0 LINE",
"533 522 LINE",
"447 522 LINE",
"256 0 LINE"
);
}
);
};
layerId = UUID0;
name = Regular;
paths = (
{
closed = 1;
nodes = (
"282 0 LINE",
"120 522 LINE",
"30 522 LINE",
"194 0 LINE"
);
},
{
closed = 1;
nodes = (
"308 0 LINE",
"466 522 LINE",
"386 522 LINE",
"230 0 LINE"
);
},
{
closed = 1;
nodes = (
"634 0 LINE",
"476 522 LINE",
"392 522 LINE",
"552 0 LINE"
);
},
{
closed = 1;
nodes = (
"666 0 LINE",
"830 522 LINE",
"744 522 LINE",
"582 0 LINE"
);
}
);
width = 860;
},
{
anchors = (
{
name = bottom;
position = "{430, 0}";
},
{
name = top;
position = "{430, 522}";
}
);
layerId = "CD42366C-28E1-4C24-AB95-7D2C522D2B07";
name = Bold;
paths = (
{
closed = 1;
nodes = (
"294 0 LINE",
"146 522 LINE",
"12 522 LINE",
"172 0 LINE"
);
},
{
closed = 1;
nodes = (
"330 0 LINE",
"478 522 LINE",
"364 522 LINE",
"218 0 LINE"
);
},
{
closed = 1;
nodes = (
"646 0 LINE",
"498 522 LINE",
"380 522 LINE",
"530 0 LINE"
);
},
{
closed = 1;
nodes = (
"688 0 LINE",
"847 522 LINE",
"717 522 LINE",
"570 0 LINE"
);
}
);
width = 860;
}
);
unicode = 0077;
},
{
color = 1;
glyphname = x;
lastChange = "2015-07-15 10:34:40 +0000";
layers = (
{
anchors = (
{
name = bottom;
position = "{280, 0}";
},
{
name = top;
position = "{280, 522}";
}
);
background = {
paths = (
{
closed = 1;
nodes = (
"308 0 LINE",
"117 522 LINE",
"27 522 LINE",
"220 0 LINE"
);
},
{
closed = 1;
nodes = (
"340 0 LINE",
"533 522 LINE",
"447 522 LINE",
"256 0 LINE"
);
}
);
};
layerId = UUID0;
name = Regular;
paths = (
{
closed = 1;
nodes = (
"544 0 LINE",
"144 522 LINE",
"38 522 LINE",
"438 0 LINE"
);
},
{
closed = 1;
nodes = (
"252 310 LINE",
"16 0 LINE",
"113 0 LINE",
"294 244 LINE"
);
},
{
closed = 1;
nodes = (
"309 241 LINE",
"522 522 LINE",
"425 522 LINE",
"267 307 LINE"
);
}
);
width = 560;
},
{
anchors = (
{
name = bottom;
position = "{280, 0}";
},
{
name = top;
position = "{280, 522}";
}
);
layerId = "CD42366C-28E1-4C24-AB95-7D2C522D2B07";
name = Bold;
paths = (
{
closed = 1;
nodes = (
"566 0 LINE",
"162 522 LINE",
"16 522 LINE",
"420 0 LINE"
);
},
{
closed = 1;
nodes = (
"232 310 LINE",
"-6 0 LINE",
"133 0 LINE",
"316 244 LINE"
);
},
{
closed = 1;
nodes = (
"329 241 LINE",
"544 522 LINE",
"405 522 LINE",
"245 307 LINE"
);
}
);
width = 560;
}
);
unicode = 0078;
},
{
color = 1;
glyphname = y;
lastChange = "2015-07-17 00:10:54 +0000";
layers = (
{
anchors = (
{
name = bottom;
position = "{280, 0}";
},
{
name = top;
position = "{278, 522}";
}
);
background = {
paths = (
{
closed = 1;
nodes = (
"308 0 LINE",
"117 522 LINE",
"27 522 LINE",
"220 0 LINE"
);
},
{
closed = 1;
nodes = (
"340 0 LINE",
"533 522 LINE",
"447 522 LINE",
"256 0 LINE"
);
}
);
};
layerId = UUID0;
name = Regular;
paths = (
{
closed = 1;
nodes = (
"316 0 LINE",
"117 522 LINE",
"27 522 LINE",
"238 -17 LINE"
);
},
{
closed = 1;
nodes = (
"234 -232 LINE",
"533 522 LINE",
"439 522 LINE",
"264 50 LINE",
"256 50 LINE",
"144 -232 LINE"
);
}
);
width = 560;
},
{
anchors = (
{
name = bottom;
position = "{280, 0}";
},
{
name = top;
position = "{281, 522}";
}
);
layerId = "CD42366C-28E1-4C24-AB95-7D2C522D2B07";
name = Bold;
paths = (
{
closed = 1;
nodes = (
"337 0 LINE",
"139 522 LINE",
"5 522 LINE",
"216 -17 LINE"
);
},
{
closed = 1;
nodes = (
"256 -232 LINE",
"555 522 LINE",
"423 522 LINE",
"251 50 LINE",
"243 50 LINE",
"131 -232 LINE"
);
}
);
width = 560;
}
);
unicode = 0079;
},
{
color = 1;
glyphname = z;
lastChange = "2015-07-15 08:19:32 +0000";
layers = (
{
anchors = (
{
name = bottom;
position = "{260, 0}";
},
{
name = top;
position = "{260, 522}";
}
);
layerId = UUID0;
name = Regular;
paths = (
{
closed = 1;
nodes = (
"459 522 LINE",
"61 522 LINE",
"61 453 LINE",
"397 453 LINE",
"459 463 LINE"
);
},
{
closed = 1;
nodes = (
"481 69 LINE",
"69 69 LINE",
"39 59 LINE",
"39 0 LINE",
"481 0 LINE"
);
},
{
closed = 1;
nodes = (
"144 59 LINE",
"459 463 LINE",
"355 463 LINE",
"39 59 LINE"
);
}
);
width = 520;
},
{
anchors = (
{
name = bottom;
position = "{260, 0}";
},
{
name = top;
position = "{260, 522}";
}
);
layerId = "CD42366C-28E1-4C24-AB95-7D2C522D2B07";
name = Bold;
paths = (
{
closed = 1;
nodes = (
"462 522 LINE",
"59 522 LINE",
"59 420 LINE",
"399 420 LINE",
"462 430 LINE"
);
},
{
closed = 1;
nodes = (
"483 102 LINE",
"67 102 LINE",
"37 92 LINE",
"37 0 LINE",
"483 0 LINE"
);
},
{
closed = 1;
nodes = (
"207 98 LINE",
"462 430 LINE",
"292 424 LINE",
"37 92 LINE"
);
}
);
width = 520;
}
);
unicode = 007A;
},
{
color = 1;
glyphname = ordfeminine;
lastChange = "2015-06-10 20:23:37 +0000";
layers = (
{
layerId = UUID0;
name = Regular;
paths = (
{
closed = 1;
nodes = (
"184 420 OFFCURVE",
"219 444 OFFCURVE",
"248 483 CURVE",
"248 536 LINE",
"221 498 OFFCURVE",
"188 475 OFFCURVE",
"151 475 CURVE SMOOTH",
"124 475 OFFCURVE",
"111 487 OFFCURVE",
"111 506 CURVE SMOOTH",
"111 535 OFFCURVE",
"139 548 OFFCURVE",
"171 548 CURVE SMOOTH",
"248 548 LINE",
"248 590 LINE",
"221 593 OFFCURVE",
"197 594 OFFCURVE",
"181 594 CURVE SMOOTH",
"101 594 OFFCURVE",
"44 573 OFFCURVE",
"44 507 CURVE SMOOTH",
"44 453 OFFCURVE",
"81 420 OFFCURVE",
"137 420 CURVE SMOOTH"
);
},
{
closed = 1;
nodes = (
"235 427 LINE",
"297 427 LINE",
"286 488 LINE",
"286 609 LINE SMOOTH",
"286 669 OFFCURVE",
"243 708 OFFCURVE",
"169 708 CURVE SMOOTH",
"133 708 OFFCURVE",
"97 699 OFFCURVE",
"67 678 CURVE",
"67 616 LINE",
"99 638 OFFCURVE",
"130 650 OFFCURVE",
"162 650 CURVE SMOOTH",
"203 650 OFFCURVE",
"223 631 OFFCURVE",
"223 603 CURVE SMOOTH",
"223 488 LINE"
);
}
);
width = 330;
},
{
layerId = "CD42366C-28E1-4C24-AB95-7D2C522D2B07";
name = Bold;
paths = (
{
closed = 1;
nodes = (
"184 420 OFFCURVE",
"219 444 OFFCURVE",
"248 483 CURVE",
"248 536 LINE",
"221 505 OFFCURVE",
"188 486 OFFCURVE",
"151 486 CURVE SMOOTH",
"131 486 OFFCURVE",
"122 494 OFFCURVE",
"122 506 CURVE SMOOTH",
"122 527 OFFCURVE",
"145 537 OFFCURVE",
"171 537 CURVE SMOOTH",
"248 537 LINE",
"248 590 LINE",
"221 593 OFFCURVE",
"197 594 OFFCURVE",
"181 594 CURVE SMOOTH",
"95 594 OFFCURVE",
"33 573 OFFCURVE",
"33 507 CURVE SMOOTH",
"33 453 OFFCURVE",
"74 420 OFFCURVE",
"137 420 CURVE SMOOTH"
);
},
{
closed = 1;
nodes = (
"235 427 LINE",
"308 427 LINE",
"297 488 LINE",
"297 609 LINE SMOOTH",
"297 669 OFFCURVE",
"250 708 OFFCURVE",
"169 708 CURVE SMOOTH",
"129 708 OFFCURVE",
"89 699 OFFCURVE",
"56 678 CURVE",
"56 605 LINE",
"92 627 OFFCURVE",
"126 639 OFFCURVE",
"162 639 CURVE SMOOTH",
"196 639 OFFCURVE",
"212 624 OFFCURVE",
"212 603 CURVE SMOOTH",
"212 488 LINE"
);
}
);
width = 330;
}
);
unicode = 00AA;
},
{
color = 1;
glyphname = ordmasculine;
lastChange = "2015-06-10 20:22:22 +0000";
layers = (
{
layerId = UUID0;
name = Regular;
paths = (
{
closed = 1;
nodes = (
"262 420 OFFCURVE",
"308 479 OFFCURVE",
"308 564 CURVE SMOOTH",
"308 649 OFFCURVE",
"262 708 OFFCURVE",
"176 708 CURVE SMOOTH",
"90 708 OFFCURVE",
"44 649 OFFCURVE",
"44 564 CURVE SMOOTH",
"44 479 OFFCURVE",
"90 420 OFFCURVE",
"176 420 CURVE SMOOTH"
);
},
{
closed = 1;
nodes = (
"130 477 OFFCURVE",
"111 516 OFFCURVE",
"111 564 CURVE SMOOTH",
"111 611 OFFCURVE",
"130 651 OFFCURVE",
"177 651 CURVE SMOOTH",
"222 651 OFFCURVE",
"241 612 OFFCURVE",
"241 564 CURVE SMOOTH",
"241 515 OFFCURVE",
"222 477 OFFCURVE",
"177 477 CURVE SMOOTH"
);
}
);
width = 352;
},
{
layerId = "CD42366C-28E1-4C24-AB95-7D2C522D2B07";
name = Bold;
paths = (
{
closed = 1;
nodes = (
"269 420 OFFCURVE",
"319 479 OFFCURVE",
"319 564 CURVE SMOOTH",
"319 649 OFFCURVE",
"269 708 OFFCURVE",
"176 708 CURVE SMOOTH",
"83 708 OFFCURVE",
"33 649 OFFCURVE",
"33 564 CURVE SMOOTH",
"33 479 OFFCURVE",
"83 420 OFFCURVE",
"176 420 CURVE SMOOTH"
);
},
{
closed = 1;
nodes = (
"138 488 OFFCURVE",
"122 522 OFFCURVE",
"122 564 CURVE SMOOTH",
"122 605 OFFCURVE",
"138 640 OFFCURVE",
"177 640 CURVE SMOOTH",
"214 640 OFFCURVE",
"230 606 OFFCURVE",
"230 564 CURVE SMOOTH",
"230 521 OFFCURVE",
"214 488 OFFCURVE",
"177 488 CURVE SMOOTH"
);
}
);
width = 352;
}
);
unicode = 00BA;
},
{
color = 1;
glyphname = Delta;
lastChange = "2015-06-10 20:56:42 +0000";
layers = (
{
layerId = UUID0;
name = Regular;
paths = (
{
closed = 1;
nodes = (
"385 696 LINE",
"292 696 LINE",
"545 0 LINE",
"638 0 LINE"
);
},
{
closed = 1;
nodes = (
"363 696 LINE",
"275 696 LINE",
"22 0 LINE",
"110 0 LINE"
);
},
{
closed = 1;
nodes = (
"577 0 LINE",
"577 75 LINE",
"93 75 LINE",
"93 0 LINE"
);
}
);
width = 660;
},
{
layerId = "CD42366C-28E1-4C24-AB95-7D2C522D2B07";
name = Bold;
paths = (
{
closed = 1;
nodes = (
"407 696 LINE",
"270 696 LINE",
"523 0 LINE",
"660 0 LINE"
);
},
{
closed = 1;
nodes = (
"385 696 LINE",
"253 696 LINE",
"0 0 LINE",
"132 0 LINE"
);
},
{
closed = 1;
nodes = (
"577 0 LINE",
"577 108 LINE",
"93 108 LINE",
"93 0 LINE"
);
}
);
width = 660;
}
);
unicode = 0394;
},
{
color = 1;
glyphname = Omega;
lastChange = "2015-06-10 20:57:19 +0000";
layers = (
{
layerId = UUID0;
name = Regular;
paths = (
{
closed = 1;
nodes = (
"726 0 LINE",
"726 75 LINE",
"553 75 LINE",
"650 133 OFFCURVE",
"704 236 OFFCURVE",
"704 368 CURVE SMOOTH",
"704 568 OFFCURVE",
"590 708 OFFCURVE",
"385 708 CURVE SMOOTH",
"180 708 OFFCURVE",
"66 568 OFFCURVE",
"66 368 CURVE SMOOTH",
"66 236 OFFCURVE",
"120 133 OFFCURVE",
"217 75 CURVE",
"44 75 LINE",
"44 0 LINE",
"334 0 LINE",
"334 75 LINE",
"215 102 OFFCURVE",
"161 221 OFFCURVE",
"161 361 CURVE SMOOTH",
"161 524 OFFCURVE",
"231 628 OFFCURVE",
"385 628 CURVE SMOOTH",
"539 628 OFFCURVE",
"609 524 OFFCURVE",
"609 361 CURVE SMOOTH",
"609 221 OFFCURVE",
"555 102 OFFCURVE",
"436 75 CURVE",
"436 0 LINE"
);
}
);
width = 770;
},
{
layerId = "CD42366C-28E1-4C24-AB95-7D2C522D2B07";
name = Bold;
paths = (
{
closed = 1;
nodes = (
"748 0 LINE",
"748 108 LINE",
"608 108 LINE",
"684 159 OFFCURVE",
"726 251 OFFCURVE",
"726 368 CURVE SMOOTH",
"726 568 OFFCURVE",
"604 708 OFFCURVE",
"385 708 CURVE SMOOTH",
"166 708 OFFCURVE",
"44 568 OFFCURVE",
"44 368 CURVE SMOOTH",
"44 251 OFFCURVE",
"86 159 OFFCURVE",
"162 108 CURVE",
"22 108 LINE",
"22 0 LINE",
"356 0 LINE",
"356 75 LINE",
"237 101 OFFCURVE",
"183 215 OFFCURVE",
"183 350 CURVE SMOOTH",
"183 500 OFFCURVE",
"246 595 OFFCURVE",
"385 595 CURVE SMOOTH",
"524 595 OFFCURVE",
"587 500 OFFCURVE",
"587 350 CURVE SMOOTH",
"587 215 OFFCURVE",
"533 101 OFFCURVE",
"414 75 CURVE",
"414 0 LINE"
);
}
);
width = 770;
}
);
unicode = 03A9;
},
{
color = 1;
glyphname = mu;
lastChange = "2015-07-15 06:44:27 +0000";
layers = (
{
background = {
paths = (
{
closed = 1;
nodes = (
"195 522 LINE",
"107 522 LINE",
"107 160 LINE SMOOTH",
"107 58 OFFCURVE",
"160 -12 OFFCURVE",
"257 -12 CURVE SMOOTH",
"343 -12 OFFCURVE",
"397 25 OFFCURVE",
"459 86 CURVE",
"459 155 LINE",
"402 103 OFFCURVE",
"357 67 OFFCURVE",
"280 67 CURVE SMOOTH",
"223 67 OFFCURVE",
"195 111 OFFCURVE",
"195 172 CURVE SMOOTH"
);
},
{
closed = 1;
nodes = (
"525 522 LINE",
"437 522 LINE",
"437 116 LINE",
"459 0 LINE",
"547 0 LINE",
"525 116 LINE"
);
}
);
};
layerId = UUID0;
name = Regular;
paths = (
{
closed = 1;
nodes = (
"195 -174 LINE",
"186 28 LINE",
"211 2 OFFCURVE",
"245 -12 OFFCURVE",
"287 -12 CURVE SMOOTH",
"343 -12 OFFCURVE",
"387 14 OFFCURVE",
"445 72 CURVE",
"459 0 LINE",
"547 0 LINE",
"525 116 LINE",
"525 522 LINE",
"437 522 LINE",
"437 133 LINE",
"394 94 OFFCURVE",
"350 67 OFFCURVE",
"295 67 CURVE SMOOTH",
"225 67 OFFCURVE",
"195 111 OFFCURVE",
"195 172 CURVE SMOOTH",
"195 522 LINE",
"107 522 LINE",
"107 -174 LINE"
);
}
);
width = 640;
},
{
layerId = "CD42366C-28E1-4C24-AB95-7D2C522D2B07";
name = Bold;
paths = (
{
closed = 1;
nodes = (
"217 -174 LINE",
"197 39 LINE",
"217 10 OFFCURVE",
"244 -12 OFFCURVE",
"296 -12 CURVE SMOOTH",
"349 -12 OFFCURVE",
"395 11 OFFCURVE",
"439 68 CURVE",
"459 0 LINE",
"569 0 LINE",
"547 116 LINE",
"547 522 LINE",
"415 522 LINE",
"415 166 LINE",
"386 124 OFFCURVE",
"348 100 OFFCURVE",
"300 100 CURVE SMOOTH",
"240 100 OFFCURVE",
"217 137 OFFCURVE",
"217 205 CURVE SMOOTH",
"217 522 LINE",
"85 522 LINE",
"85 -174 LINE"
);
}
);
width = 640;
}
);
unicode = 03BC;
},
{
color = 1;
glyphname = pi;
lastChange = "2015-06-10 20:44:14 +0000";
layers = (
{
layerId = UUID0;
name = Regular;
paths = (
{
closed = 1;
nodes = (
"506 446 LINE",
"638 446 LINE",
"638 522 LINE",
"44 522 LINE",
"44 446 LINE",
"176 446 LINE",
"176 0 LINE",
"264 0 LINE",
"264 446 LINE",
"418 446 LINE",
"418 172 LINE SMOOTH",
"418 59 OFFCURVE",
"463 -12 OFFCURVE",
"558 -12 CURVE SMOOTH",
"588 -12 OFFCURVE",
"608 -7 OFFCURVE",
"638 5 CURVE",
"638 81 LINE",
"612 69 OFFCURVE",
"598 65 OFFCURVE",
"576 65 CURVE SMOOTH",
"524 65 OFFCURVE",
"506 108 OFFCURVE",
"506 162 CURVE SMOOTH"
);
}
);
width = 682;
},
{
layerId = "CD42366C-28E1-4C24-AB95-7D2C522D2B07";
name = Bold;
paths = (
{
closed = 1;
nodes = (
"528 413 LINE",
"638 413 LINE",
"638 522 LINE",
"44 522 LINE",
"44 413 LINE",
"154 413 LINE",
"154 0 LINE",
"286 0 LINE",
"286 413 LINE",
"396 413 LINE",
"396 172 LINE SMOOTH",
"396 59 OFFCURVE",
"448 -12 OFFCURVE",
"558 -12 CURVE SMOOTH",
"588 -12 OFFCURVE",
"608 -7 OFFCURVE",
"638 5 CURVE",
"638 114 LINE",
"621 102 OFFCURVE",
"612 98 OFFCURVE",
"597 98 CURVE SMOOTH",
"546 98 OFFCURVE",
"528 141 OFFCURVE",
"528 195 CURVE SMOOTH"
);
}
);
width = 682;
}
);
unicode = 03C0;
},
{
color = 6;
glyphname = "aCandra-deva";
lastChange = "2015-06-08 02:23:47 +0000";
layers = (
{
background = {
paths = (
{
closed = 1;
nodes = (
"661 720 OFFCURVE",
"751 799 OFFCURVE",
"751 910 CURVE",
"672 910 LINE",
"672 835 OFFCURVE",
"618 786 OFFCURVE",
"506 786 CURVE SMOOTH",
"394 786 OFFCURVE",
"340 835 OFFCURVE",
"340 910 CURVE",
"261 910 LINE",
"261 799 OFFCURVE",
"351 720 OFFCURVE",
"506 720 CURVE SMOOTH"
);
}
);
};
components = (
{
name = "a-deva";
},
{
name = "eCandraMatra-deva";
transform = "{1, 0, 0, 1, 240, 0}";
}
);
layerId = UUID0;
name = Regular;
width = 902;
},
{
components = (
{
name = "a-deva";
},
{
name = "eCandraMatra-deva";
transform = "{1, 0, 0, 1, 241, 0}";
}
);
layerId = "CD42366C-28E1-4C24-AB95-7D2C522D2B07";
name = Bold;
width = 902;
}
);
unicode = 0972;
},
{
color = 4;
glyphname = "a-deva";
lastChange = "2015-06-08 00:47:29 +0000";
layers = (
{
anchors = (
{
name = bottom;
position = "{726, 0}";
},
{
name = candra;
position = "{504, 638}";
},
{
name = nukta;
position = "{57, 40}";
},
{
name = top;
position = "{726, 638}";
}
);
layerId = UUID0;
name = Regular;
paths = (
{
closed = 1;
nodes = (
"207 327 LINE",
"262 327 LINE",
"389 351 OFFCURVE",
"450 406 OFFCURVE",
"450 497 CURVE SMOOTH",
"450 592 OFFCURVE",
"384 650 OFFCURVE",
"278 650 CURVE SMOOTH",
"193 650 OFFCURVE",
"112 613 OFFCURVE",
"64 552 CURVE",
"64 548 LINE",
"94 493 LINE",
"98 493 LINE",
"145 549 OFFCURVE",
"207 580 OFFCURVE",
"273 580 CURVE SMOOTH",
"334 580 OFFCURVE",
"370 554 OFFCURVE",
"370 504 CURVE SMOOTH",
"370 439 OFFCURVE",
"311 386 OFFCURVE",
"236 386 CURVE SMOOTH",
"207 386 LINE"
);
},
{
closed = 1;
nodes = (
"380 20 OFFCURVE",
"454 89 OFFCURVE",
"454 179 CURVE SMOOTH",
"454 279 OFFCURVE",
"364 363 OFFCURVE",
"262 363 CURVE SMOOTH",
"242 363 LINE",
"242 327 LINE",
"311 327 OFFCURVE",
"375 278 OFFCURVE",
"375 204 CURVE SMOOTH",
"375 141 OFFCURVE",
"329 98 OFFCURVE",
"260 98 CURVE SMOOTH",
"191 98 OFFCURVE",
"128 141 OFFCURVE",
"65 235 CURVE",
"61 235 LINE",
"26 191 LINE",
"26 187 LINE",
"80 84 OFFCURVE",
"175 20 OFFCURVE",
"276 20 CURVE SMOOTH"
);
},
{
closed = 1;
nodes = (
"682 0 LINE",
"770 0 LINE",
"770 580 LINE",
"924 580 LINE",
"924 638 LINE",
"594 638 LINE",
"594 580 LINE",
"682 580 LINE"
);
},
{
closed = 1;
nodes = (
"352 289 LINE",
"726 289 LINE",
"726 348 LINE",
"312 348 LINE"
);
}
);
width = 902;
},
{
anchors = (
{
name = bottom;
position = "{726, 0}";
},
{
name = candra;
position = "{504, 638}";
},
{
name = nukta;
position = "{57, 40}";
},
{
name = top;
position = "{726, 638}";
}
);
layerId = "CD42366C-28E1-4C24-AB95-7D2C522D2B07";
name = Bold;
paths = (
{
closed = 1;
nodes = (
"185 316 LINE",
"262 316 LINE",
"407 341 OFFCURVE",
"472 404 OFFCURVE",
"472 495 CURVE SMOOTH",
"472 592 OFFCURVE",
"398 650 OFFCURVE",
"282 650 CURVE SMOOTH",
"187 650 OFFCURVE",
"111 611 OFFCURVE",
"64 552 CURVE",
"64 548 LINE",
"116 493 LINE",
"120 493 LINE",
"161 535 OFFCURVE",
"218 558 OFFCURVE",
"267 558 CURVE SMOOTH",
"321 558 OFFCURVE",
"348 530 OFFCURVE",
"348 488 CURVE SMOOTH",
"348 431 OFFCURVE",
"299 396 OFFCURVE",
"236 396 CURVE SMOOTH",
"185 396 LINE"
);
},
{
closed = 1;
nodes = (
"392 20 OFFCURVE",
"476 88 OFFCURVE",
"476 183 CURVE SMOOTH",
"476 286 OFFCURVE",
"376 379 OFFCURVE",
"262 379 CURVE SMOOTH",
"242 379 LINE",
"242 316 LINE",
"300 316 OFFCURVE",
"353 276 OFFCURVE",
"353 213 CURVE SMOOTH",
"353 160 OFFCURVE",
"316 120 OFFCURVE",
"258 120 CURVE SMOOTH",
"200 120 OFFCURVE",
"143 160 OFFCURVE",
"87 246 CURVE",
"83 246 LINE",
"26 191 LINE",
"26 187 LINE",
"79 87 OFFCURVE",
"169 20 OFFCURVE",
"280 20 CURVE SMOOTH"
);
},
{
closed = 1;
nodes = (
"660 0 LINE",
"792 0 LINE",
"792 558 LINE",
"924 558 LINE",
"924 638 LINE",
"572 638 LINE",
"572 558 LINE",
"660 558 LINE"
);
},
{
closed = 1;
nodes = (
"352 290 LINE",
"726 290 LINE",
"726 371 LINE",
"312 371 LINE"
);
}
);
width = 902;
}
);
unicode = 0905;
},
{
color = 4;
glyphname = "i-deva";
lastChange = "2015-06-08 00:47:29 +0000";
layers = (
{
anchors = (
{
name = candra;
position = "{296, 638}";
},
{
name = top;
position = "{425, 638}";
}
);
layerId = UUID0;
name = Regular;
paths = (
{
closed = 1;
nodes = (
"202 36 LINE",
"209 64 LINE",
"128 192 LINE",
"58 154 LINE",
"55 147 OFFCURVE",
"54 139 OFFCURVE",
"54 131 CURVE SMOOTH",
"54 109 OFFCURVE",
"61 89 OFFCURVE",
"75 70 CURVE"
);
},
{
closed = 1;
nodes = (
"479 -123 LINE",
"368 -71 OFFCURVE",
"225 45 OFFCURVE",
"185 90 CURVE",
"161 48 LINE",
"205 -2 OFFCURVE",
"323 -121 OFFCURVE",
"415 -176 CURVE"
);
},
{
closed = 1;
nodes = (
"154 72 LINE",
"206 47 OFFCURVE",
"275 31 OFFCURVE",
"339 31 CURVE SMOOTH",
"439 31 OFFCURVE",
"529 69 OFFCURVE",
"529 167 CURVE SMOOTH",
"529 255 OFFCURVE",
"463 316 OFFCURVE",
"373 316 CURVE SMOOTH",
"306 316 OFFCURVE",
"267 301 OFFCURVE",
"201 290 CURVE",
"177 310 OFFCURVE",
"147 351 OFFCURVE",
"147 382 CURVE SMOOTH",
"147 403 OFFCURVE",
"160 419 OFFCURVE",
"195 419 CURVE SMOOTH",
"462 419 LINE",
"462 580 LINE",
"616 580 LINE",
"616 638 LINE",
"-22 638 LINE",
"-22 580 LINE",
"374 580 LINE",
"374 483 LINE",
"151 483 LINE SMOOTH",
"90 483 OFFCURVE",
"66 451 OFFCURVE",
"66 410 CURVE SMOOTH",
"66 346 OFFCURVE",
"128 258 OFFCURVE",
"196 229 CURVE",
"256 240 OFFCURVE",
"291 246 OFFCURVE",
"355 246 CURVE SMOOTH",
"408 246 OFFCURVE",
"452 218 OFFCURVE",
"452 168 CURVE SMOOTH",
"452 111 OFFCURVE",
"386 89 OFFCURVE",
"313 89 CURVE SMOOTH",
"254 89 OFFCURVE",
"191 103 OFFCURVE",
"154 124 CURVE"
);
}
);
width = 594;
},
{
anchors = (
{
name = candra;
position = "{296, 638}";
},
{
name = top;
position = "{425, 638}";
}
);
layerId = "CD42366C-28E1-4C24-AB95-7D2C522D2B07";
name = Bold;
paths = (
{
closed = 1;
nodes = (
"202 36 LINE",
"220 64 LINE",
"128 214 LINE",
"36 165 LINE",
"33 155 OFFCURVE",
"32 142 OFFCURVE",
"32 133 CURVE SMOOTH",
"32 108 OFFCURVE",
"39 89 OFFCURVE",
"53 70 CURVE"
);
},
{
closed = 1;
nodes = (
"484 -101 LINE",
"373 -49 OFFCURVE",
"230 67 OFFCURVE",
"190 112 CURVE",
"144 48 LINE",
"188 -2 OFFCURVE",
"306 -121 OFFCURVE",
"398 -176 CURVE"
);
},
{
closed = 1;
nodes = (
"462 28 OFFCURVE",
"551 81 OFFCURVE",
"551 169 CURVE SMOOTH",
"551 247 OFFCURVE",
"482 320 OFFCURVE",
"406 320 CURVE SMOOTH",
"386 320 OFFCURVE",
"352 315 OFFCURVE",
"227 292 CURVE",
"197 306 OFFCURVE",
"170 337 OFFCURVE",
"170 366 CURVE SMOOTH",
"170 385 OFFCURVE",
"182 397 OFFCURVE",
"214 397 CURVE SMOOTH",
"484 397 LINE",
"484 558 LINE",
"616 558 LINE",
"616 638 LINE",
"-22 638 LINE",
"-22 558 LINE",
"352 558 LINE",
"352 483 LINE",
"132 483 LINE SMOOTH",
"79 483 OFFCURVE",
"44 451 OFFCURVE",
"44 404 CURVE SMOOTH",
"44 334 OFFCURVE",
"124 243 OFFCURVE",
"216 204 CURVE",
"301 225 OFFCURVE",
"351 233 OFFCURVE",
"377 233 CURVE SMOOTH",
"415 233 OFFCURVE",
"430 216 OFFCURVE",
"430 180 CURVE SMOOTH",
"430 134 OFFCURVE",
"405 112 OFFCURVE",
"319 112 CURVE SMOOTH",
"270 112 OFFCURVE",
"202 119 OFFCURVE",
"153 129 CURVE",
"166 50 LINE",
"217 37 OFFCURVE",
"265 28 OFFCURVE",
"322 28 CURVE SMOOTH"
);
}
);
width = 594;
}
);
unicode = 0907;
},
{
color = 6;
glyphname = "ii-deva";
lastChange = "2015-06-08 00:46:05 +0000";
layers = (
{
components = (
{
name = "i-deva";
}
);
layerId = UUID0;
name = Regular;
paths = (
{
closed = 1;
nodes = (
"352 621 LINE",
"484 621 LINE",
"484 638 LINE",
"445 638 LINE",
"368 707 OFFCURVE",
"340 748 OFFCURVE",
"340 796 CURVE SMOOTH",
"340 841 OFFCURVE",
"364 866 OFFCURVE",
"413 866 CURVE SMOOTH",
"445 866 OFFCURVE",
"489 855 OFFCURVE",
"547 834 CURVE",
"569 882 LINE",
"507 912 OFFCURVE",
"448 928 OFFCURVE",
"399 928 CURVE SMOOTH",
"313 928 OFFCURVE",
"257 880 OFFCURVE",
"257 806 CURVE SMOOTH",
"257 749 OFFCURVE",
"291 700 OFFCURVE",
"372 638 CURVE",
"352 638 LINE"
);
}
);
width = 594;
},
{
components = (
{
name = "i-deva";
}
);
layerId = "CD42366C-28E1-4C24-AB95-7D2C522D2B07";
name = Bold;
paths = (
{
closed = 1;
nodes = (
"330 621 LINE",
"506 621 LINE",
"506 638 LINE",
"457 638 LINE",
"392 677 OFFCURVE",
"367 706 OFFCURVE",
"367 738 CURVE SMOOTH",
"367 767 OFFCURVE",
"386 783 OFFCURVE",
"427 783 CURVE SMOOTH",
"460 783 OFFCURVE",
"495 773 OFFCURVE",
"542 752 CURVE",
"564 819 LINE",
"508 849 OFFCURVE",
"434 870 OFFCURVE",
"373 870 CURVE SMOOTH",
"290 870 OFFCURVE",
"233 831 OFFCURVE",
"233 767 CURVE SMOOTH",
"233 719 OFFCURVE",
"266 680 OFFCURVE",
"350 638 CURVE",
"330 638 LINE"
);
}
);
width = 594;
}
);
unicode = 0908;
},
{
color = 4;
glyphname = "u-deva";
lastChange = "2015-06-08 00:47:34 +0000";
layers = (
{
anchors = (
{
name = bottom;
position = "{307, 0}";
},
{
name = candra;
position = "{296, 638}";
},
{
name = top;
position = "{357, 638}";
}
);
layerId = UUID0;
name = Regular;
paths = (
{
closed = 1;
nodes = (
"594 580 LINE",
"594 638 LINE",
"-22 638 LINE",
"-22 580 LINE"
);
},
{
closed = 1;
nodes = (
"263 315 LINE",
"318 315 LINE",
"445 341 OFFCURVE",
"506 388 OFFCURVE",
"506 486 CURVE SMOOTH",
"506 566 OFFCURVE",
"439 612 OFFCURVE",
"334 612 CURVE",
"329 580 LINE",
"385 580 OFFCURVE",
"421 554 OFFCURVE",
"421 494 CURVE SMOOTH",
"421 421 OFFCURVE",
"372 374 OFFCURVE",
"292 374 CURVE SMOOTH",
"263 374 LINE"
);
},
{
closed = 1;
nodes = (
"248 64 OFFCURVE",
"182 99 OFFCURVE",
"88 184 CURVE",
"66 111 LINE",
"141 35 OFFCURVE",
"227 -4 OFFCURVE",
"321 -4 CURVE SMOOTH",
"434 -4 OFFCURVE",
"528 62 OFFCURVE",
"528 181 CURVE SMOOTH",
"528 295 OFFCURVE",
"453 374 OFFCURVE",
"351 374 CURVE SMOOTH",
"193 374 LINE",
"193 304 LINE",
"333 304 LINE SMOOTH",
"397 304 OFFCURVE",
"446 260 OFFCURVE",
"446 182 CURVE SMOOTH",
"446 100 OFFCURVE",
"395 64 OFFCURVE",
"323 64 CURVE SMOOTH"
);
}
);
width = 572;
},
{
anchors = (
{
name = bottom;
position = "{307, 0}";
},
{
name = candra;
position = "{296, 638}";
},
{
name = top;
position = "{357, 638}";
}
);
layerId = "CD42366C-28E1-4C24-AB95-7D2C522D2B07";
name = Bold;
paths = (
{
closed = 1;
nodes = (
"594 558 LINE",
"594 638 LINE",
"-22 638 LINE",
"-22 558 LINE"
);
},
{
closed = 1;
nodes = (
"241 304 LINE",
"318 304 LINE",
"442 327 OFFCURVE",
"528 379 OFFCURVE",
"528 476 CURVE SMOOTH",
"528 572 OFFCURVE",
"442 612 OFFCURVE",
"312 612 CURVE",
"307 558 LINE",
"364 558 OFFCURVE",
"399 535 OFFCURVE",
"399 483 CURVE SMOOTH",
"399 423 OFFCURVE",
"350 385 OFFCURVE",
"270 385 CURVE SMOOTH",
"241 385 LINE"
);
},
{
closed = 1;
nodes = (
"245 91 OFFCURVE",
"172 128 OFFCURVE",
"77 206 CURVE",
"44 111 LINE",
"125 35 OFFCURVE",
"220 -4 OFFCURVE",
"320 -4 CURVE SMOOTH",
"446 -4 OFFCURVE",
"550 59 OFFCURVE",
"550 186 CURVE SMOOTH",
"550 300 OFFCURVE",
"466 385 OFFCURVE",
"351 385 CURVE SMOOTH",
"171 385 LINE",
"171 293 LINE",
"311 293 LINE SMOOTH",
"376 293 OFFCURVE",
"424 253 OFFCURVE",
"424 181 CURVE SMOOTH",
"424 119 OFFCURVE",
"385 91 OFFCURVE",
"320 91 CURVE SMOOTH"
);
}
);
width = 572;
}
);
unicode = 0909;
},
{
color = 4;
glyphname = "uu-deva";
lastChange = "2015-06-08 00:47:34 +0000";
layers = (
{
anchors = (
{
name = bottom;
position = "{315, 0}";
},
{
name = candra;
position = "{521, 638}";
},
{
name = top;
position = "{368, 638}";
}
);
layerId = UUID0;
name = Regular;
paths = (
{
closed = 1;
nodes = (
"753 33 LINE",
"826 102 OFFCURVE",
"858 144 OFFCURVE",
"858 214 CURVE SMOOTH",
"858 311 OFFCURVE",
"781 396 OFFCURVE",
"669 396 CURVE SMOOTH",
"593 396 OFFCURVE",
"531 341 OFFCURVE",
"483 251 CURVE",
"483 152 LINE",
"536 257 OFFCURVE",
"603 319 OFFCURVE",
"673 319 CURVE SMOOTH",
"738 319 OFFCURVE",
"777 285 OFFCURVE",
"777 220 CURVE SMOOTH",
"777 173 OFFCURVE",
"763 140 OFFCURVE",
"690 82 CURVE"
);
},
{
closed = 1;
nodes = (
"924 580 LINE",
"924 638 LINE",
"-22 638 LINE",
"-22 580 LINE"
);
},
{
closed = 1;
nodes = (
"263 315 LINE",
"318 315 LINE",
"445 340 OFFCURVE",
"506 393 OFFCURVE",
"506 479 CURVE SMOOTH",
"506 570 OFFCURVE",
"438 612 OFFCURVE",
"334 612 CURVE",
"329 580 LINE",
"386 580 OFFCURVE",
"421 554 OFFCURVE",
"421 493 CURVE SMOOTH",
"421 421 OFFCURVE",
"371 374 OFFCURVE",
"292 374 CURVE SMOOTH",
"263 374 LINE"
);
},
{
closed = 1;
nodes = (
"249 64 OFFCURVE",
"182 99 OFFCURVE",
"88 184 CURVE",
"66 111 LINE",
"141 35 OFFCURVE",
"228 -4 OFFCURVE",
"318 -4 CURVE SMOOTH",
"434 -4 OFFCURVE",
"528 60 OFFCURVE",
"528 184 CURVE SMOOTH",
"528 294 OFFCURVE",
"453 374 OFFCURVE",
"351 374 CURVE SMOOTH",
"193 374 LINE",
"193 304 LINE",
"333 304 LINE SMOOTH",
"397 304 OFFCURVE",
"446 261 OFFCURVE",
"446 181 CURVE SMOOTH",
"446 100 OFFCURVE",
"395 64 OFFCURVE",
"321 64 CURVE SMOOTH"
);
}
);
width = 902;
},
{
anchors = (
{
name = bottom;
position = "{315, 0}";
},
{
name = candra;
position = "{521, 638}";
},
{
name = top;
position = "{368, 638}";
}
);
layerId = "CD42366C-28E1-4C24-AB95-7D2C522D2B07";
name = Bold;
paths = (
{
closed = 1;
nodes = (
"924 558 LINE",
"924 638 LINE",
"-22 638 LINE",
"-22 558 LINE"
);
},
{
closed = 1;
nodes = (
"241 304 LINE",
"318 304 LINE",
"442 327 OFFCURVE",
"528 379 OFFCURVE",
"528 476 CURVE SMOOTH",
"528 572 OFFCURVE",
"442 612 OFFCURVE",
"312 612 CURVE",
"307 558 LINE",
"364 558 OFFCURVE",
"399 535 OFFCURVE",
"399 483 CURVE SMOOTH",
"399 423 OFFCURVE",
"350 385 OFFCURVE",
"270 385 CURVE SMOOTH",
"241 385 LINE"
);
},
{
closed = 1;
nodes = (
"245 91 OFFCURVE",
"172 130 OFFCURVE",
"77 206 CURVE",
"44 111 LINE",
"125 35 OFFCURVE",
"220 -4 OFFCURVE",
"320 -4 CURVE SMOOTH",
"446 -4 OFFCURVE",
"550 59 OFFCURVE",
"550 186 CURVE SMOOTH",
"550 300 OFFCURVE",
"466 385 OFFCURVE",
"351 385 CURVE SMOOTH",
"171 385 LINE",
"171 293 LINE",
"311 293 LINE SMOOTH",
"376 293 OFFCURVE",
"424 253 OFFCURVE",
"424 181 CURVE SMOOTH",
"424 121 OFFCURVE",
"385 91 OFFCURVE",
"320 91 CURVE SMOOTH"
);
},
{
closed = 1;
nodes = (
"753 11 LINE",
"837 84 OFFCURVE",
"880 135 OFFCURVE",
"880 211 CURVE SMOOTH",
"880 324 OFFCURVE",
"784 407 OFFCURVE",
"677 407 CURVE SMOOTH",
"596 407 OFFCURVE",
"538 360 OFFCURVE",
"483 251 CURVE",
"483 152 LINE",
"535 248 OFFCURVE",
"600 308 OFFCURVE",
"675 308 CURVE SMOOTH",
"724 308 OFFCURVE",
"755 283 OFFCURVE",
"755 222 CURVE SMOOTH",
"755 175 OFFCURVE",
"736 134 OFFCURVE",
"668 82 CURVE"
);
}
);
width = 902;
}
);
unicode = 090A;
},
{
color = 4;
glyphname = "rVocalic-deva";
lastChange = "2015-06-08 00:47:34 +0000";
layers = (
{
anchors = (
{
name = bottom;
position = "{483, 0}";
},
{
name = candra;
position = "{484, 638}";
},
{
name = top;
position = "{483, 638}";
}
);
layerId = UUID0;
name = Regular;
paths = (
{
closed = 1;
nodes = (
"528 0 LINE",
"528 580 LINE",
"990 580 LINE",
"990 638 LINE",
"-22 638 LINE",
"-22 580 LINE",
"440 580 LINE",
"440 0 LINE"
);
},
{
closed = 1;
nodes = (
"470 319 LINE",
"440 319 LINE",
"110 129 LINE",
"110 125 LINE",
"161 58 LINE",
"165 58 LINE",
"440 244 LINE",
"470 244 LINE"
);
},
{
closed = 1;
nodes = (
"72 365 LINE",
"106 386 OFFCURVE",
"169 403 OFFCURVE",
"228 403 CURVE SMOOTH",
"310 403 OFFCURVE",
"388 370 OFFCURVE",
"447 303 CURVE",
"458 377 LINE",
"405 434 OFFCURVE",
"321 474 OFFCURVE",
"206 474 CURVE SMOOTH",
"146 474 OFFCURVE",
"78 463 OFFCURVE",
"44 439 CURVE"
);
},
{
closed = 1;
nodes = (
"455 308 LINE",
"502 284 OFFCURVE",
"553 261 OFFCURVE",
"625 261 CURVE SMOOTH",
"693 261 OFFCURVE",
"738 282 OFFCURVE",
"796 328 CURVE",
"753 395 LINE",
"707 358 OFFCURVE",
"659 327 OFFCURVE",
"599 327 CURVE SMOOTH",
"555 327 OFFCURVE",
"504 344 OFFCURVE",
"467 371 CURVE"
);
},
{
closed = 1;
nodes = (
"779 276 OFFCURVE",
"823 237 OFFCURVE",
"823 172 CURVE SMOOTH",
"823 106 OFFCURVE",
"777 68 OFFCURVE",
"682 68 CURVE",
"682 -12 LINE",
"802 -12 OFFCURVE",
"902 36 OFFCURVE",
"902 174 CURVE SMOOTH",
"902 232 OFFCURVE",
"862 298 OFFCURVE",
"820 336 CURVE",
"814 414 LINE",
"798 449 OFFCURVE",
"781 470 OFFCURVE",
"753 495 CURVE",
"683 456 LINE",
"700 383 OFFCURVE",
"708 364 OFFCURVE",
"741 323 CURVE SMOOTH"
);
}
);
width = 968;
},
{
anchors = (
{
name = bottom;
position = "{483, 0}";
},
{
name = candra;
position = "{484, 638}";
},
{
name = top;
position = "{483, 638}";
}
);
layerId = "CD42366C-28E1-4C24-AB95-7D2C522D2B07";
name = Bold;
paths = (
{
closed = 1;
nodes = (
"550 0 LINE",
"550 558 LINE",
"990 558 LINE",
"990 638 LINE",
"-22 638 LINE",
"-22 558 LINE",
"418 558 LINE",
"418 0 LINE"
);
},
{
closed = 1;
nodes = (
"470 330 LINE",
"440 330 LINE",
"94 140 LINE",
"94 136 LINE",
"161 47 LINE",
"165 47 LINE",
"440 233 LINE",
"470 233 LINE"
);
},
{
closed = 1;
nodes = (
"83 343 LINE",
"115 364 OFFCURVE",
"173 381 OFFCURVE",
"228 381 CURVE SMOOTH",
"310 381 OFFCURVE",
"388 348 OFFCURVE",
"447 281 CURVE",
"458 377 LINE",
"405 434 OFFCURVE",
"321 474 OFFCURVE",
"206 474 CURVE SMOOTH",
"146 474 OFFCURVE",
"78 463 OFFCURVE",
"44 439 CURVE"
);
},
{
closed = 1;
nodes = (
"455 286 LINE",
"502 262 OFFCURVE",
"553 239 OFFCURVE",
"625 239 CURVE SMOOTH",
"693 239 OFFCURVE",
"738 260 OFFCURVE",
"796 306 CURVE",
"753 395 LINE",
"707 358 OFFCURVE",
"659 327 OFFCURVE",
"599 327 CURVE SMOOTH",
"555 327 OFFCURVE",
"504 344 OFFCURVE",
"467 371 CURVE"
);
},
{
closed = 1;
nodes = (
"769 276 OFFCURVE",
"801 237 OFFCURVE",
"801 172 CURVE SMOOTH",
"801 120 OFFCURVE",
"755 90 OFFCURVE",
"660 90 CURVE",
"660 -12 LINE",
"804 -12 OFFCURVE",
"924 36 OFFCURVE",
"924 174 CURVE SMOOTH",
"924 232 OFFCURVE",
"884 298 OFFCURVE",
"842 336 CURVE",
"836 414 LINE",
"820 449 OFFCURVE",
"803 470 OFFCURVE",
"775 495 CURVE",
"683 456 LINE",
"700 383 OFFCURVE",
"708 364 OFFCURVE",
"741 323 CURVE SMOOTH"
);
}
);
width = 968;
}
);
unicode = 090B;
},
{
color = 4;
glyphname = "rrVocalic-deva";
lastChange = "2015-06-08 00:47:34 +0000";
layers = (
{
anchors = (
{
name = bottom;
position = "{483, 0}";
},
{
name = candra;
position = "{484, 638}";
},
{
name = top;
position = "{483, 638}";
}
);
layerId = UUID0;
name = Regular;
paths = (
{
closed = 1;
nodes = (
"528 0 LINE",
"528 580 LINE",
"990 580 LINE",
"990 638 LINE",
"-22 638 LINE",
"-22 580 LINE",
"440 580 LINE",
"440 0 LINE"
);
},
{
closed = 1;
nodes = (
"470 319 LINE",
"440 319 LINE",
"110 129 LINE",
"110 125 LINE",
"161 58 LINE",
"165 58 LINE",
"440 244 LINE",
"470 244 LINE"
);
},
{
closed = 1;
nodes = (
"72 365 LINE",
"106 386 OFFCURVE",
"169 403 OFFCURVE",
"228 403 CURVE SMOOTH",
"310 403 OFFCURVE",
"388 370 OFFCURVE",
"447 303 CURVE",
"458 377 LINE",
"405 434 OFFCURVE",
"321 474 OFFCURVE",
"206 474 CURVE SMOOTH",
"146 474 OFFCURVE",
"78 463 OFFCURVE",
"44 439 CURVE"
);
},
{
closed = 1;
nodes = (
"455 308 LINE",
"502 284 OFFCURVE",
"552 261 OFFCURVE",
"627 261 CURVE SMOOTH",
"692 261 OFFCURVE",
"733 278 OFFCURVE",
"785 320 CURVE",
"753 395 LINE",
"707 358 OFFCURVE",
"659 327 OFFCURVE",
"599 327 CURVE SMOOTH",
"555 327 OFFCURVE",
"504 344 OFFCURVE",
"467 371 CURVE"
);
},
{
closed = 1;
nodes = (
"794 245 LINE",
"701 228 OFFCURVE",
"650 184 OFFCURVE",
"650 111 CURVE SMOOTH",
"650 38 OFFCURVE",
"702 -12 OFFCURVE",
"791 -12 CURVE SMOOTH",
"836 -12 OFFCURVE",
"883 1 OFFCURVE",
"924 27 CURVE",
"894 89 LINE",
"860 69 OFFCURVE",
"820 58 OFFCURVE",
"787 58 CURVE SMOOTH",
"745 58 OFFCURVE",
"726 76 OFFCURVE",
"726 103 CURVE SMOOTH",
"726 164 OFFCURVE",
"819 191 OFFCURVE",
"860 192 CURVE",
"860 196 LINE"
);
},
{
closed = 1;
nodes = (
"860 196 LINE",
"829 258 OFFCURVE",
"820 280 OFFCURVE",
"802 329 CURVE",
"814 414 LINE",
"799 449 OFFCURVE",
"781 470 OFFCURVE",
"753 495 CURVE",
"683 456 LINE",
"722 356 OFFCURVE",
"744 277 OFFCURVE",
"785 185 CURVE"
);
}
);
width = 968;
},
{
anchors = (
{
name = bottom;
position = "{483, 0}";
},
{
name = candra;
position = "{484, 638}";
},
{
name = top;
position = "{483, 638}";
}
);
layerId = "CD42366C-28E1-4C24-AB95-7D2C522D2B07";
name = Bold;
paths = (
{
closed = 1;
nodes = (
"550 0 LINE",
"550 558 LINE",
"990 558 LINE",
"990 638 LINE",
"-22 638 LINE",
"-22 558 LINE",
"418 558 LINE",
"418 0 LINE"
);
},
{
closed = 1;
nodes = (
"470 330 LINE",
"440 330 LINE",
"88 140 LINE",
"88 136 LINE",
"161 36 LINE",
"165 36 LINE",
"440 222 LINE",
"470 222 LINE"
);
},
{
closed = 1;
nodes = (
"72 343 LINE",
"106 364 OFFCURVE",
"169 381 OFFCURVE",
"228 381 CURVE SMOOTH",
"310 381 OFFCURVE",
"388 348 OFFCURVE",
"447 281 CURVE",
"458 377 LINE",
"405 434 OFFCURVE",
"322 474 OFFCURVE",
"205 474 CURVE SMOOTH",
"143 474 OFFCURVE",
"69 463 OFFCURVE",
"33 439 CURVE"
);
},
{
closed = 1;
nodes = (
"455 297 LINE",
"502 273 OFFCURVE",
"552 250 OFFCURVE",
"627 250 CURVE SMOOTH",
"692 250 OFFCURVE",
"733 267 OFFCURVE",
"785 309 CURVE",
"753 406 LINE",
"707 369 OFFCURVE",
"659 338 OFFCURVE",
"599 338 CURVE SMOOTH",
"555 338 OFFCURVE",
"504 355 OFFCURVE",
"467 382 CURVE"
);
},
{
closed = 1;
nodes = (
"794 245 LINE",
"687 228 OFFCURVE",
"628 184 OFFCURVE",
"628 111 CURVE SMOOTH",
"628 38 OFFCURVE",
"688 -12 OFFCURVE",
"791 -12 CURVE SMOOTH",
"843 -12 OFFCURVE",
"898 1 OFFCURVE",
"946 27 CURVE",
"916 111 LINE",
"876 91 OFFCURVE",
"823 80 OFFCURVE",
"792 80 CURVE SMOOTH",
"764 80 OFFCURVE",
"747 89 OFFCURVE",
"747 109 CURVE SMOOTH",
"747 149 OFFCURVE",
"815 170 OFFCURVE",
"882 170 CURVE",
"882 174 LINE"
);
},
{
closed = 1;
nodes = (
"882 174 LINE",
"851 246 OFFCURVE",
"842 272 OFFCURVE",
"824 329 CURVE",
"836 414 LINE",
"821 449 OFFCURVE",
"803 470 OFFCURVE",
"775 495 CURVE",
"661 456 LINE",
"700 348 OFFCURVE",
"722 262 OFFCURVE",
"763 163 CURVE"
);
}
);
width = 968;
}
);
unicode = 0960;
},
{
color = 4;
glyphname = "lVocalic-deva";
lastChange = "2015-06-08 00:47:34 +0000";
layers = (
{
anchors = (
{
name = bottom;
position = "{278, -85}";
},
{
name = candra;
position = "{352, 638}";
},
{
name = top;
position = "{508, 638}";
}
);
layerId = UUID0;
name = Regular;
paths = (
{
closed = 1;
nodes = (
"240 34 LINE",
"173 129 OFFCURVE",
"145 198 OFFCURVE",
"145 269 CURVE SMOOTH",
"145 335 OFFCURVE",
"169 367 OFFCURVE",
"212 367 CURVE SMOOTH",
"259 367 OFFCURVE",
"300 328 OFFCURVE",
"348 245 CURVE",
"375 304 LINE",
"302 415 OFFCURVE",
"268 443 OFFCURVE",
"205 443 CURVE SMOOTH",
"116 443 OFFCURVE",
"65 386 OFFCURVE",
"65 284 CURVE SMOOTH",
"65 200 OFFCURVE",
"99 122 OFFCURVE",
"188 0 CURVE"
);
},
{
closed = 1;
nodes = (
"473 407 LINE",
"539 407 LINE",
"539 580 LINE",
"726 580 LINE",
"726 638 LINE",
"-22 638 LINE",
"-22 580 LINE",
"473 580 LINE"
);
},
{
closed = 1;
nodes = (
"428 28 OFFCURVE",
"638 42 OFFCURVE",
"638 245 CURVE SMOOTH",
"638 360 OFFCURVE",
"570 435 OFFCURVE",
"476 435 CURVE SMOOTH",
"379 435 OFFCURVE",
"304 356 OFFCURVE",
"304 195 CURVE SMOOTH",
"304 144 LINE",
"381 144 LINE",
"381 188 LINE SMOOTH",
"381 320 OFFCURVE",
"414 358 OFFCURVE",
"475 358 CURVE SMOOTH",
"535 358 OFFCURVE",
"557 321 OFFCURVE",
"557 258 CURVE SMOOTH",
"557 65 OFFCURVE",
"352 73 OFFCURVE",
"352 -86 CURVE SMOOTH",
"352 -170 OFFCURVE",
"410 -244 OFFCURVE",
"525 -244 CURVE SMOOTH",
"561 -244 OFFCURVE",
"606 -237 OFFCURVE",
"638 -226 CURVE",
"638 -146 LINE",
"608 -164 OFFCURVE",
"571 -176 OFFCURVE",
"534 -176 CURVE SMOOTH",
"461 -176 OFFCURVE",
"428 -137 OFFCURVE",
"428 -90 CURVE SMOOTH"
);
}
);
width = 704;
},
{
anchors = (
{
name = bottom;
position = "{278, -85}";
},
{
name = candra;
position = "{352, 638}";
},
{
name = top;
position = "{508, 638}";
}
);
layerId = "CD42366C-28E1-4C24-AB95-7D2C522D2B07";
name = Bold;
paths = (
{
closed = 1;
nodes = (
"262 34 LINE",
"195 129 OFFCURVE",
"167 198 OFFCURVE",
"167 269 CURVE SMOOTH",
"167 322 OFFCURVE",
"183 345 OFFCURVE",
"215 345 CURVE SMOOTH",
"261 345 OFFCURVE",
"305 298 OFFCURVE",
"348 223 CURVE",
"375 326 LINE",
"303 417 OFFCURVE",
"271 443 OFFCURVE",
"203 443 CURVE SMOOTH",
"102 443 OFFCURVE",
"43 386 OFFCURVE",
"43 281 CURVE SMOOTH",
"43 201 OFFCURVE",
"77 122 OFFCURVE",
"166 0 CURVE"
);
},
{
closed = 1;
nodes = (
"451 407 LINE",
"561 407 LINE",
"561 558 LINE",
"726 558 LINE",
"726 638 LINE",
"-22 638 LINE",
"-22 558 LINE",
"451 558 LINE"
);
},
{
closed = 1;
nodes = (
"450 36 OFFCURVE",
"660 49 OFFCURVE",
"660 243 CURVE SMOOTH",
"660 361 OFFCURVE",
"583 435 OFFCURVE",
"477 435 CURVE SMOOTH",
"367 435 OFFCURVE",
"282 356 OFFCURVE",
"282 195 CURVE SMOOTH",
"282 144 LINE",
"403 144 LINE",
"403 188 LINE SMOOTH",
"403 303 OFFCURVE",
"428 336 OFFCURVE",
"475 336 CURVE SMOOTH",
"519 336 OFFCURVE",
"535 308 OFFCURVE",
"535 256 CURVE SMOOTH",
"535 72 OFFCURVE",
"330 80 OFFCURVE",
"330 -77 CURVE SMOOTH",
"330 -165 OFFCURVE",
"395 -244 OFFCURVE",
"528 -244 CURVE SMOOTH",
"567 -244 OFFCURVE",
"622 -237 OFFCURVE",
"660 -226 CURVE",
"660 -124 LINE",
"624 -142 OFFCURVE",
"577 -154 OFFCURVE",
"539 -154 CURVE SMOOTH",
"474 -154 OFFCURVE",
"450 -120 OFFCURVE",
"450 -81 CURVE SMOOTH"
);
}
);
width = 704;
}
);
unicode = 090C;
},
{
color = 4;
glyphname = "llVocalic-deva";
lastChange = "2015-06-08 00:47:34 +0000";
layers = (
{
anchors = (
{
name = candra;
position = "{352, 638}";
},
{
name = top;
position = "{508, 638}";
}
);
layerId = UUID0;
name = Regular;
paths = (
{
closed = 1;
nodes = (
"240 34 LINE",
"173 129 OFFCURVE",
"145 198 OFFCURVE",
"145 269 CURVE SMOOTH",
"145 335 OFFCURVE",
"169 367 OFFCURVE",
"212 367 CURVE SMOOTH",
"259 367 OFFCURVE",
"300 328 OFFCURVE",
"348 245 CURVE",
"375 304 LINE",
"302 415 OFFCURVE",
"268 443 OFFCURVE",
"205 443 CURVE SMOOTH",
"116 443 OFFCURVE",
"65 386 OFFCURVE",
"65 284 CURVE SMOOTH",
"65 200 OFFCURVE",
"99 122 OFFCURVE",
"188 0 CURVE"
);
},
{
closed = 1;
nodes = (
"473 407 LINE",
"539 407 LINE",
"539 580 LINE",
"726 580 LINE",
"726 638 LINE",
"-22 638 LINE",
"-22 580 LINE",
"473 580 LINE"
);
},
{
closed = 1;
nodes = (
"499 61 OFFCURVE",
"638 96 OFFCURVE",
"638 250 CURVE SMOOTH",
"638 357 OFFCURVE",
"570 435 OFFCURVE",
"475 435 CURVE SMOOTH",
"379 435 OFFCURVE",
"304 355 OFFCURVE",
"304 195 CURVE SMOOTH",
"304 144 LINE",
"381 144 LINE",
"381 188 LINE SMOOTH",
"381 319 OFFCURVE",
"414 358 OFFCURVE",
"475 358 CURVE SMOOTH",
"533 358 OFFCURVE",
"557 323 OFFCURVE",
"557 262 CURVE SMOOTH",
"557 114 OFFCURVE",
"418 98 OFFCURVE",
"418 5 CURVE SMOOTH",
"418 -58 OFFCURVE",
"481 -93 OFFCURVE",
"607 -93 CURVE",
"607 -39 LINE",
"537 -39 OFFCURVE",
"499 -25 OFFCURVE",
"499 5 CURVE SMOOTH"
);
},
{
closed = 1;
nodes = (
"638 -181 LINE",
"609 -197 OFFCURVE",
"580 -205 OFFCURVE",
"551 -205 CURVE SMOOTH",
"506 -205 OFFCURVE",
"482 -187 OFFCURVE",
"482 -160 CURVE SMOOTH",
"482 -124 OFFCURVE",
"525 -93 OFFCURVE",
"571 -93 CURVE SMOOTH",
"607 -93 LINE",
"607 -58 LINE",
"481 -58 LINE",
"427 -76 OFFCURVE",
"407 -122 OFFCURVE",
"407 -163 CURVE SMOOTH",
"407 -239 OFFCURVE",
"475 -273 OFFCURVE",
"549 -273 CURVE SMOOTH",
"581 -273 OFFCURVE",
"610 -267 OFFCURVE",
"638 -255 CURVE"
);
}
);
width = 704;
},
{
anchors = (
{
name = candra;
position = "{352, 638}";
},
{
name = top;
position = "{508, 638}";
}
);
layerId = "CD42366C-28E1-4C24-AB95-7D2C522D2B07";
name = Bold;
paths = (
{
closed = 1;
nodes = (
"262 34 LINE",
"202 118 OFFCURVE",
"167 196 OFFCURVE",
"167 277 CURVE SMOOTH",
"167 326 OFFCURVE",
"180 345 OFFCURVE",
"212 345 CURVE SMOOTH",
"259 345 OFFCURVE",
"300 306 OFFCURVE",
"348 223 CURVE",
"397 304 LINE",
"315 415 OFFCURVE",
"276 443 OFFCURVE",
"204 443 CURVE SMOOTH",
"102 443 OFFCURVE",
"43 387 OFFCURVE",
"43 281 CURVE SMOOTH",
"43 201 OFFCURVE",
"77 122 OFFCURVE",
"166 0 CURVE"
);
},
{
closed = 1;
nodes = (
"451 407 LINE",
"561 407 LINE",
"561 558 LINE",
"726 558 LINE",
"726 638 LINE",
"-22 638 LINE",
"-22 558 LINE",
"451 558 LINE"
);
},
{
closed = 1;
nodes = (
"499 81 OFFCURVE",
"660 106 OFFCURVE",
"660 253 CURVE SMOOTH",
"660 355 OFFCURVE",
"583 435 OFFCURVE",
"475 435 CURVE SMOOTH",
"367 435 OFFCURVE",
"282 355 OFFCURVE",
"282 195 CURVE SMOOTH",
"282 144 LINE",
"403 144 LINE",
"403 188 LINE SMOOTH",
"403 302 OFFCURVE",
"428 336 OFFCURVE",
"475 336 CURVE SMOOTH",
"517 336 OFFCURVE",
"535 309 OFFCURVE",
"535 260 CURVE SMOOTH",
"535 125 OFFCURVE",
"396 117 OFFCURVE",
"396 23 CURVE SMOOTH",
"396 -48 OFFCURVE",
"474 -93 OFFCURVE",
"629 -93 CURVE",
"629 -17 LINE",
"547 -17 OFFCURVE",
"499 -4 OFFCURVE",
"499 26 CURVE SMOOTH"
);
},
{
closed = 1;
nodes = (
"660 -159 LINE",
"628 -175 OFFCURVE",
"593 -183 OFFCURVE",
"563 -183 CURVE SMOOTH",
"524 -183 OFFCURVE",
"504 -169 OFFCURVE",
"504 -146 CURVE SMOOTH",
"504 -117 OFFCURVE",
"537 -93 OFFCURVE",
"571 -93 CURVE SMOOTH",
"629 -93 LINE",
"629 -58 LINE",
"459 -58 LINE",
"405 -76 OFFCURVE",
"385 -122 OFFCURVE",
"385 -161 CURVE SMOOTH",
"385 -240 OFFCURVE",
"464 -273 OFFCURVE",
"551 -273 CURVE SMOOTH",
"588 -273 OFFCURVE",
"625 -267 OFFCURVE",
"660 -255 CURVE"
);
}
);
width = 704;
}
);
unicode = 0961;
},
{
color = 4;
glyphname = "e-deva";
lastChange = "2015-06-08 00:47:34 +0000";
layers = (
{
anchors = (
{
name = candra;
position = "{341, 638}";
},
{
name = top;
position = "{506, 638}";
}
);
layerId = UUID0;
name = Regular;
paths = (
{
closed = 1;
nodes = (
"470 -115 LINE",
"482 -85 OFFCURVE",
"488 -55 OFFCURVE",
"488 -27 CURVE SMOOTH",
"488 136 OFFCURVE",
"220 175 OFFCURVE",
"220 277 CURVE SMOOTH",
"220 588 LINE",
"132 588 LINE",
"132 306 LINE SMOOTH",
"132 97 OFFCURVE",
"398 107 OFFCURVE",
"398 -33 CURVE SMOOTH",
"398 -58 OFFCURVE",
"391 -87 OFFCURVE",
"379 -115 CURVE"
);
},
{
closed = 1;
nodes = (
"423 238 LINE",
"502 274 OFFCURVE",
"550 346 OFFCURVE",
"550 424 CURVE SMOOTH",
"550 588 LINE",
"462 588 LINE",
"462 416 LINE SMOOTH",
"462 367 OFFCURVE",
"435 334 OFFCURVE",
"379 318 CURVE"
);
},
{
closed = 1;
nodes = (
"-22 580 LINE",
"704 580 LINE",
"704 638 LINE",
"-22 638 LINE"
);
}
);
width = 682;
},
{
anchors = (
{
name = candra;
position = "{341, 638}";
},
{
name = top;
position = "{506, 638}";
}
);
layerId = "CD42366C-28E1-4C24-AB95-7D2C522D2B07";
name = Bold;
paths = (
{
closed = 1;
nodes = (
"492 -115 LINE",
"505 -85 OFFCURVE",
"510 -54 OFFCURVE",
"510 -31 CURVE SMOOTH",
"510 139 OFFCURVE",
"242 174 OFFCURVE",
"242 277 CURVE SMOOTH",
"242 566 LINE",
"110 566 LINE",
"110 306 LINE SMOOTH",
"110 96 OFFCURVE",
"376 109 OFFCURVE",
"376 -35 CURVE SMOOTH",
"376 -57 OFFCURVE",
"370 -87 OFFCURVE",
"357 -115 CURVE"
);
},
{
closed = 1;
nodes = (
"423 216 LINE",
"516 256 OFFCURVE",
"572 336 OFFCURVE",
"572 424 CURVE SMOOTH",
"572 566 LINE",
"440 566 LINE",
"440 416 LINE SMOOTH",
"440 367 OFFCURVE",
"413 334 OFFCURVE",
"357 318 CURVE"
);
},
{
closed = 1;
nodes = (
"-22 558 LINE",
"704 558 LINE",
"704 638 LINE",
"-22 638 LINE"
);
}
);
width = 682;
}
);
unicode = 090F;
},
{
color = 4;
glyphname = "oShort-deva";
lastChange = "2015-06-08 00:47:34 +0000";
layers = (
{
components = (
{
name = "aa-deva";
}
);
layerId = UUID0;
name = Regular;
paths = (
{
closed = 1;
nodes = (
"1115 610 LINE",
"1115 638 LINE SMOOTH",
"1115 727 OFFCURVE",
"1075 820 OFFCURVE",
"957 833 CURVE SMOOTH",
"821 848 OFFCURVE",
"787 863 OFFCURVE",
"787 928 CURVE",
"719 928 LINE",
"719 824 OFFCURVE",
"779 789 OFFCURVE",
"921 776 CURVE SMOOTH",
"1008 768 OFFCURVE",
"1038 725 OFFCURVE",
"1038 638 CURVE SMOOTH",
"1038 610 LINE"
);
}
);
width = 1254;
},
{
components = (
{
name = "aa-deva";
}
);
layerId = "CD42366C-28E1-4C24-AB95-7D2C522D2B07";
name = Bold;
paths = (
{
closed = 1;
nodes = (
"1137 610 LINE",
"1137 638 LINE SMOOTH",
"1137 727 OFFCURVE",
"1103 828 OFFCURVE",
"979 844 CURVE SMOOTH",
"846 861 OFFCURVE",
"809 866 OFFCURVE",
"809 928 CURVE",
"697 928 LINE",
"697 794 OFFCURVE",
"779 782 OFFCURVE",
"899 765 CURVE SMOOTH",
"963 756 OFFCURVE",
"1016 743 OFFCURVE",
"1016 638 CURVE SMOOTH",
"1016 610 LINE"
);
}
);
width = 1254;
}
);
unicode = 0912;
},
{
color = 6;
glyphname = "o-deva";
lastChange = "2015-06-08 00:47:16 +0000";
layers = (
{
components = (
{
name = "aa-deva";
}
);
layerId = UUID0;
name = Regular;
paths = (
{
closed = 1;
nodes = (
"1105 608 LINE",
"1105 638 LINE",
"922 928 LINE",
"918 928 LINE",
"846 887 LINE",
"846 883 LINE",
"1032 638 LINE",
"1032 608 LINE"
);
}
);
width = 1254;
},
{
components = (
{
name = "aa-deva";
}
);
layerId = "CD42366C-28E1-4C24-AB95-7D2C522D2B07";
name = Bold;
paths = (
{
closed = 1;
nodes = (
"1010 638 LINE",
"1010 608 LINE",
"1127 608 LINE",
"1127 638 LINE",
"933 928 LINE",
"929 928 LINE",
"824 865 LINE",
"824 861 LINE"
);
}
);
width = 1254;
}
);
unicode = 0913;
},
{
color = 6;
glyphname = "au-deva";
lastChange = "2015-06-08 00:47:23 +0000";
layers = (
{
components = (
{
name = "aa-deva";
}
);
layerId = UUID0;
name = Regular;
paths = (
{
closed = 1;
nodes = (
"1120 610 LINE",
"1120 638 LINE",
"1080 928 LINE",
"1076 928 LINE",
"991 906 LINE",
"991 902 LINE",
"1044 670 LINE",
"1040 670 LINE",
"796 873 LINE",
"792 873 LINE",
"727 811 LINE",
"727 807 LINE",
"1001 638 LINE",
"1001 610 LINE"
);
}
);
width = 1254;
},
{
components = (
{
name = "aa-deva";
}
);
layerId = "CD42366C-28E1-4C24-AB95-7D2C522D2B07";
name = Bold;
paths = (
{
closed = 1;
nodes = (
"979 610 LINE",
"1142 610 LINE",
"1142 638 LINE",
"1102 928 LINE",
"1098 928 LINE",
"976 906 LINE",
"976 902 LINE",
"1029 692 LINE",
"1025 692 LINE",
"815 887 LINE",
"811 887 LINE",
"705 789 LINE",
"705 785 LINE",
"979 638 LINE"
);
}
);
width = 1254;
}
);
unicode = 0914;
},
{
color = 4;
glyphname = "aw-deva";
lastChange = "2015-06-08 00:50:55 +0000";
layers = (
{
components = (
{
name = "aa-deva";
}
);
layerId = UUID0;
name = Regular;
paths = (
{
closed = 1;
nodes = (
"1052 605 LINE",
"1123 605 LINE",
"1123 708 LINE SMOOTH",
"1123 778 OFFCURVE",
"1110 863 OFFCURVE",
"1004 872 CURVE SMOOTH",
"901 880 OFFCURVE",
"879 883 OFFCURVE",
"879 928 CURVE",
"809 928 LINE",
"809 835 OFFCURVE",
"854 828 OFFCURVE",
"959 814 CURVE SMOOTH",
"1014 807 OFFCURVE",
"1052 796 OFFCURVE",
"1052 692 CURVE SMOOTH"
);
},
{
closed = 1;
nodes = (
"1089 605 LINE",
"1089 730 OFFCURVE",
"951 747 OFFCURVE",
"889 754 CURVE SMOOTH",
"781 767 OFFCURVE",
"733 773 OFFCURVE",
"733 848 CURVE",
"665 848 LINE",
"665 744 OFFCURVE",
"713 711 OFFCURVE",
"853 696 CURVE SMOOTH",
"951 686 OFFCURVE",
"1009 678 OFFCURVE",
"1009 605 CURVE"
);
}
);
width = 1254;
},
{
components = (
{
name = "aa-deva";
}
);
layerId = "CD42366C-28E1-4C24-AB95-7D2C522D2B07";
name = Bold;
paths = (
{
closed = 1;
nodes = (
"1030 605 LINE",
"1145 605 LINE",
"1145 708 LINE SMOOTH",
"1145 783 OFFCURVE",
"1132 875 OFFCURVE",
"1026 883 CURVE SMOOTH",
"923 891 OFFCURVE",
"901 892 OFFCURVE",
"901 928 CURVE",
"787 928 LINE",
"787 833 OFFCURVE",
"833 828 OFFCURVE",
"937 814 CURVE SMOOTH",
"991 807 OFFCURVE",
"1030 798 OFFCURVE",
"1030 692 CURVE SMOOTH"
);
},
{
closed = 1;
nodes = (
"1111 605 LINE",
"1111 730 OFFCURVE",
"973 746 OFFCURVE",
"911 754 CURVE SMOOTH",
"782 770 OFFCURVE",
"755 787 OFFCURVE",
"755 848 CURVE",
"643 848 LINE",
"643 710 OFFCURVE",
"707 691 OFFCURVE",
"831 674 CURVE SMOOTH",
"960 657 OFFCURVE",
"987 653 OFFCURVE",
"987 605 CURVE"
);
}
);
width = 1254;
}
);
unicode = 0975;
},
{
color = 4;
glyphname = "aaMatra-deva";
lastChange = "2015-06-08 00:57:43 +0000";
layers = (
{
anchors = (
{
name = bottom;
position = "{176, 0}";
},
{
name = candra;
position = "{26, 638}";
},
{
name = top;
position = "{176, 638}";
}
);
layerId = UUID0;
name = Regular;
paths = (
{
closed = 1;
nodes = (
"220 0 LINE",
"220 580 LINE",
"374 580 LINE",
"374 638 LINE",
"-22 638 LINE",
"-22 580 LINE",
"132 580 LINE",
"132 0 LINE"
);
}
);
width = 352;
},
{
anchors = (
{
name = bottom;
position = "{176, 0}";
},
{
name = candra;
position = "{-3, 638}";
},
{
name = top;
position = "{176, 638}";
}
);
layerId = "CD42366C-28E1-4C24-AB95-7D2C522D2B07";
name = Bold;
paths = (
{
closed = 1;
nodes = (
"242 0 LINE",
"242 558 LINE",
"374 558 LINE",
"374 638 LINE",
"-22 638 LINE",
"-22 558 LINE",
"110 558 LINE",
"110 0 LINE"
);
}
);
width = 352;
}
);
unicode = 093E;
},
{
color = 6;
glyphname = "iMatra-deva";
lastChange = "2015-07-15 05:15:08 +0000";
layers = (
{
anchors = (
{
name = candra;
position = "{836, 638}";
},
{
name = imatra;
position = "{836, 638}";
}
);
layerId = UUID0;
name = Regular;
paths = (
{
closed = 1;
nodes = (
"132 0 LINE",
"220 0 LINE",
"220 580 LINE",
"374 580 LINE",
"374 638 LINE",
"209 638 LINE",
"191 673 OFFCURVE",
"182 708 OFFCURVE",
"182 739 CURVE SMOOTH",
"182 819 OFFCURVE",
"243 862 OFFCURVE",
"359 862 CURVE SMOOTH",
"498 862 OFFCURVE",
"611 801 OFFCURVE",
"792 628 CURVE",
"880 628 LINE",
"682 836 OFFCURVE",
"518 928 OFFCURVE",
"344 928 CURVE SMOOTH",
"193 928 OFFCURVE",
"102 858 OFFCURVE",
"102 742 CURVE SMOOTH",
"102 703 OFFCURVE",
"112 667 OFFCURVE",
"131 638 CURVE",
"-22 638 LINE",
"-22 580 LINE",
"132 580 LINE"
);
}
);
width = 352;
},
{
anchors = (
{
name = candra;
position = "{933, 638}";
},
{
name = imatra;
position = "{836, 638}";
}
);
layerId = "CD42366C-28E1-4C24-AB95-7D2C522D2B07";
name = Bold;
paths = (
{
closed = 1;
nodes = (
"110 0 LINE",
"242 0 LINE",
"242 558 LINE",
"374 558 LINE",
"374 638 LINE",
"231 638 LINE",
"213 673 OFFCURVE",
"204 709 OFFCURVE",
"204 737 CURVE SMOOTH",
"204 806 OFFCURVE",
"257 840 OFFCURVE",
"360 840 CURVE SMOOTH",
"491 840 OFFCURVE",
"598 785 OFFCURVE",
"770 628 CURVE",
"902 628 LINE",
"690 842 OFFCURVE",
"521 928 OFFCURVE",
"342 928 CURVE SMOOTH",
"180 928 OFFCURVE",
"80 858 OFFCURVE",
"80 741 CURVE SMOOTH",
"80 704 OFFCURVE",
"90 667 OFFCURVE",
"109 638 CURVE",
"-22 638 LINE",
"-22 558 LINE",
"110 558 LINE"
);
}
);
width = 352;
}
);
unicode = 093F;
},
{
color = 6;
glyphname = "iiMatra-deva";
lastChange = "2015-07-15 05:15:08 +0000";
layers = (
{
anchors = (
{
name = candra;
position = "{352, 638}";
},
{
name = iimatra;
position = "{-187, 638}";
},
{
name = top;
position = "{176, 638}";
}
);
layerId = UUID0;
name = Regular;
paths = (
{
closed = 1;
nodes = (
"132 0 LINE",
"220 0 LINE",
"220 580 LINE",
"374 580 LINE",
"374 638 LINE",
"215 638 LINE",
"142 831 OFFCURVE",
"47 928 OFFCURVE",
"-74 928 CURVE SMOOTH",
"-179 928 OFFCURVE",
"-252 854 OFFCURVE",
"-252 746 CURVE SMOOTH",
"-252 706 OFFCURVE",
"-242 666 OFFCURVE",
"-223 628 CURVE",
"-150 628 LINE",
"-168 674 OFFCURVE",
"-178 712 OFFCURVE",
"-178 745 CURVE SMOOTH",
"-178 812 OFFCURVE",
"-136 858 OFFCURVE",
"-75 858 CURVE SMOOTH",
"11 858 OFFCURVE",
"82 782 OFFCURVE",
"131 638 CURVE",
"-22 638 LINE",
"-22 580 LINE",
"132 580 LINE"
);
}
);
width = 352;
},
{
anchors = (
{
name = candra;
position = "{352, 638}";
},
{
name = iimatra;
position = "{-187, 638}";
},
{
name = top;
position = "{176, 638}";
}
);
layerId = "CD42366C-28E1-4C24-AB95-7D2C522D2B07";
name = Bold;
paths = (
{
closed = 1;
nodes = (
"110 0 LINE",
"242 0 LINE",
"242 558 LINE",
"374 558 LINE",
"374 638 LINE",
"236 638 LINE",
"157 831 OFFCURVE",
"57 928 OFFCURVE",
"-76 928 CURVE SMOOTH",
"-192 928 OFFCURVE",
"-274 854 OFFCURVE",
"-274 745 CURVE SMOOTH",
"-274 707 OFFCURVE",
"-264 666 OFFCURVE",
"-245 628 CURVE",
"-128 628 LINE",
"-146 674 OFFCURVE",
"-156 714 OFFCURVE",
"-156 745 CURVE SMOOTH",
"-156 799 OFFCURVE",
"-125 836 OFFCURVE",
"-72 836 CURVE SMOOTH",
"0 836 OFFCURVE",
"66 767 OFFCURVE",
"109 638 CURVE",
"-22 638 LINE",
"-22 558 LINE",
"110 558 LINE"
);
}
);
width = 352;
}
);
unicode = 0940;
},
{
color = 6;
glyphname = "iiMatra_reph-deva";
lastChange = "2015-06-11 17:41:13 +0000";
layers = (
{
components = (
{
name = "iiMatra-deva";
}
);
layerId = UUID0;
name = Regular;
paths = (
{
closed = 1;
nodes = (
"233 874 OFFCURVE",
"165 845 OFFCURVE",
"119 794 CURVE",
"166 743 LINE",
"196 786 OFFCURVE",
"246 812 OFFCURVE",
"308 812 CURVE SMOOTH",
"342 812 OFFCURVE",
"372 804 OFFCURVE",
"396 791 CURVE",
"396 861 LINE",
"369 870 OFFCURVE",
"339 874 OFFCURVE",
"308 874 CURVE SMOOTH"
);
}
);
width = 352;
},
{
components = (
{
name = "iiMatra-deva";
}
);
layerId = "CD42366C-28E1-4C24-AB95-7D2C522D2B07";
name = Bold;
paths = (
{
closed = 1;
nodes = (
"207 898 OFFCURVE",
"153 853 OFFCURVE",
"114 806 CURVE",
"161 740 LINE",
"188 776 OFFCURVE",
"228 810 OFFCURVE",
"295 810 CURVE SMOOTH",
"327 810 OFFCURVE",
"362 802 OFFCURVE",
"395 789 CURVE",
"395 882 LINE",
"361 891 OFFCURVE",
"326 898 OFFCURVE",
"292 898 CURVE SMOOTH"
);
}
);
width = 352;
}
);
},
{
color = 6;
glyphname = "iiMatra_reph_anusvara-deva";
lastChange = "2015-06-11 17:41:39 +0000";
layers = (
{
components = (
{
name = "iiMatra-deva";
}
);
layerId = UUID0;
name = Regular;
paths = (
{
closed = 1;
nodes = (
"233 874 OFFCURVE",
"165 845 OFFCURVE",
"119 794 CURVE",
"166 743 LINE",
"196 786 OFFCURVE",
"246 812 OFFCURVE",
"308 812 CURVE SMOOTH",
"342 812 OFFCURVE",
"372 804 OFFCURVE",
"396 791 CURVE",
"396 861 LINE",
"369 870 OFFCURVE",
"339 874 OFFCURVE",
"308 874 CURVE SMOOTH"
);
},
{
closed = 1;
nodes = (
"264 766 LINE",
"352 766 LINE",
"352 678 LINE",
"264 678 LINE"
);
}
);
width = 352;
},
{
components = (
{
name = "iiMatra-deva";
}
);
layerId = "CD42366C-28E1-4C24-AB95-7D2C522D2B07";
name = Bold;
paths = (
{
closed = 1;
nodes = (
"241 665 LINE",
"351 665 LINE",
"351 775 LINE",
"241 775 LINE"
);
},
{
closed = 1;
nodes = (
"215 891 OFFCURVE",
"151 866 OFFCURVE",
"107 822 CURVE",
"154 749 LINE",
"181 785 OFFCURVE",
"228 807 OFFCURVE",
"285 807 CURVE SMOOTH",
"327 807 OFFCURVE",
"365 799 OFFCURVE",
"395 786 CURVE",
"395 878 LINE",
"361 887 OFFCURVE",
"324 891 OFFCURVE",
"285 891 CURVE SMOOTH"
);
}
);
width = 352;
}
);
},
{
color = 6;
glyphname = "oShortMatra-deva";
lastChange = "2015-06-11 17:41:52 +0000";
layers = (
{
layerId = UUID0;
name = Regular;
paths = (
{
closed = 1;
nodes = (
"132 0 LINE",
"220 0 LINE",
"220 580 LINE",
"374 580 LINE",
"374 638 LINE",
"213 638 LINE",
"213 727 OFFCURVE",
"173 820 OFFCURVE",
"55 833 CURVE SMOOTH",
"-81 848 OFFCURVE",
"-115 863 OFFCURVE",
"-115 928 CURVE",
"-183 928 LINE",
"-183 824 OFFCURVE",
"-123 789 OFFCURVE",
"19 776 CURVE SMOOTH",
"106 768 OFFCURVE",
"136 725 OFFCURVE",
"136 638 CURVE",
"-22 638 LINE",
"-22 580 LINE",
"132 580 LINE"
);
}
);
width = 352;
},
{
layerId = "CD42366C-28E1-4C24-AB95-7D2C522D2B07";
name = Bold;
paths = (
{
closed = 1;
nodes = (
"110 0 LINE",
"242 0 LINE",
"242 558 LINE",
"374 558 LINE",
"374 638 LINE",
"235 638 LINE",
"235 732 OFFCURVE",
"195 831 OFFCURVE",
"77 844 CURVE SMOOTH",
"-59 859 OFFCURVE",
"-93 871 OFFCURVE",
"-93 928 CURVE",
"-205 928 LINE",
"-205 816 OFFCURVE",
"-145 778 OFFCURVE",
"-3 765 CURVE SMOOTH",
"84 757 OFFCURVE",
"114 718 OFFCURVE",
"114 638 CURVE",
"-22 638 LINE",
"-22 558 LINE",
"110 558 LINE"
);
}
);
width = 352;
}
);
unicode = 094A;
},
{
color = 6;
glyphname = "oMatra-deva";
lastChange = "2015-06-11 17:42:01 +0000";
layers = (
{
layerId = UUID0;
name = Regular;
paths = (
{
closed = 1;
nodes = (
"132 0 LINE",
"220 0 LINE",
"220 580 LINE",
"374 580 LINE",
"374 638 LINE",
"203 638 LINE",
"20 928 LINE",
"16 928 LINE",
"-56 887 LINE",
"-56 883 LINE",
"130 638 LINE",
"-22 638 LINE",
"-22 580 LINE",
"132 580 LINE"
);
}
);
width = 352;
},
{
layerId = "CD42366C-28E1-4C24-AB95-7D2C522D2B07";
name = Bold;
paths = (
{
closed = 1;
nodes = (
"110 0 LINE",
"242 0 LINE",
"242 558 LINE",
"374 558 LINE",
"374 638 LINE",
"225 638 LINE",
"31 928 LINE",
"27 928 LINE",
"-78 865 LINE",
"-78 861 LINE",
"108 638 LINE",
"-22 638 LINE",
"-22 558 LINE",
"110 558 LINE"
);
}
);
width = 352;
}
);
unicode = 094B;
},
{
color = 6;
glyphname = "auMatra-deva";
lastChange = "2015-06-11 17:43:07 +0000";
layers = (
{
layerId = UUID0;
name = Regular;
paths = (
{
closed = 1;
nodes = (
"132 0 LINE",
"220 0 LINE",
"220 580 LINE",
"374 580 LINE",
"374 638 LINE",
"218 638 LINE",
"178 928 LINE",
"174 928 LINE",
"89 906 LINE",
"89 902 LINE",
"142 670 LINE",
"138 670 LINE",
"-106 873 LINE",
"-110 873 LINE",
"-175 811 LINE",
"-175 807 LINE",
"99 638 LINE",
"-22 638 LINE",
"-22 580 LINE",
"132 580 LINE"
);
}
);
width = 352;
},
{
layerId = "CD42366C-28E1-4C24-AB95-7D2C522D2B07";
name = Bold;
paths = (
{
closed = 1;
nodes = (
"110 0 LINE",
"242 0 LINE",
"242 558 LINE",
"374 558 LINE",
"374 638 LINE",
"240 638 LINE",
"200 928 LINE",
"196 928 LINE",
"74 906 LINE",
"74 902 LINE",
"127 692 LINE",
"123 692 LINE",
"-87 887 LINE",
"-91 887 LINE",
"-197 789 LINE",
"-197 785 LINE",
"77 638 LINE",
"-22 638 LINE",
"-22 558 LINE",
"110 558 LINE"
);
}
);
width = 352;
}
);
unicode = 094C;
},
{
color = 6;
glyphname = "auMatra_anusvara-deva";
lastChange = "2015-06-11 17:43:17 +0000";
layers = (
{
components = (
{
name = aisigndeva_anusvaradeva;
transform = "{1, 0, 0, 1, -198, 0}";
}
);
layerId = UUID0;
name = Regular;
paths = (
{
closed = 1;
nodes = (
"220 0 LINE",
"220 580 LINE",
"374 580 LINE",
"374 638 LINE",
"-22 638 LINE",
"-22 580 LINE",
"132 580 LINE",
"132 0 LINE"
);
}
);
width = 352;
},
{
components = (
{
name = aisigndeva_anusvaradeva;
transform = "{1, 0, 0, 1, -198, 0}";
},
{
name = "aaMatra-deva";
}
);
layerId = "CD42366C-28E1-4C24-AB95-7D2C522D2B07";
name = Bold;
width = 352;
}
);
},
{
color = 6;
glyphname = "auMatra_reph-deva";
lastChange = "2015-06-11 17:43:24 +0000";
layers = (
{
components = (
{
name = aisign_ra_virama.alt1;
transform = "{1, 0, 0, 1, -219, 0}";
}
);
layerId = UUID0;
name = Regular;
paths = (
{
closed = 1;
nodes = (
"220 0 LINE",
"220 580 LINE",
"374 580 LINE",
"374 638 LINE",
"-22 638 LINE",
"-22 580 LINE",
"132 580 LINE",
"132 0 LINE"
);
}
);
width = 352;
},
{
components = (
{
name = aisign_ra_virama.alt1;
transform = "{1, 0, 0, 1, -219, 0}";
},
{
name = "aaMatra-deva";
}
);
layerId = "CD42366C-28E1-4C24-AB95-7D2C522D2B07";
name = Bold;
width = 352;
}
);
},
{
color = 6;
glyphname = "auMatra_reph_anusvara-deva";
lastChange = "2015-06-11 17:43:31 +0000";
layers = (
{
components = (
{
name = aisign_ra_virama_anusvara;
transform = "{1, 0, 0, 1, -220, 0}";
}
);
layerId = UUID0;
name = Regular;
paths = (
{
closed = 1;
nodes = (
"220 0 LINE",
"220 580 LINE",
"374 580 LINE",
"374 638 LINE",
"-22 638 LINE",
"-22 580 LINE",
"132 580 LINE",
"132 0 LINE"
);
}
);
width = 352;
},
{
components = (
{
name = aisign_ra_virama_anusvara;
transform = "{1, 0, 0, 1, -220, 0}";
},
{
name = "aaMatra-deva";
}
);
layerId = "CD42366C-28E1-4C24-AB95-7D2C522D2B07";
name = Bold;
width = 352;
}
);
},
{
color = 4;
glyphname = "prishthaMatraE-deva";
lastChange = "2015-06-11 17:43:40 +0000";
layers = (
{
layerId = UUID0;
name = Regular;
paths = (
{
closed = 1;
nodes = (
"220 0 LINE",
"220 580 LINE",
"374 580 LINE",
"374 638 LINE",
"132 638 LINE",
"132 0 LINE"
);
}
);
width = 352;
},
{
layerId = "CD42366C-28E1-4C24-AB95-7D2C522D2B07";
name = Bold;
paths = (
{
closed = 1;
nodes = (
"242 0 LINE",
"242 558 LINE",
"374 558 LINE",
"374 638 LINE",
"110 638 LINE",
"110 0 LINE"
);
}
);
width = 352;
}
);
unicode = 094E;
},
{
color = 6;
glyphname = "ooeMatra-deva";
lastChange = "2015-06-11 17:43:51 +0000";
layers = (
{
layerId = UUID0;
name = Regular;
paths = (
{
closed = 1;
nodes = (
"220 0 LINE",
"220 580 LINE",
"374 580 LINE",
"374 638 LINE",
"220 638 LINE",
"220 812 LINE",
"132 812 LINE",
"132 638 LINE",
"-22 638 LINE",
"-22 580 LINE",
"132 580 LINE",
"132 0 LINE"
);
}
);
width = 352;
},
{
layerId = "CD42366C-28E1-4C24-AB95-7D2C522D2B07";
name = Bold;
paths = (
{
closed = 1;
nodes = (
"242 0 LINE",
"242 558 LINE",
"374 558 LINE",
"374 638 LINE",
"242 638 LINE",
"242 812 LINE",
"110 812 LINE",
"110 638 LINE",
"-22 638 LINE",
"-22 558 LINE",
"110 558 LINE",
"110 0 LINE"
);
}
);
width = 352;
}
);
unicode = 093B;
},
{
color = 6;
glyphname = "awVowel-deva";
lastChange = "2015-06-11 17:44:01 +0000";
layers = (
{
layerId = UUID0;
name = Regular;
paths = (
{
closed = 1;
nodes = (
"150 605 LINE",
"221 605 LINE",
"221 708 LINE SMOOTH",
"221 778 OFFCURVE",
"208 863 OFFCURVE",
"102 872 CURVE SMOOTH",
"-1 880 OFFCURVE",
"-23 883 OFFCURVE",
"-23 928 CURVE",
"-93 928 LINE",
"-93 835 OFFCURVE",
"-48 828 OFFCURVE",
"57 814 CURVE SMOOTH",
"112 807 OFFCURVE",
"150 796 OFFCURVE",
"150 692 CURVE SMOOTH"
);
},
{
closed = 1;
nodes = (
"187 605 LINE",
"187 730 OFFCURVE",
"49 747 OFFCURVE",
"-13 754 CURVE SMOOTH",
"-121 767 OFFCURVE",
"-169 773 OFFCURVE",
"-169 848 CURVE",
"-237 848 LINE",
"-237 744 OFFCURVE",
"-189 711 OFFCURVE",
"-49 696 CURVE SMOOTH",
"49 686 OFFCURVE",
"107 678 OFFCURVE",
"107 605 CURVE"
);
},
{
closed = 1;
nodes = (
"220 580 LINE",
"374 580 LINE",
"374 638 LINE",
"-22 638 LINE",
"-22 580 LINE",
"132 580 LINE",
"132 0 LINE",
"220 0 LINE"
);
}
);
width = 352;
},
{
layerId = "CD42366C-28E1-4C24-AB95-7D2C522D2B07";
name = Bold;
paths = (
{
closed = 1;
nodes = (
"242 558 LINE",
"374 558 LINE",
"374 638 LINE",
"-22 638 LINE",
"-22 558 LINE",
"110 558 LINE",
"110 0 LINE",
"242 0 LINE"
);
},
{
closed = 1;
nodes = (
"127 605 LINE",
"242 605 LINE",
"242 708 LINE SMOOTH",
"242 783 OFFCURVE",
"229 875 OFFCURVE",
"123 883 CURVE SMOOTH",
"20 891 OFFCURVE",
"-2 892 OFFCURVE",
"-2 928 CURVE",
"-116 928 LINE",
"-116 833 OFFCURVE",
"-70 828 OFFCURVE",
"34 814 CURVE SMOOTH",
"88 807 OFFCURVE",
"127 798 OFFCURVE",
"127 692 CURVE SMOOTH"
);
},
{
closed = 1;
nodes = (
"208 605 LINE",
"208 730 OFFCURVE",
"70 746 OFFCURVE",
"8 754 CURVE SMOOTH",
"-121 770 OFFCURVE",
"-148 787 OFFCURVE",
"-148 848 CURVE",
"-260 848 LINE",
"-260 710 OFFCURVE",
"-196 691 OFFCURVE",
"-72 674 CURVE SMOOTH",
"57 657 OFFCURVE",
"84 653 OFFCURVE",
"84 605 CURVE"
);
}
);
width = 352;
}
);
unicode = 094F;
},
{
color = 6;
glyphname = "ka-deva";
lastChange = "2015-06-11 17:44:20 +0000";
layers = (
{
anchors = (
{
name = bottom;
position = "{440, 0}";
},
{
name = candra;
position = "{440, 638}";
},
{
name = top;
position = "{440, 638}";
}
);
layerId = UUID0;
name = Regular;
paths = (
{
closed = 1;
nodes = (
"302 86 OFFCURVE",
"368 134 OFFCURVE",
"418 220 CURVE",
"418 330 LINE",
"363 224 OFFCURVE",
"295 163 OFFCURVE",
"231 163 CURVE SMOOTH",
"178 163 OFFCURVE",
"146 206 OFFCURVE",
"146 279 CURVE SMOOTH",
"146 356 OFFCURVE",
"182 401 OFFCURVE",
"244 401 CURVE SMOOTH",
"263 401 OFFCURVE",
"281 397 OFFCURVE",
"310 386 CURVE",
"310 460 LINE",
"286 472 OFFCURVE",
"265 477 OFFCURVE",
"240 477 CURVE SMOOTH",
"141 477 OFFCURVE",
"65 395 OFFCURVE",
"65 287 CURVE SMOOTH",
"65 177 OFFCURVE",
"143 86 OFFCURVE",
"235 86 CURVE SMOOTH"
);
},
{
closed = 1;
nodes = (
"710 83 LINE",
"784 161 OFFCURVE",
"815 212 OFFCURVE",
"815 280 CURVE SMOOTH",
"815 389 OFFCURVE",
"737 479 OFFCURVE",
"645 479 CURVE SMOOTH",
"577 479 OFFCURVE",
"511 431 OFFCURVE",
"462 345 CURVE",
"462 235 LINE",
"514 339 OFFCURVE",
"584 402 OFFCURVE",
"648 402 CURVE SMOOTH",
"701 402 OFFCURVE",
"734 359 OFFCURVE",
"734 289 CURVE SMOOTH",
"734 233 OFFCURVE",
"713 194 OFFCURVE",
"647 132 CURVE"
);
},
{
closed = 1;
nodes = (
"396 0 LINE",
"484 0 LINE",
"484 580 LINE",
"902 580 LINE",
"902 638 LINE",
"-22 638 LINE",
"-22 580 LINE",
"396 580 LINE"
);
}
);
width = 880;
},
{
anchors = (
{
name = bottom;
position = "{440, 0}";
},
{
name = candra;
position = "{440, 638}";
},
{
name = top;
position = "{440, 638}";
}
);
layerId = "CD42366C-28E1-4C24-AB95-7D2C522D2B07";
name = Bold;
paths = (
{
closed = 1;
nodes = (
"301 86 OFFCURVE",
"370 136 OFFCURVE",
"418 220 CURVE",
"418 352 LINE",
"363 245 OFFCURVE",
"292 185 OFFCURVE",
"234 185 CURVE SMOOTH",
"191 185 OFFCURVE",
"168 219 OFFCURVE",
"168 279 CURVE SMOOTH",
"168 342 OFFCURVE",
"194 379 OFFCURVE",
"249 379 CURVE SMOOTH",
"267 379 OFFCURVE",
"293 375 OFFCURVE",
"332 364 CURVE",
"332 460 LINE",
"301 472 OFFCURVE",
"272 477 OFFCURVE",
"243 477 CURVE SMOOTH",
"127 477 OFFCURVE",
"43 395 OFFCURVE",
"43 287 CURVE SMOOTH",
"43 177 OFFCURVE",
"130 86 OFFCURVE",
"228 86 CURVE SMOOTH"
);
},
{
closed = 1;
nodes = (
"710 83 LINE",
"800 161 OFFCURVE",
"837 212 OFFCURVE",
"837 281 CURVE SMOOTH",
"837 389 OFFCURVE",
"747 479 OFFCURVE",
"648 479 CURVE SMOOTH",
"572 479 OFFCURVE",
"509 427 OFFCURVE",
"462 345 CURVE",
"462 213 LINE",
"512 312 OFFCURVE",
"578 380 OFFCURVE",
"652 380 CURVE SMOOTH",
"686 380 OFFCURVE",
"717 366 OFFCURVE",
"717 303 CURVE SMOOTH",
"717 251 OFFCURVE",
"696 211 OFFCURVE",
"625 154 CURVE"
);
},
{
closed = 1;
nodes = (
"374 0 LINE",
"506 0 LINE",
"506 558 LINE",
"902 558 LINE",
"902 638 LINE",
"-22 638 LINE",
"-22 558 LINE",
"374 558 LINE"
);
}
);
width = 880;
}
);
unicode = 0915;
},
{
color = 4;
glyphname = "kha-deva";
lastChange = "2015-06-11 17:46:08 +0000";
layers = (
{
anchors = (
{
name = bottom;
position = "{856, 0}";
},
{
name = candra;
position = "{515, 638}";
},
{
name = nukta;
position = "{111, 76}";
},
{
name = top;
position = "{856, 638}";
}
);
layerId = UUID0;
name = Regular;
paths = (
{
closed = 1;
nodes = (
"647 -11 OFFCURVE",
"783 45 OFFCURVE",
"868 148 CURVE",
"868 223 LINE",
"742 105 OFFCURVE",
"649 54 OFFCURVE",
"544 54 CURVE SMOOTH",
"397 54 OFFCURVE",
"247 164 OFFCURVE",
"176 291 CURVE",
"182 260 LINE",
"291 265 OFFCURVE",
"374 346 OFFCURVE",
"374 449 CURVE SMOOTH",
"374 498 OFFCURVE",
"355 545 OFFCURVE",
"320 580 CURVE",
"462 580 LINE",
"462 638 LINE",
"-22 638 LINE",
"-22 580 LINE",
"244 580 LINE",
"281 534 OFFCURVE",
"296 499 OFFCURVE",
"296 457 CURVE SMOOTH",
"296 382 OFFCURVE",
"245 330 OFFCURVE",
"169 321 CURVE",
"199 309 LINE",
"126 425 LINE",
"92 425 OFFCURVE",
"67 391 OFFCURVE",
"67 357 CURVE SMOOTH",
"67 331 OFFCURVE",
"85 293 OFFCURVE",
"107 258 CURVE SMOOTH",
"194 119 OFFCURVE",
"370 -11 OFFCURVE",
"537 -11 CURVE SMOOTH"
);
},
{
closed = 1;
nodes = (
"716 202 OFFCURVE",
"791 240 OFFCURVE",
"846 304 CURVE",
"846 408 LINE",
"783 319 OFFCURVE",
"708 269 OFFCURVE",
"638 269 CURVE SMOOTH",
"580 269 OFFCURVE",
"543 303 OFFCURVE",
"543 355 CURVE SMOOTH",
"543 413 OFFCURVE",
"588 449 OFFCURVE",
"661 449 CURVE SMOOTH",
"685 449 OFFCURVE",
"704 445 OFFCURVE",
"727 434 CURVE",
"727 501 LINE",
"701 511 OFFCURVE",
"671 517 OFFCURVE",
"643 517 CURVE SMOOTH",
"546 517 OFFCURVE",
"469 448 OFFCURVE",
"469 361 CURVE SMOOTH",
"469 273 OFFCURVE",
"547 202 OFFCURVE",
"644 202 CURVE SMOOTH"
);
},
{
closed = 1;
nodes = (
"814 0 LINE",
"902 0 LINE",
"902 580 LINE",
"1056 580 LINE",
"1056 638 LINE",
"352 638 LINE",
"352 580 LINE",
"814 580 LINE"
);
}
);
width = 1034;
},
{
anchors = (
{
name = bottom;
position = "{856, 0}";
},
{
name = candra;
position = "{515, 638}";
},
{
name = nukta;
position = "{111, 76}";
},
{
name = top;
position = "{856, 638}";
}
);
layerId = "CD42366C-28E1-4C24-AB95-7D2C522D2B07";
name = Bold;
paths = (
{
closed = 1;
nodes = (
"648 -11 OFFCURVE",
"783 45 OFFCURVE",
"868 148 CURVE",
"868 245 LINE",
"742 127 OFFCURVE",
"649 76 OFFCURVE",
"544 76 CURVE SMOOTH",
"406 76 OFFCURVE",
"265 166 OFFCURVE",
"198 269 CURVE",
"204 238 LINE",
"312 243 OFFCURVE",
"396 337 OFFCURVE",
"396 443 CURVE SMOOTH",
"396 494 OFFCURVE",
"377 528 OFFCURVE",
"342 558 CURVE",
"462 558 LINE",
"462 638 LINE",
"-22 638 LINE",
"-22 558 LINE",
"222 558 LINE",
"259 520 OFFCURVE",
"274 492 OFFCURVE",
"274 456 CURVE SMOOTH",
"274 395 OFFCURVE",
"232 351 OFFCURVE",
"169 343 CURVE",
"199 331 LINE",
"126 447 LINE",
"79 447 OFFCURVE",
"45 400 OFFCURVE",
"45 360 CURVE SMOOTH",
"45 331 OFFCURVE",
"62 294 OFFCURVE",
"85 258 CURVE SMOOTH",
"170 125 OFFCURVE",
"359 -11 OFFCURVE",
"535 -11 CURVE SMOOTH"
);
},
{
closed = 1;
nodes = (
"723 202 OFFCURVE",
"794 244 OFFCURVE",
"846 304 CURVE",
"846 430 LINE",
"783 341 OFFCURVE",
"707 291 OFFCURVE",
"640 291 CURVE SMOOTH",
"592 291 OFFCURVE",
"565 316 OFFCURVE",
"565 355 CURVE SMOOTH",
"565 399 OFFCURVE",
"601 427 OFFCURVE",
"662 427 CURVE SMOOTH",
"685 427 OFFCURVE",
"704 423 OFFCURVE",
"727 412 CURVE",
"727 501 LINE",
"701 511 OFFCURVE",
"672 517 OFFCURVE",
"640 517 CURVE SMOOTH",
"534 517 OFFCURVE",
"447 449 OFFCURVE",
"447 358 CURVE SMOOTH",
"447 276 OFFCURVE",
"517 202 OFFCURVE",
"634 202 CURVE SMOOTH"
);
},
{
closed = 1;
nodes = (
"792 0 LINE",
"924 0 LINE",
"924 558 LINE",
"1056 558 LINE",
"1056 638 LINE",
"352 638 LINE",
"352 558 LINE",
"792 558 LINE"
);
}
);
width = 1034;
}
);
unicode = 0916;
},
{
color = 4;
glyphname = "ga-deva";
lastChange = "2015-07-15 05:15:08 +0000";
layers = (
{
anchors = (
{
name = bottom;
position = "{528, 0}";
},
{
name = candra;
position = "{352, 638}";
},
{
name = nukta;
position = "{153, 69}";
},
{
name = top;
position = "{528, 638}";
}
);
layerId = UUID0;
name = Regular;
paths = (
{
closed = 1;
nodes = (
"484 0 LINE",
"572 0 LINE",
"572 580 LINE",
"726 580 LINE",
"726 638 LINE",
"-22 638 LINE",
"-22 580 LINE",
"484 580 LINE"
);
},
{
closed = 1;
nodes = (
"220 177 LINE",
"242 180 OFFCURVE",
"276 194 OFFCURVE",
"286 209 CURVE",
"286 595 LINE",
"207 595 LINE",
"207 314 LINE",
"66 314 LINE",
"66 263 LINE"
);
}
);
width = 704;
},
{
anchors = (
{
name = bottom;
position = "{528, 0}";
},
{
name = candra;
position = "{352, 638}";
},
{
name = nukta;
position = "{153, 69}";
},
{
name = top;
position = "{528, 638}";
}
);
layerId = "CD42366C-28E1-4C24-AB95-7D2C522D2B07";
name = Bold;
paths = (
{
closed = 1;
nodes = (
"462 0 LINE",
"594 0 LINE",
"594 558 LINE",
"726 558 LINE",
"726 638 LINE",
"-22 638 LINE",
"-22 558 LINE",
"462 558 LINE"
);
},
{
closed = 1;
nodes = (
"220 155 LINE",
"249 159 OFFCURVE",
"292 178 OFFCURVE",
"308 198 CURVE",
"308 573 LINE",
"185 573 LINE",
"185 325 LINE",
"44 325 LINE",
"44 252 LINE"
);
}
);
width = 704;
}
);
unicode = 0917;
},
{
color = 4;
glyphname = "gha-deva";
lastChange = "2015-07-15 05:15:08 +0000";
layers = (
{
anchors = (
{
name = bottom;
position = "{572, 0}";
},
{
name = candra;
position = "{374, 638}";
},
{
name = nukta;
position = "{100, 0}";
},
{
name = top;
position = "{572, 638}";
}
);
layerId = UUID0;
name = Regular;
paths = (
{
closed = 1;
nodes = (
"379 54 OFFCURVE",
"484 109 OFFCURVE",
"572 213 CURVE",
"572 308 LINE",
"451 175 OFFCURVE",
"363 122 OFFCURVE",
"267 122 CURVE SMOOTH",
"192 122 OFFCURVE",
"145 155 OFFCURVE",
"145 208 CURVE SMOOTH",
"145 276 OFFCURVE",
"216 335 OFFCURVE",
"298 335 CURVE SMOOTH",
"352 335 LINE",
"352 371 LINE",
"228 371 LINE",
"127 352 OFFCURVE",
"66 289 OFFCURVE",
"66 210 CURVE SMOOTH",
"66 120 OFFCURVE",
"149 54 OFFCURVE",
"269 54 CURVE SMOOTH"
);
},
{
closed = 1;
nodes = (
"352 345 LINE",
"352 394 LINE",
"294 394 LINE SMOOTH",
"205 394 OFFCURVE",
"149 431 OFFCURVE",
"149 494 CURVE SMOOTH",
"149 544 OFFCURVE",
"187 580 OFFCURVE",
"247 580 CURVE",
"247 603 LINE",
"206 603 LINE SMOOTH",
"122 603 OFFCURVE",
"66 553 OFFCURVE",
"66 486 CURVE SMOOTH",
"66 398 OFFCURVE",
"158 345 OFFCURVE",
"296 345 CURVE"
);
},
{
closed = 1;
nodes = (
"528 0 LINE",
"616 0 LINE",
"616 580 LINE",
"770 580 LINE",
"770 638 LINE",
"-22 638 LINE",
"-22 580 LINE",
"528 580 LINE"
);
}
);
width = 748;
},
{
anchors = (
{
name = bottom;
position = "{572, 0}";
},
{
name = candra;
position = "{374, 638}";
},
{
name = nukta;
position = "{100, 0}";
},
{
name = top;
position = "{572, 638}";
}
);
layerId = "CD42366C-28E1-4C24-AB95-7D2C522D2B07";
name = Bold;
paths = (
{
closed = 1;
nodes = (
"385 54 OFFCURVE",
"486 112 OFFCURVE",
"572 213 CURVE",
"572 330 LINE",
"451 197 OFFCURVE",
"362 144 OFFCURVE",
"268 144 CURVE SMOOTH",
"205 144 OFFCURVE",
"167 168 OFFCURVE",
"167 214 CURVE SMOOTH",
"167 272 OFFCURVE",
"228 324 OFFCURVE",
"298 324 CURVE SMOOTH",
"374 324 LINE",
"374 382 LINE",
"228 382 LINE",
"113 362 OFFCURVE",
"44 293 OFFCURVE",
"44 213 CURVE SMOOTH",
"44 120 OFFCURVE",
"136 54 OFFCURVE",
"265 54 CURVE SMOOTH"
);
},
{
closed = 1;
nodes = (
"374 334 LINE",
"374 405 LINE",
"294 405 LINE SMOOTH",
"219 405 OFFCURVE",
"171 439 OFFCURVE",
"171 491 CURVE SMOOTH",
"171 532 OFFCURVE",
"200 558 OFFCURVE",
"247 558 CURVE",
"247 581 LINE",
"206 581 LINE SMOOTH",
"108 581 OFFCURVE",
"44 539 OFFCURVE",
"44 473 CURVE SMOOTH",
"44 390 OFFCURVE",
"146 334 OFFCURVE",
"296 334 CURVE"
);
},
{
closed = 1;
nodes = (
"-22 558 LINE",
"506 558 LINE",
"506 0 LINE",
"638 0 LINE",
"638 558 LINE",
"770 558 LINE",
"770 638 LINE",
"-22 638 LINE"
);
}
);
width = 748;
}
);
unicode = 0918;
},
{
color = 4;
glyphname = "nga-deva";
lastChange = "2015-07-15 05:15:08 +0000";
layers = (
{
anchors = (
{
name = bottom;
position = "{331, 0}";
},
{
name = candra;
position = "{372, 638}";
},
{
name = nukta;
position = "{42, 20}";
},
{
name = top;
position = "{418, 638}";
}
);
components = (
{
name = "dda-deva";
}
);
layerId = UUID0;
name = Regular;
paths = (
{
closed = 1;
nodes = (
"726 580 LINE",
"726 638 LINE",
"572 638 LINE",
"572 580 LINE"
);
},
{
closed = 1;
nodes = (
"643 288 OFFCURVE",
"674 316 OFFCURVE",
"682 348 CURVE",
"674 380 OFFCURVE",
"643 408 OFFCURVE",
"616 416 CURVE",
"589 408 OFFCURVE",
"558 380 OFFCURVE",
"550 348 CURVE",
"558 316 OFFCURVE",
"589 288 OFFCURVE",
"616 280 CURVE"
);
}
);
width = 704;
},
{
anchors = (
{
name = bottom;
position = "{331, 0}";
},
{
name = candra;
position = "{372, 638}";
},
{
name = nukta;
position = "{42, 20}";
},
{
name = top;
position = "{418, 638}";
}
);
components = (
{
name = "dda-deva";
}
);
layerId = "CD42366C-28E1-4C24-AB95-7D2C522D2B07";
name = Bold;
paths = (
{
closed = 1;
nodes = (
"726 558 LINE",
"726 638 LINE",
"572 638 LINE",
"572 558 LINE"
);
},
{
closed = 1;
nodes = (
"647 278 OFFCURVE",
"684 311 OFFCURVE",
"693 348 CURVE",
"684 385 OFFCURVE",
"647 418 OFFCURVE",
"616 427 CURVE",
"584 418 OFFCURVE",
"548 385 OFFCURVE",
"539 348 CURVE",
"548 311 OFFCURVE",
"584 278 OFFCURVE",
"616 269 CURVE"
);
}
);
width = 704;
}
);
unicode = 0919;
},
{
color = 4;
glyphname = "ca-deva";
lastChange = "2015-07-15 05:15:08 +0000";
layers = (
{
anchors = (
{
name = bottom;
position = "{572, 0}";
},
{
name = candra;
position = "{404, 638}";
},
{
name = nukta;
position = "{110, 40}";
},
{
name = top;
position = "{572, 638}";
}
);
layerId = UUID0;
name = Regular;
paths = (
{
closed = 1;
nodes = (
"432 79 OFFCURVE",
"521 155 OFFCURVE",
"577 284 CURVE",
"547 346 LINE",
"482 219 OFFCURVE",
"397 142 OFFCURVE",
"322 142 CURVE SMOOTH",
"269 142 OFFCURVE",
"231 181 OFFCURVE",
"231 234 CURVE SMOOTH",
"231 297 OFFCURVE",
"284 358 OFFCURVE",
"371 396 CURVE",
"323 429 LINE",
"220 395 OFFCURVE",
"157 325 OFFCURVE",
"157 244 CURVE SMOOTH",
"157 153 OFFCURVE",
"235 79 OFFCURVE",
"333 79 CURVE SMOOTH"
);
},
{
closed = 1;
nodes = (
"528 0 LINE",
"616 0 LINE",
"616 580 LINE",
"770 580 LINE",
"770 638 LINE",
"-22 638 LINE",
"-22 580 LINE",
"528 580 LINE"
);
},
{
closed = 1;
nodes = (
"44 396 LINE",
"440 396 LINE",
"440 464 LINE",
"44 464 LINE"
);
}
);
width = 748;
},
{
anchors = (
{
name = bottom;
position = "{572, 0}";
},
{
name = candra;
position = "{404, 638}";
},
{
name = nukta;
position = "{110, 40}";
},
{
name = top;
position = "{572, 638}";
}
);
layerId = "CD42366C-28E1-4C24-AB95-7D2C522D2B07";
name = Bold;
paths = (
{
closed = 1;
nodes = (
"428 68 OFFCURVE",
"522 148 OFFCURVE",
"577 284 CURVE",
"547 390 LINE",
"482 244 OFFCURVE",
"397 155 OFFCURVE",
"322 155 CURVE SMOOTH",
"282 155 OFFCURVE",
"253 181 OFFCURVE",
"253 228 CURVE SMOOTH",
"253 284 OFFCURVE",
"294 341 OFFCURVE",
"351 374 CURVE",
"292 407 LINE",
"195 374 OFFCURVE",
"135 301 OFFCURVE",
"135 226 CURVE SMOOTH",
"135 137 OFFCURVE",
"218 68 OFFCURVE",
"319 68 CURVE SMOOTH"
);
},
{
closed = 1;
nodes = (
"506 0 LINE",
"638 0 LINE",
"638 558 LINE",
"770 558 LINE",
"770 638 LINE",
"-22 638 LINE",
"-22 558 LINE",
"506 558 LINE"
);
},
{
closed = 1;
nodes = (
"44 374 LINE",
"440 374 LINE",
"440 464 LINE",
"44 464 LINE"
);
}
);
width = 748;
}
);
unicode = 091A;
},
{
color = 4;
glyphname = "cha-deva";
lastChange = "2015-07-15 05:15:08 +0000";
layers = (
{
anchors = (
{
name = bottom;
position = "{346, 0}";
},
{
name = candra;
position = "{385, 638}";
},
{
name = nukta;
position = "{346, -61}";
},
{
name = top;
position = "{594, 638}";
}
);
layerId = UUID0;
name = Regular;
paths = (
{
closed = 1;
nodes = (
"549 26 OFFCURVE",
"704 140 OFFCURVE",
"704 288 CURVE SMOOTH",
"704 400 OFFCURVE",
"614 467 OFFCURVE",
"458 467 CURVE SMOOTH",
"428 467 LINE",
"428 395 LINE",
"448 395 LINE SMOOTH",
"565 395 OFFCURVE",
"622 355 OFFCURVE",
"622 283 CURVE SMOOTH",
"622 177 OFFCURVE",
"500 95 OFFCURVE",
"343 95 CURVE SMOOTH",
"227 95 OFFCURVE",
"146 139 OFFCURVE",
"146 201 CURVE SMOOTH",
"146 261 OFFCURVE",
"223 323 OFFCURVE",
"298 323 CURVE SMOOTH",
"332 323 LINE",
"332 359 LINE",
"228 359 LINE",
"132 339 OFFCURVE",
"65 272 OFFCURVE",
"65 198 CURVE SMOOTH",
"65 99 OFFCURVE",
"184 26 OFFCURVE",
"346 26 CURVE SMOOTH"
);
},
{
closed = 1;
nodes = (
"332 333 LINE",
"332 382 LINE",
"294 382 LINE SMOOTH",
"204 382 OFFCURVE",
"149 422 OFFCURVE",
"149 488 CURVE SMOOTH",
"149 543 OFFCURVE",
"188 580 OFFCURVE",
"247 580 CURVE",
"247 603 LINE",
"206 603 LINE SMOOTH",
"124 603 OFFCURVE",
"66 552 OFFCURVE",
"66 480 CURVE SMOOTH",
"66 390 OFFCURVE",
"156 333 OFFCURVE",
"296 333 CURVE"
);
},
{
closed = 1;
nodes = (
"550 382 LINE",
"638 382 LINE",
"638 580 LINE",
"792 580 LINE",
"792 638 LINE",
"-22 638 LINE",
"-22 580 LINE",
"550 580 LINE"
);
}
);
width = 770;
},
{
anchors = (
{
name = bottom;
position = "{346, 0}";
},
{
name = candra;
position = "{385, 638}";
},
{
name = nukta;
position = "{346, -61}";
},
{
name = top;
position = "{594, 638}";
}
);
layerId = "CD42366C-28E1-4C24-AB95-7D2C522D2B07";
name = Bold;
paths = (
{
closed = 1;
nodes = (
"558 26 OFFCURVE",
"726 140 OFFCURVE",
"726 287 CURVE SMOOTH",
"726 400 OFFCURVE",
"628 467 OFFCURVE",
"458 467 CURVE SMOOTH",
"406 467 LINE",
"406 373 LINE",
"448 373 LINE SMOOTH",
"552 373 OFFCURVE",
"600 341 OFFCURVE",
"600 281 CURVE SMOOTH",
"600 190 OFFCURVE",
"492 117 OFFCURVE",
"334 117 CURVE SMOOTH",
"227 117 OFFCURVE",
"168 150 OFFCURVE",
"168 206 CURVE SMOOTH",
"168 260 OFFCURVE",
"223 312 OFFCURVE",
"298 312 CURVE SMOOTH",
"332 312 LINE",
"332 370 LINE",
"206 370 LINE",
"118 351 OFFCURVE",
"43 298 OFFCURVE",
"43 206 CURVE SMOOTH",
"43 57 OFFCURVE",
"241 26 OFFCURVE",
"350 26 CURVE SMOOTH"
);
},
{
closed = 1;
nodes = (
"332 322 LINE",
"332 404 LINE",
"294 404 LINE SMOOTH",
"217 404 OFFCURVE",
"171 434 OFFCURVE",
"171 485 CURVE SMOOTH",
"171 532 OFFCURVE",
"211 558 OFFCURVE",
"269 558 CURVE",
"269 581 LINE",
"184 581 LINE SMOOTH",
"102 581 OFFCURVE",
"44 539 OFFCURVE",
"44 471 CURVE SMOOTH",
"44 383 OFFCURVE",
"143 322 OFFCURVE",
"296 322 CURVE"
);
},
{
closed = 1;
nodes = (
"528 382 LINE",
"660 382 LINE",
"660 558 LINE",
"792 558 LINE",
"792 638 LINE",
"-22 638 LINE",
"-22 558 LINE",
"528 558 LINE"
);
}
);
width = 770;
}
);
unicode = 091B;
},
{
color = 4;
glyphname = "ja-deva";
lastChange = "2015-07-15 05:15:08 +0000";
layers = (
{
anchors = (
{
name = bottom;
position = "{638, 0}";
},
{
name = candra;
position = "{407, 638}";
},
{
name = nukta;
position = "{82, 70}";
},
{
name = top;
position = "{638, 638}";
}
);
layerId = UUID0;
name = Regular;
paths = (
{
closed = 1;
nodes = (
"388 79 OFFCURVE",
"462 147 OFFCURVE",
"462 242 CURVE SMOOTH",
"462 338 OFFCURVE",
"387 404 OFFCURVE",
"264 429 CURVE",
"258 396 LINE",
"329 381 OFFCURVE",
"383 322 OFFCURVE",
"383 258 CURVE SMOOTH",
"383 196 OFFCURVE",
"331 151 OFFCURVE",
"264 151 CURVE SMOOTH",
"191 151 OFFCURVE",
"133 204 OFFCURVE",
"73 320 CURVE",
"39 284 LINE",
"95 152 OFFCURVE",
"183 79 OFFCURVE",
"287 79 CURVE SMOOTH"
);
},
{
closed = 1;
nodes = (
"594 0 LINE",
"682 0 LINE",
"682 580 LINE",
"836 580 LINE",
"836 638 LINE",
"-22 638 LINE",
"-22 580 LINE",
"594 580 LINE"
);
},
{
closed = 1;
nodes = (
"242 396 LINE",
"644 396 LINE",
"644 464 LINE",
"242 464 LINE"
);
}
);
width = 814;
},
{
anchors = (
{
name = bottom;
position = "{638, 0}";
},
{
name = candra;
position = "{407, 638}";
},
{
name = nukta;
position = "{82, 70}";
},
{
name = top;
position = "{638, 638}";
}
);
layerId = "CD42366C-28E1-4C24-AB95-7D2C522D2B07";
name = Bold;
paths = (
{
closed = 1;
nodes = (
"406 79 OFFCURVE",
"484 147 OFFCURVE",
"484 242 CURVE SMOOTH",
"484 329 OFFCURVE",
"420 393 OFFCURVE",
"308 418 CURVE",
"258 385 LINE",
"319 371 OFFCURVE",
"361 317 OFFCURVE",
"361 262 CURVE SMOOTH",
"361 207 OFFCURVE",
"319 173 OFFCURVE",
"263 173 CURVE SMOOTH",
"199 173 OFFCURVE",
"143 217 OFFCURVE",
"84 331 CURVE",
"39 284 LINE",
"98 150 OFFCURVE",
"190 79 OFFCURVE",
"299 79 CURVE SMOOTH"
);
},
{
closed = 1;
nodes = (
"572 0 LINE",
"704 0 LINE",
"704 558 LINE",
"836 558 LINE",
"836 638 LINE",
"-22 638 LINE",
"-22 558 LINE",
"572 558 LINE"
);
},
{
closed = 1;
nodes = (
"240 385 LINE",
"644 385 LINE",
"644 475 LINE",
"240 475 LINE"
);
}
);
width = 814;
}
);
unicode = 091C;
},
{
color = 6;
glyphname = "jha-deva";
lastChange = "2015-06-11 17:50:21 +0000";
layers = (
{
components = (
{
name = "i-deva";
},
{
name = "aaMatra-deva";
transform = "{1, 0, 0, 1, 616, 0}";
}
);
layerId = UUID0;
name = Regular;
paths = (
{
closed = 1;
nodes = (
"462 198 LINE",
"598 217 OFFCURVE",
"708 259 OFFCURVE",
"792 379 CURVE",
"792 444 LINE",
"748 444 LINE",
"701 341 OFFCURVE",
"568 272 OFFCURVE",
"462 257 CURVE"
);
}
);
width = 968;
},
{
components = (
{
name = "i-deva";
},
{
name = "aaMatra-deva";
transform = "{1, 0, 0, 1, 616, 0}";
}
);
layerId = "CD42366C-28E1-4C24-AB95-7D2C522D2B07";
name = Bold;
paths = (
{
closed = 1;
nodes = (
"462 187 LINE",
"598 206 OFFCURVE",
"708 248 OFFCURVE",
"792 368 CURVE",
"792 455 LINE",
"748 455 LINE",
"701 352 OFFCURVE",
"568 283 OFFCURVE",
"462 268 CURVE"
);
}
);
width = 968;
}
);
unicode = 091D;
},
{
color = 4;
glyphname = "nya-deva";
lastChange = "2015-07-15 05:15:08 +0000";
layers = (
{
anchors = (
{
name = bottom;
position = "{616, 0}";
},
{
name = candra;
position = "{396, 638}";
},
{
name = nukta;
position = "{110, 40}";
},
{
name = top;
position = "{616, 638}";
}
);
layerId = UUID0;
name = Regular;
paths = (
{
closed = 1;
nodes = (
"351 107 OFFCURVE",
"429 187 OFFCURVE",
"429 294 CURVE SMOOTH",
"429 395 OFFCURVE",
"354 470 OFFCURVE",
"253 470 CURVE SMOOTH",
"204 470 OFFCURVE",
"161 464 OFFCURVE",
"115 447 CURVE",
"138 379 LINE",
"185 394 OFFCURVE",
"229 399 OFFCURVE",
"278 399 CURVE SMOOTH",
"321 399 OFFCURVE",
"344 358 OFFCURVE",
"344 312 CURVE SMOOTH",
"344 237 OFFCURVE",
"300 174 OFFCURVE",
"229 174 CURVE SMOOTH",
"172 174 OFFCURVE",
"125 198 OFFCURVE",
"75 225 CURVE",
"66 168 LINE",
"121 131 OFFCURVE",
"177 107 OFFCURVE",
"244 107 CURVE SMOOTH"
);
},
{
closed = 1;
nodes = (
"572 -20 LINE",
"660 -20 LINE",
"660 580 LINE",
"814 580 LINE",
"814 638 LINE",
"-22 638 LINE",
"-22 580 LINE",
"572 580 LINE"
);
},
{
closed = 1;
nodes = (
"374 257 LINE",
"459 257 OFFCURVE",
"538 258 OFFCURVE",
"616 293 CURVE",
"616 371 LINE",
"541 325 OFFCURVE",
"462 317 OFFCURVE",
"374 317 CURVE"
);
}
);
width = 792;
},
{
anchors = (
{
name = bottom;
position = "{616, 0}";
},
{
name = candra;
position = "{396, 638}";
},
{
name = nukta;
position = "{110, 40}";
},
{
name = top;
position = "{616, 638}";
}
);
layerId = "CD42366C-28E1-4C24-AB95-7D2C522D2B07";
name = Bold;
paths = (
{
closed = 1;
nodes = (
"366 107 OFFCURVE",
"451 187 OFFCURVE",
"451 295 CURVE SMOOTH",
"451 399 OFFCURVE",
"373 481 OFFCURVE",
"245 481 CURVE SMOOTH",
"208 481 OFFCURVE",
"149 474 OFFCURVE",
"93 447 CURVE",
"116 357 LINE",
"159 379 OFFCURVE",
"213 388 OFFCURVE",
"244 388 CURVE SMOOTH",
"306 388 OFFCURVE",
"322 352 OFFCURVE",
"322 310 CURVE SMOOTH",
"322 257 OFFCURVE",
"296 196 OFFCURVE",
"220 196 CURVE SMOOTH",
"159 196 OFFCURVE",
"77 236 OFFCURVE",
"53 247 CURVE",
"44 168 LINE",
"106 131 OFFCURVE",
"171 107 OFFCURVE",
"240 107 CURVE SMOOTH"
);
},
{
closed = 1;
nodes = (
"550 -20 LINE",
"682 -20 LINE",
"682 558 LINE",
"814 558 LINE",
"814 638 LINE",
"-22 638 LINE",
"-22 558 LINE",
"550 558 LINE"
);
},
{
closed = 1;
nodes = (
"374 246 LINE",
"459 246 OFFCURVE",
"538 247 OFFCURVE",
"616 282 CURVE",
"616 382 LINE",
"541 336 OFFCURVE",
"462 328 OFFCURVE",
"374 328 CURVE"
);
}
);
width = 792;
}
);
unicode = 091E;
},
{
color = 4;
glyphname = "tta-deva";
lastChange = "2015-07-15 05:15:08 +0000";
layers = (
{
anchors = (
{
name = bottom;
position = "{280, 0}";
},
{
name = candra;
position = "{308, 638}";
},
{
name = nukta;
position = "{280, -89}";
},
{
name = top;
position = "{374, 638}";
}
);
layerId = UUID0;
name = Regular;
paths = (
{
closed = 1;
nodes = (
"372 19 OFFCURVE",
"445 60 OFFCURVE",
"525 105 CURVE",
"493 174 LINE",
"417 126 OFFCURVE",
"345 87 OFFCURVE",
"255 87 CURVE SMOOTH",
"183 87 OFFCURVE",
"148 160 OFFCURVE",
"148 240 CURVE SMOOTH",
"148 312 OFFCURVE",
"191 372 OFFCURVE",
"259 372 CURVE SMOOTH",
"418 372 LINE",
"418 580 LINE",
"594 580 LINE",
"594 638 LINE",
"-22 638 LINE",
"-22 580 LINE",
"330 580 LINE",
"330 436 LINE",
"224 436 LINE SMOOTH",
"128 436 OFFCURVE",
"66 353 OFFCURVE",
"66 251 CURVE SMOOTH",
"66 121 OFFCURVE",
"154 19 OFFCURVE",
"280 19 CURVE SMOOTH"
);
}
);
width = 572;
},
{
anchors = (
{
name = bottom;
position = "{280, 0}";
},
{
name = candra;
position = "{308, 638}";
},
{
name = nukta;
position = "{280, -89}";
},
{
name = top;
position = "{374, 638}";
}
);
layerId = "CD42366C-28E1-4C24-AB95-7D2C522D2B07";
name = Bold;
paths = (
{
closed = 1;
nodes = (
"381 19 OFFCURVE",
"470 65 OFFCURVE",
"547 105 CURVE",
"515 196 LINE",
"452 158 OFFCURVE",
"346 109 OFFCURVE",
"277 109 CURVE SMOOTH",
"219 109 OFFCURVE",
"170 143 OFFCURVE",
"170 228 CURVE SMOOTH",
"170 306 OFFCURVE",
"212 350 OFFCURVE",
"281 350 CURVE SMOOTH",
"440 350 LINE",
"440 558 LINE",
"594 558 LINE",
"594 638 LINE",
"-22 638 LINE",
"-22 558 LINE",
"308 558 LINE",
"308 436 LINE",
"202 436 LINE SMOOTH",
"106 436 OFFCURVE",
"44 354 OFFCURVE",
"44 250 CURVE SMOOTH",
"44 121 OFFCURVE",
"139 19 OFFCURVE",
"284 19 CURVE SMOOTH"
);
}
);
width = 572;
}
);
unicode = 091F;
},
